%
M48
M72
T01C0.0240
T02C0.0320
T03C0.0360
T04C0.0394
T05C0.0400
T06C0.0440
T07C0.0591
T08C0.1260
%
T01
X3375Y4475
X6125Y4575
X3375Y6825
X9325Y7775
X16125Y9325
X17275Y7475
X18475Y6975
X21675Y5675
X24725Y7075
X24375Y7575
X22825Y7125
X26875Y8425
X28125Y10375
X32625Y7425
X37525Y7725
X33625Y5425
T02
X1925Y1925
X2925Y2175
X3925Y2175
X5525Y2175
X6525Y2175
X6325Y3325
X5325Y3325
X4175Y3325
X3175Y3325
X1925Y3925
X7525Y4225
X8525Y4225
X9525Y4225
X10525Y4225
X11525Y4225
X12525Y4225
X13525Y4225
X14525Y4225
X15525Y4225
X16525Y4225
X17525Y4225
X18525Y4225
X19525Y4225
X20525Y4225
X21525Y4225
X22525Y4225
X23525Y4225
X24525Y4225
X25525Y4225
X26525Y4225
X28625Y5075
X28625Y6975
X33775Y7475
X36775Y7475
X37925Y6975
X35925Y5975
X35925Y4975
X37925Y4975
X37925Y4025
X35925Y3475
X35925Y2475
X37925Y2025
X29125Y2475
X28125Y2475
X28125Y8975
X29125Y8975
X26525Y10225
X25525Y10225
X24525Y10225
X23525Y10225
X22525Y10225
X21525Y10225
X20525Y10225
X19525Y10225
X18525Y10225
X17525Y10225
X16525Y10225
X15525Y10225
X14525Y10225
X13525Y10225
X12525Y10225
X11525Y10225
X10525Y10225
X9525Y10225
X8525Y10225
X7525Y10225
X5075Y10675
X3075Y10675
T03
X4025Y7925
X5025Y7925
X5025Y6925
X4025Y6925
X4025Y5925
X5025Y5925
X31125Y5875
X32125Y5875
X32125Y4875
X31125Y4875
X31125Y3875
X32125Y3875
X32125Y6875
X31125Y6875
X31125Y7875
X32125Y7875
T04
X39475Y5225
X39475Y4225
X39475Y3225
T05
X26525Y2225
X25525Y2225
X24525Y2225
X23525Y2225
X22525Y2225
X21525Y2225
X20525Y2225
X19525Y2225
X18525Y2225
X17525Y2225
X16525Y2225
X15525Y2225
X14525Y2225
X13525Y2225
X12525Y2225
X11525Y2225
X10525Y2225
X9525Y2225
X8525Y2225
X7525Y2225
X1875Y5475
X1875Y6475
X1875Y7475
X1875Y8475
X1875Y9475
X1875Y10475
X6225Y10575
X6225Y11575
X7525Y12225
X8525Y12225
X9525Y12225
X10525Y12225
X11525Y12225
X12525Y12225
X13525Y12225
X14525Y12225
X15525Y12225
X16525Y12225
X17525Y12225
X18525Y12225
X19525Y12225
X20525Y12225
X21525Y12225
X22525Y12225
X23525Y12225
X24525Y12225
X25525Y12225
X26525Y12225
X27525Y12225
X28525Y12225
X34285Y11405
X36065Y11405
X36065Y8845
X34285Y8845
T06
X34175Y6275
X34175Y2275
T07
X33052Y11299
X31481Y11303
X29910Y11303
T08
X37081Y10125
X39444Y10125
X38243Y12054
M30
