%
M48
M72
T01C0.0240
T02C0.0320
T03C0.0360
T04C0.0394
T05C0.0400
T06C0.0440
T07C0.0591
T08C0.1260
%
T01
X2345Y3275
X5095Y3375
X2345Y5625
X8295Y6575
X15095Y8125
X16245Y6275
X17445Y5775
X20645Y4475
X23695Y5875
X23345Y6375
X21795Y5925
X25845Y7225
X27095Y9175
X31595Y6225
X36495Y6525
X32595Y4225
X2345Y15677
X5095Y15777
X2345Y18027
X8295Y18977
X15095Y20527
X16245Y18677
X17445Y18177
X20645Y16877
X23695Y18277
X23345Y18777
X21795Y18327
X25845Y19627
X27095Y21577
X31595Y18627
X36495Y18927
X32595Y16627
X2345Y28078
X5095Y28178
X2345Y30428
X8295Y31378
X15095Y32928
X16245Y31078
X17445Y30578
X20645Y29278
X23695Y30678
X23345Y31178
X21795Y30728
X25845Y32028
X27095Y33978
X31595Y31028
X36495Y31328
X32595Y29028
T02
X895Y725
X1895Y975
X2895Y975
X4495Y975
X5495Y975
X5295Y2125
X4295Y2125
X3145Y2125
X2145Y2125
X895Y2725
X6495Y3025
X7495Y3025
X8495Y3025
X9495Y3025
X10495Y3025
X11495Y3025
X12495Y3025
X13495Y3025
X14495Y3025
X15495Y3025
X16495Y3025
X17495Y3025
X18495Y3025
X19495Y3025
X20495Y3025
X21495Y3025
X22495Y3025
X23495Y3025
X24495Y3025
X25495Y3025
X27595Y3875
X27595Y5775
X32745Y6275
X35745Y6275
X36895Y5775
X34895Y4775
X34895Y3775
X36895Y3775
X36895Y2825
X34895Y2275
X34895Y1275
X36895Y825
X28095Y1275
X27095Y1275
X27095Y7775
X28095Y7775
X25495Y9025
X24495Y9025
X23495Y9025
X22495Y9025
X21495Y9025
X20495Y9025
X19495Y9025
X18495Y9025
X17495Y9025
X16495Y9025
X15495Y9025
X14495Y9025
X13495Y9025
X12495Y9025
X11495Y9025
X10495Y9025
X9495Y9025
X8495Y9025
X7495Y9025
X6495Y9025
X4045Y9475
X2045Y9475
X895Y13127
X1895Y13377
X2895Y13377
X4495Y13377
X5495Y13377
X5295Y14527
X4295Y14527
X3145Y14527
X2145Y14527
X895Y15127
X6495Y15427
X7495Y15427
X8495Y15427
X9495Y15427
X10495Y15427
X11495Y15427
X12495Y15427
X13495Y15427
X14495Y15427
X15495Y15427
X16495Y15427
X17495Y15427
X18495Y15427
X19495Y15427
X20495Y15427
X21495Y15427
X22495Y15427
X23495Y15427
X24495Y15427
X25495Y15427
X27595Y16277
X27595Y18177
X32745Y18677
X35745Y18677
X36895Y18177
X34895Y17177
X34895Y16177
X36895Y16177
X36895Y15227
X34895Y14677
X34895Y13677
X36895Y13227
X28095Y13677
X27095Y13677
X27095Y20177
X28095Y20177
X25495Y21427
X24495Y21427
X23495Y21427
X22495Y21427
X21495Y21427
X20495Y21427
X19495Y21427
X18495Y21427
X17495Y21427
X16495Y21427
X15495Y21427
X14495Y21427
X13495Y21427
X12495Y21427
X11495Y21427
X10495Y21427
X9495Y21427
X8495Y21427
X7495Y21427
X6495Y21427
X4045Y21877
X2045Y21877
X895Y25528
X1895Y25778
X2895Y25778
X4495Y25778
X5495Y25778
X5295Y26928
X4295Y26928
X3145Y26928
X2145Y26928
X895Y27528
X6495Y27828
X7495Y27828
X8495Y27828
X9495Y27828
X10495Y27828
X11495Y27828
X12495Y27828
X13495Y27828
X14495Y27828
X15495Y27828
X16495Y27828
X17495Y27828
X18495Y27828
X19495Y27828
X20495Y27828
X21495Y27828
X22495Y27828
X23495Y27828
X24495Y27828
X25495Y27828
X27595Y28678
X27595Y30578
X32745Y31078
X35745Y31078
X36895Y30578
X34895Y29578
X34895Y28578
X36895Y28578
X36895Y27628
X34895Y27078
X34895Y26078
X36895Y25628
X28095Y26078
X27095Y26078
X27095Y32578
X28095Y32578
X25495Y33828
X24495Y33828
X23495Y33828
X22495Y33828
X21495Y33828
X20495Y33828
X19495Y33828
X18495Y33828
X17495Y33828
X16495Y33828
X15495Y33828
X14495Y33828
X13495Y33828
X12495Y33828
X11495Y33828
X10495Y33828
X9495Y33828
X8495Y33828
X7495Y33828
X6495Y33828
X4045Y34278
X2045Y34278
T03
X2995Y6725
X3995Y6725
X3995Y5725
X2995Y5725
X2995Y4725
X3995Y4725
X30095Y4675
X31095Y4675
X31095Y3675
X30095Y3675
X30095Y2675
X31095Y2675
X31095Y5675
X30095Y5675
X30095Y6675
X31095Y6675
X2995Y19127
X3995Y19127
X3995Y18127
X2995Y18127
X2995Y17127
X3995Y17127
X30095Y17077
X31095Y17077
X31095Y16077
X30095Y16077
X30095Y15077
X31095Y15077
X31095Y18077
X30095Y18077
X30095Y19077
X31095Y19077
X2995Y31528
X3995Y31528
X3995Y30528
X2995Y30528
X2995Y29528
X3995Y29528
X30095Y29478
X31095Y29478
X31095Y28478
X30095Y28478
X30095Y27478
X31095Y27478
X31095Y30478
X30095Y30478
X30095Y31478
X31095Y31478
T04
X38445Y4025
X38445Y3025
X38445Y2025
X38445Y16427
X38445Y15427
X38445Y14427
X38445Y28828
X38445Y27828
X38445Y26828
T05
X25495Y1025
X24495Y1025
X23495Y1025
X22495Y1025
X21495Y1025
X20495Y1025
X19495Y1025
X18495Y1025
X17495Y1025
X16495Y1025
X15495Y1025
X14495Y1025
X13495Y1025
X12495Y1025
X11495Y1025
X10495Y1025
X9495Y1025
X8495Y1025
X7495Y1025
X6495Y1025
X845Y4275
X845Y5275
X845Y6275
X845Y7275
X845Y8275
X845Y9275
X5195Y9375
X5195Y10375
X6495Y11025
X7495Y11025
X8495Y11025
X9495Y11025
X10495Y11025
X11495Y11025
X12495Y11025
X13495Y11025
X14495Y11025
X15495Y11025
X16495Y11025
X17495Y11025
X18495Y11025
X19495Y11025
X20495Y11025
X21495Y11025
X22495Y11025
X23495Y11025
X24495Y11025
X25495Y11025
X26495Y11025
X27495Y11025
X33255Y10205
X35035Y10205
X35035Y7645
X33255Y7645
X25495Y13427
X24495Y13427
X23495Y13427
X22495Y13427
X21495Y13427
X20495Y13427
X19495Y13427
X18495Y13427
X17495Y13427
X16495Y13427
X15495Y13427
X14495Y13427
X13495Y13427
X12495Y13427
X11495Y13427
X10495Y13427
X9495Y13427
X8495Y13427
X7495Y13427
X6495Y13427
X845Y16677
X845Y17677
X845Y18677
X845Y19677
X845Y20677
X845Y21677
X5195Y21777
X5195Y22777
X6495Y23427
X7495Y23427
X8495Y23427
X9495Y23427
X10495Y23427
X11495Y23427
X12495Y23427
X13495Y23427
X14495Y23427
X15495Y23427
X16495Y23427
X17495Y23427
X18495Y23427
X19495Y23427
X20495Y23427
X21495Y23427
X22495Y23427
X23495Y23427
X24495Y23427
X25495Y23427
X26495Y23427
X27495Y23427
X33255Y22607
X35035Y22607
X35035Y20047
X33255Y20047
X25495Y25828
X24495Y25828
X23495Y25828
X22495Y25828
X21495Y25828
X20495Y25828
X19495Y25828
X18495Y25828
X17495Y25828
X16495Y25828
X15495Y25828
X14495Y25828
X13495Y25828
X12495Y25828
X11495Y25828
X10495Y25828
X9495Y25828
X8495Y25828
X7495Y25828
X6495Y25828
X845Y29078
X845Y30078
X845Y31078
X845Y32078
X845Y33078
X845Y34078
X5195Y34178
X5195Y35178
X6495Y35828
X7495Y35828
X8495Y35828
X9495Y35828
X10495Y35828
X11495Y35828
X12495Y35828
X13495Y35828
X14495Y35828
X15495Y35828
X16495Y35828
X17495Y35828
X18495Y35828
X19495Y35828
X20495Y35828
X21495Y35828
X22495Y35828
X23495Y35828
X24495Y35828
X25495Y35828
X26495Y35828
X27495Y35828
X33255Y35008
X35035Y35008
X35035Y32448
X33255Y32448
T06
X33145Y5075
X33145Y1075
X33145Y17477
X33145Y13477
X33145Y29878
X33145Y25878
T07
X32022Y10099
X30451Y10103
X28880Y10103
X32022Y22501
X30451Y22505
X28880Y22505
X32022Y34902
X30451Y34906
X28880Y34906
T08
X36051Y8925
X38414Y8925
X37213Y10854
X36051Y21327
X38414Y21327
X37213Y23256
X36051Y33728
X38414Y33728
X37213Y35657
M30
