G75*
G70*
%OFA0B0*%
%FSLAX24Y24*%
%IPPOS*%
%LPD*%
%AMOC8*
5,1,8,0,0,1.08239X$1,22.5*
%
%ADD10C,0.0000*%
%ADD11C,0.0480*%
%ADD12OC8,0.0480*%
%ADD13OC8,0.0540*%
%ADD14C,0.0600*%
%ADD15C,0.0480*%
%ADD16C,0.0660*%
%ADD17R,0.0591X0.0591*%
%ADD18C,0.0591*%
%ADD19OC8,0.0630*%
%ADD20C,0.0630*%
%ADD21C,0.0886*%
%ADD22C,0.1660*%
%ADD23C,0.0250*%
%ADD24C,0.0360*%
D10*
X001131Y001300D02*
X001131Y013111D01*
X040501Y013111D01*
X040501Y001300D01*
X001131Y001300D01*
D11*
X007525Y003985D02*
X007525Y004465D01*
X008525Y004465D02*
X008525Y003985D01*
X009525Y003985D02*
X009525Y004465D01*
X010525Y004465D02*
X010525Y003985D01*
X011525Y003985D02*
X011525Y004465D01*
X012525Y004465D02*
X012525Y003985D01*
X013525Y003985D02*
X013525Y004465D01*
X014525Y004465D02*
X014525Y003985D01*
X015525Y003985D02*
X015525Y004465D01*
X016525Y004465D02*
X016525Y003985D01*
X017525Y003985D02*
X017525Y004465D01*
X018525Y004465D02*
X018525Y003985D01*
X019525Y003985D02*
X019525Y004465D01*
X020525Y004465D02*
X020525Y003985D01*
X021525Y003985D02*
X021525Y004465D01*
X022525Y004465D02*
X022525Y003985D01*
X023525Y003985D02*
X023525Y004465D01*
X024525Y004465D02*
X024525Y003985D01*
X025525Y003985D02*
X025525Y004465D01*
X026525Y004465D02*
X026525Y003985D01*
X026525Y009985D02*
X026525Y010465D01*
X025525Y010465D02*
X025525Y009985D01*
X024525Y009985D02*
X024525Y010465D01*
X023525Y010465D02*
X023525Y009985D01*
X022525Y009985D02*
X022525Y010465D01*
X021525Y010465D02*
X021525Y009985D01*
X020525Y009985D02*
X020525Y010465D01*
X019525Y010465D02*
X019525Y009985D01*
X018525Y009985D02*
X018525Y010465D01*
X017525Y010465D02*
X017525Y009985D01*
X016525Y009985D02*
X016525Y010465D01*
X015525Y010465D02*
X015525Y009985D01*
X014525Y009985D02*
X014525Y010465D01*
X013525Y010465D02*
X013525Y009985D01*
X012525Y009985D02*
X012525Y010465D01*
X011525Y010465D02*
X011525Y009985D01*
X010525Y009985D02*
X010525Y010465D01*
X009525Y010465D02*
X009525Y009985D01*
X008525Y009985D02*
X008525Y010465D01*
X007525Y010465D02*
X007525Y009985D01*
D12*
X005075Y010675D03*
X003075Y010675D03*
X001925Y003925D03*
X003175Y003325D03*
X004175Y003325D03*
X005325Y003325D03*
X006325Y003325D03*
X006525Y002175D03*
X005525Y002175D03*
X003925Y002175D03*
X002925Y002175D03*
X001925Y001925D03*
X028125Y002475D03*
X029125Y002475D03*
X037925Y002025D03*
X037925Y004025D03*
X037925Y004975D03*
X037925Y006975D03*
X036775Y007475D03*
X033775Y007475D03*
X029125Y008975D03*
X028125Y008975D03*
D13*
X031125Y007875D03*
X032125Y007875D03*
X032125Y006875D03*
X031125Y006875D03*
X031125Y005875D03*
X032125Y005875D03*
X032125Y004875D03*
X031125Y004875D03*
X031125Y003875D03*
X032125Y003875D03*
X005025Y005925D03*
X004025Y005925D03*
X004025Y006925D03*
X005025Y006925D03*
X005025Y007925D03*
X004025Y007925D03*
D14*
X002175Y007475D02*
X001575Y007475D01*
X001575Y006475D02*
X002175Y006475D01*
X002175Y005475D02*
X001575Y005475D01*
X001575Y008475D02*
X002175Y008475D01*
X002175Y009475D02*
X001575Y009475D01*
X001575Y010475D02*
X002175Y010475D01*
X005925Y010575D02*
X006525Y010575D01*
X006525Y011575D02*
X005925Y011575D01*
X007525Y011925D02*
X007525Y012525D01*
X008525Y012525D02*
X008525Y011925D01*
X009525Y011925D02*
X009525Y012525D01*
X010525Y012525D02*
X010525Y011925D01*
X011525Y011925D02*
X011525Y012525D01*
X012525Y012525D02*
X012525Y011925D01*
X013525Y011925D02*
X013525Y012525D01*
X014525Y012525D02*
X014525Y011925D01*
X015525Y011925D02*
X015525Y012525D01*
X016525Y012525D02*
X016525Y011925D01*
X017525Y011925D02*
X017525Y012525D01*
X018525Y012525D02*
X018525Y011925D01*
X019525Y011925D02*
X019525Y012525D01*
X020525Y012525D02*
X020525Y011925D01*
X021525Y011925D02*
X021525Y012525D01*
X022525Y012525D02*
X022525Y011925D01*
X023525Y011925D02*
X023525Y012525D01*
X024525Y012525D02*
X024525Y011925D01*
X025525Y011925D02*
X025525Y012525D01*
X026525Y012525D02*
X026525Y011925D01*
X027525Y011925D02*
X027525Y012525D01*
X028525Y012525D02*
X028525Y011925D01*
X034285Y011705D02*
X034285Y011105D01*
X036065Y011105D02*
X036065Y011705D01*
X036065Y009145D02*
X036065Y008545D01*
X034285Y008545D02*
X034285Y009145D01*
X026525Y002525D02*
X026525Y001925D01*
X025525Y001925D02*
X025525Y002525D01*
X024525Y002525D02*
X024525Y001925D01*
X023525Y001925D02*
X023525Y002525D01*
X022525Y002525D02*
X022525Y001925D01*
X021525Y001925D02*
X021525Y002525D01*
X020525Y002525D02*
X020525Y001925D01*
X019525Y001925D02*
X019525Y002525D01*
X018525Y002525D02*
X018525Y001925D01*
X017525Y001925D02*
X017525Y002525D01*
X016525Y002525D02*
X016525Y001925D01*
X015525Y001925D02*
X015525Y002525D01*
X014525Y002525D02*
X014525Y001925D01*
X013525Y001925D02*
X013525Y002525D01*
X012525Y002525D02*
X012525Y001925D01*
X011525Y001925D02*
X011525Y002525D01*
X010525Y002525D02*
X010525Y001925D01*
X009525Y001925D02*
X009525Y002525D01*
X008525Y002525D02*
X008525Y001925D01*
X007525Y001925D02*
X007525Y002525D01*
D15*
X028625Y005075D03*
X028625Y006975D03*
D16*
X034175Y006275D03*
X034175Y002275D03*
D17*
X039475Y005225D03*
D18*
X039475Y004225D03*
X039475Y003225D03*
D19*
X035925Y003475D03*
X035925Y005975D03*
D20*
X035925Y004975D03*
X035925Y002475D03*
D21*
X033052Y010856D02*
X033052Y011742D01*
X031481Y011746D02*
X031481Y010860D01*
X029910Y010860D02*
X029910Y011746D01*
D22*
X037081Y010125D03*
X039444Y010125D03*
X038243Y012054D03*
D23*
X039312Y011737D02*
X040276Y011737D01*
X040276Y011985D02*
X039358Y011985D01*
X039358Y011907D02*
X039358Y012201D01*
X039282Y012484D01*
X039135Y012739D01*
X038988Y012886D01*
X040276Y012886D01*
X040276Y010773D01*
X040231Y010829D01*
X040148Y010913D01*
X040055Y010987D01*
X039955Y011050D01*
X039848Y011101D01*
X039736Y011140D01*
X039620Y011167D01*
X039569Y011173D01*
X039569Y010250D01*
X039319Y010250D01*
X039319Y011173D01*
X039267Y011167D01*
X039151Y011140D01*
X039039Y011101D01*
X038932Y011050D01*
X038832Y010987D01*
X038739Y010913D01*
X038656Y010829D01*
X038582Y010736D01*
X038519Y010636D01*
X038467Y010529D01*
X038428Y010418D01*
X038402Y010302D01*
X038396Y010250D01*
X039318Y010250D01*
X039318Y010000D01*
X038396Y010000D01*
X038402Y009948D01*
X038428Y009832D01*
X038467Y009721D01*
X038519Y009614D01*
X038582Y009514D01*
X038656Y009421D01*
X038739Y009337D01*
X038832Y009263D01*
X038932Y009200D01*
X039039Y009149D01*
X039151Y009110D01*
X039267Y009083D01*
X039319Y009077D01*
X039319Y010000D01*
X039569Y010000D01*
X039569Y009077D01*
X039620Y009083D01*
X039736Y009110D01*
X039848Y009149D01*
X039955Y009200D01*
X040055Y009263D01*
X040148Y009337D01*
X040231Y009421D01*
X040276Y009477D01*
X040276Y001525D01*
X038167Y001525D01*
X038450Y001808D01*
X038450Y002242D01*
X038142Y002550D01*
X037708Y002550D01*
X037400Y002242D01*
X037400Y001808D01*
X037683Y001525D01*
X026952Y001525D01*
X027021Y001594D01*
X027110Y001809D01*
X027110Y002641D01*
X027021Y002856D01*
X026856Y003021D01*
X026641Y003110D01*
X026409Y003110D01*
X026194Y003021D01*
X026029Y002856D01*
X026025Y002847D01*
X026021Y002856D01*
X025856Y003021D01*
X025641Y003110D01*
X025409Y003110D01*
X025194Y003021D01*
X025029Y002856D01*
X025025Y002847D01*
X025021Y002856D01*
X024856Y003021D01*
X024641Y003110D01*
X024409Y003110D01*
X024194Y003021D01*
X024029Y002856D01*
X024025Y002847D01*
X024021Y002856D01*
X023856Y003021D01*
X023641Y003110D01*
X023409Y003110D01*
X023194Y003021D01*
X023029Y002856D01*
X023025Y002847D01*
X023021Y002856D01*
X022856Y003021D01*
X022641Y003110D01*
X022409Y003110D01*
X022194Y003021D01*
X022029Y002856D01*
X022025Y002847D01*
X022021Y002856D01*
X021856Y003021D01*
X021641Y003110D01*
X021409Y003110D01*
X021194Y003021D01*
X021029Y002856D01*
X021025Y002847D01*
X021021Y002856D01*
X020856Y003021D01*
X020641Y003110D01*
X020409Y003110D01*
X020194Y003021D01*
X020029Y002856D01*
X019992Y002766D01*
X019974Y002800D01*
X019925Y002867D01*
X019867Y002925D01*
X019813Y002965D01*
X019857Y002965D01*
X020007Y003027D01*
X020440Y003460D01*
X020629Y003460D01*
X020822Y003540D01*
X020970Y003688D01*
X021025Y003820D01*
X021080Y003688D01*
X021228Y003540D01*
X021421Y003460D01*
X021629Y003460D01*
X021822Y003540D01*
X021970Y003688D01*
X022025Y003820D01*
X022080Y003688D01*
X022228Y003540D01*
X022421Y003460D01*
X022629Y003460D01*
X022822Y003540D01*
X022970Y003688D01*
X023025Y003820D01*
X023080Y003688D01*
X023228Y003540D01*
X023421Y003460D01*
X023629Y003460D01*
X023822Y003540D01*
X023970Y003688D01*
X024025Y003820D01*
X024080Y003688D01*
X024228Y003540D01*
X024421Y003460D01*
X024629Y003460D01*
X024822Y003540D01*
X024970Y003688D01*
X025025Y003820D01*
X025080Y003688D01*
X025228Y003540D01*
X025421Y003460D01*
X025629Y003460D01*
X025822Y003540D01*
X025970Y003688D01*
X026025Y003820D01*
X026080Y003688D01*
X026228Y003540D01*
X026421Y003460D01*
X026629Y003460D01*
X026822Y003540D01*
X026970Y003688D01*
X027050Y003881D01*
X027050Y004170D01*
X027593Y003627D01*
X027743Y003565D01*
X030650Y003565D01*
X030895Y003320D01*
X031355Y003320D01*
X031667Y003633D01*
X031920Y003380D01*
X032125Y003380D01*
X032330Y003380D01*
X032562Y003612D01*
X032577Y003574D01*
X032693Y003459D01*
X033617Y002534D01*
X033560Y002397D01*
X033560Y002153D01*
X033654Y001927D01*
X033827Y001754D01*
X034053Y001660D01*
X034297Y001660D01*
X034523Y001754D01*
X034696Y001927D01*
X034790Y002153D01*
X034790Y002397D01*
X034696Y002623D01*
X034523Y002796D01*
X034488Y002811D01*
X034479Y002832D01*
X034364Y002947D01*
X033335Y003976D01*
X033335Y005057D01*
X033362Y005031D01*
X033533Y004960D01*
X033717Y004960D01*
X033888Y005031D01*
X034019Y005162D01*
X034090Y005333D01*
X034090Y005517D01*
X034026Y005671D01*
X034053Y005660D01*
X034297Y005660D01*
X034523Y005754D01*
X034696Y005927D01*
X034790Y006153D01*
X034790Y006397D01*
X034696Y006623D01*
X034523Y006796D01*
X034297Y006890D01*
X034053Y006890D01*
X033937Y006842D01*
X033936Y006950D01*
X033992Y006950D01*
X034300Y007258D01*
X034300Y007692D01*
X033992Y008000D01*
X033558Y008000D01*
X033250Y007692D01*
X033250Y007580D01*
X033234Y007564D01*
X033177Y007507D01*
X033177Y007506D01*
X033161Y007469D01*
X033074Y007556D01*
X033019Y007688D01*
X032888Y007819D01*
X032717Y007890D01*
X032620Y007890D01*
X032620Y008080D01*
X032330Y008370D01*
X032125Y008370D01*
X032125Y007875D01*
X033150Y008100D01*
X033531Y008100D01*
X034206Y007925D01*
X035490Y007925D01*
X036065Y008500D01*
X036065Y008845D01*
X035731Y009179D01*
X035731Y011071D01*
X036065Y011405D01*
X036590Y011405D01*
X036590Y011746D01*
X036577Y011828D01*
X036552Y011907D01*
X036514Y011980D01*
X036465Y012047D01*
X036407Y012105D01*
X036340Y012154D01*
X036267Y012192D01*
X036188Y012217D01*
X036106Y012230D01*
X036065Y012230D01*
X036065Y011405D01*
X036065Y011405D01*
X036065Y011405D01*
X036590Y011405D01*
X036590Y011129D01*
X036651Y011164D01*
X036935Y011240D01*
X037228Y011240D01*
X037512Y011164D01*
X037766Y011017D01*
X037973Y010810D01*
X038120Y010555D01*
X038196Y010272D01*
X038196Y009978D01*
X038120Y009695D01*
X037973Y009440D01*
X037935Y009402D01*
X037935Y007950D01*
X037990Y007817D01*
X037990Y007633D01*
X037919Y007462D01*
X037898Y007440D01*
X037925Y007440D01*
X037925Y006975D01*
X038006Y006975D01*
X039431Y008400D01*
X039431Y010113D01*
X039444Y010125D01*
X039318Y010246D02*
X038196Y010246D01*
X038137Y010494D02*
X038455Y010494D01*
X038587Y010743D02*
X038012Y010743D01*
X038096Y010939D02*
X038389Y010939D01*
X038673Y011015D01*
X038927Y011162D01*
X039135Y011370D01*
X039282Y011624D01*
X039358Y011907D01*
X039349Y012234D02*
X040276Y012234D01*
X040276Y012482D02*
X039282Y012482D01*
X039139Y012731D02*
X040276Y012731D01*
X037498Y012886D02*
X037351Y012739D01*
X037204Y012484D01*
X037128Y012201D01*
X037128Y011907D01*
X037204Y011624D01*
X037351Y011370D01*
X037558Y011162D01*
X037812Y011015D01*
X038096Y010939D01*
X037901Y010991D02*
X037792Y010991D01*
X037480Y011240D02*
X037228Y011240D01*
X037282Y011488D02*
X036590Y011488D01*
X036590Y011240D02*
X036934Y011240D01*
X036065Y011405D02*
X036065Y012230D01*
X036024Y012230D01*
X035942Y012217D01*
X035863Y012192D01*
X035790Y012154D01*
X035723Y012105D01*
X035665Y012047D01*
X035616Y011980D01*
X035578Y011907D01*
X035553Y011828D01*
X035540Y011746D01*
X035540Y011405D01*
X036065Y011405D01*
X036065Y011405D01*
X035540Y011405D01*
X035540Y011064D01*
X035553Y010982D01*
X035578Y010903D01*
X035616Y010830D01*
X035665Y010763D01*
X035723Y010705D01*
X035790Y010656D01*
X035863Y010618D01*
X035942Y010593D01*
X036024Y010580D01*
X036057Y010580D01*
X036042Y010555D01*
X035966Y010272D01*
X035966Y009978D01*
X036042Y009695D01*
X036057Y009670D01*
X036024Y009670D01*
X035942Y009657D01*
X035863Y009632D01*
X035790Y009594D01*
X035723Y009545D01*
X035665Y009487D01*
X035616Y009420D01*
X035578Y009347D01*
X035553Y009268D01*
X035540Y009186D01*
X035540Y008845D01*
X036065Y008845D01*
X036590Y008845D01*
X036590Y009121D01*
X036651Y009086D01*
X036935Y009010D01*
X037115Y009010D01*
X037115Y007950D01*
X037094Y007899D01*
X036992Y008000D01*
X036558Y008000D01*
X036250Y007692D01*
X036250Y007258D01*
X036558Y006950D01*
X036992Y006950D01*
X037300Y007258D01*
X037300Y007315D01*
X037433Y007260D01*
X037552Y007260D01*
X037460Y007168D01*
X037460Y006975D01*
X037925Y006975D01*
X036925Y005975D01*
X036175Y005975D01*
X036175Y006005D01*
X036065Y006115D01*
X035925Y005975D01*
X036206Y005975D01*
X036231Y006000D01*
X035931Y006000D01*
X035925Y006021D02*
X035925Y006021D01*
X035925Y005975D02*
X035925Y006515D01*
X035925Y005975D01*
X035925Y005975D01*
X036465Y005975D01*
X036465Y006199D01*
X036149Y006515D01*
X035925Y006515D01*
X035701Y006515D01*
X035385Y006199D01*
X035385Y005975D01*
X035925Y005975D01*
X035925Y005975D01*
X035925Y005975D01*
X036465Y005975D01*
X036465Y005751D01*
X036217Y005503D01*
X036265Y005484D01*
X036434Y005315D01*
X036525Y005094D01*
X036525Y004856D01*
X036434Y004635D01*
X036265Y004466D01*
X036044Y004375D01*
X035806Y004375D01*
X035585Y004466D01*
X035416Y004635D01*
X035325Y004856D01*
X035325Y005094D01*
X035416Y005315D01*
X035585Y005484D01*
X035633Y005503D01*
X035385Y005751D01*
X035385Y005975D01*
X035925Y005975D01*
X036065Y006115D02*
X036065Y008500D01*
X036065Y008506D02*
X036065Y008506D01*
X036065Y008258D02*
X036065Y008258D01*
X036267Y008058D02*
X036340Y008096D01*
X036407Y008145D01*
X036465Y008203D01*
X036514Y008270D01*
X036552Y008343D01*
X036577Y008422D01*
X036590Y008504D01*
X036590Y008845D01*
X036065Y008845D01*
X036065Y008845D01*
X036065Y008020D01*
X036106Y008020D01*
X036188Y008033D01*
X036267Y008058D01*
X036065Y008020D02*
X036065Y008845D01*
X036065Y008845D01*
X036065Y008845D01*
X035540Y008845D01*
X035540Y008504D01*
X035553Y008422D01*
X035578Y008343D01*
X035616Y008270D01*
X035665Y008203D01*
X035723Y008145D01*
X035790Y008096D01*
X035863Y008058D01*
X035942Y008033D01*
X036024Y008020D01*
X036065Y008020D01*
X036318Y007761D02*
X034232Y007761D01*
X034169Y007960D02*
X034401Y007960D01*
X034616Y008049D01*
X034781Y008214D01*
X034870Y008429D01*
X034870Y009261D01*
X034781Y009476D01*
X034695Y009562D01*
X034695Y010688D01*
X034781Y010774D01*
X034870Y010989D01*
X034870Y011821D01*
X034781Y012036D01*
X034616Y012201D01*
X034401Y012290D01*
X034169Y012290D01*
X034148Y012282D01*
X033723Y012707D01*
X033607Y012823D01*
X033457Y012885D01*
X029493Y012885D01*
X029343Y012823D01*
X029110Y012590D01*
X029110Y012641D01*
X029021Y012856D01*
X028991Y012886D01*
X037498Y012886D01*
X037346Y012731D02*
X033699Y012731D01*
X033948Y012482D02*
X037203Y012482D01*
X037137Y012234D02*
X034537Y012234D01*
X034802Y011985D02*
X035620Y011985D01*
X036065Y011985D02*
X036065Y011985D01*
X036510Y011985D02*
X037128Y011985D01*
X037173Y011737D02*
X036590Y011737D01*
X036065Y011737D02*
X036065Y011737D01*
X036065Y011488D02*
X036065Y011488D01*
X035540Y011488D02*
X034870Y011488D01*
X034870Y011240D02*
X035540Y011240D01*
X035551Y010991D02*
X034870Y010991D01*
X034750Y010743D02*
X035685Y010743D01*
X036026Y010494D02*
X034695Y010494D01*
X034695Y010246D02*
X035966Y010246D01*
X035966Y009997D02*
X034695Y009997D01*
X033875Y009997D02*
X030677Y009997D01*
X030429Y009749D02*
X033875Y009749D01*
X033875Y009562D02*
X033789Y009476D01*
X033700Y009261D01*
X033700Y008429D01*
X033789Y008214D01*
X033954Y008049D01*
X034169Y007960D01*
X034050Y008009D02*
X032620Y008009D01*
X032442Y008258D02*
X033771Y008258D01*
X033700Y008506D02*
X028399Y008506D01*
X028342Y008450D02*
X028650Y008758D01*
X028650Y009115D01*
X028660Y009115D01*
X028660Y008975D01*
X029125Y008975D01*
X029275Y008875D01*
X031175Y008875D01*
X032075Y007975D01*
X032125Y007875D01*
X032125Y007875D01*
X032125Y008370D01*
X031920Y008370D01*
X031667Y008117D01*
X031355Y008430D01*
X030895Y008430D01*
X030570Y008105D01*
X030570Y007645D01*
X030830Y007385D01*
X029795Y007385D01*
X029373Y007807D01*
X029257Y007923D01*
X029107Y007985D01*
X027028Y007985D01*
X027138Y008031D01*
X027269Y008162D01*
X027340Y008333D01*
X027340Y008515D01*
X027843Y008515D01*
X027908Y008450D01*
X028342Y008450D01*
X028660Y008782D02*
X028932Y008510D01*
X029125Y008510D01*
X029318Y008510D01*
X029590Y008782D01*
X029590Y008975D01*
X029590Y009115D01*
X029707Y009115D01*
X029857Y009177D01*
X029973Y009293D01*
X030945Y010265D01*
X031038Y010265D01*
X031048Y010263D01*
X031069Y010243D01*
X031336Y010132D01*
X031626Y010132D01*
X031893Y010243D01*
X032098Y010448D01*
X032209Y010715D01*
X032209Y011891D01*
X032137Y012065D01*
X032398Y012065D01*
X032324Y011887D01*
X032324Y010711D01*
X032435Y010444D01*
X032639Y010239D01*
X032907Y010128D01*
X033197Y010128D01*
X033464Y010239D01*
X033669Y010444D01*
X033780Y010711D01*
X033780Y010796D01*
X033789Y010774D01*
X033875Y010688D01*
X033875Y009562D01*
X033813Y009500D02*
X030180Y009500D01*
X029973Y009293D02*
X029973Y009293D01*
X029932Y009252D02*
X033700Y009252D01*
X033700Y009003D02*
X029590Y009003D01*
X029590Y008975D02*
X029125Y008975D01*
X029125Y008975D01*
X029590Y008975D01*
X029562Y008755D02*
X033700Y008755D01*
X034285Y008845D02*
X034285Y011405D01*
X034225Y011765D01*
X034125Y011725D01*
X033375Y012475D01*
X029575Y012475D01*
X029125Y012025D01*
X029125Y011675D01*
X028525Y011075D01*
X007125Y011075D01*
X006775Y010725D01*
X006225Y010575D01*
X005775Y010325D01*
X005125Y009675D01*
X005125Y008175D01*
X005025Y007925D01*
X005275Y007825D01*
X005825Y007275D01*
X012575Y007275D01*
X015275Y004575D01*
X015525Y004225D01*
X016525Y004225D02*
X016775Y004575D01*
X018975Y006775D01*
X018975Y007175D01*
X017625Y008525D01*
X017625Y009375D01*
X026725Y009375D01*
X026875Y009525D01*
X029625Y009525D01*
X030775Y010675D01*
X031075Y010675D01*
X031481Y011303D01*
X032209Y011240D02*
X032324Y011240D01*
X032324Y011488D02*
X032209Y011488D01*
X032209Y011737D02*
X032324Y011737D01*
X032365Y011985D02*
X032170Y011985D01*
X029910Y011303D02*
X028982Y010375D01*
X028125Y010375D01*
X030926Y010246D02*
X031066Y010246D01*
X031896Y010246D02*
X032633Y010246D01*
X032414Y010494D02*
X032117Y010494D01*
X032209Y010743D02*
X032324Y010743D01*
X032324Y010991D02*
X032209Y010991D01*
X033780Y010743D02*
X033820Y010743D01*
X033875Y010494D02*
X033690Y010494D01*
X033875Y010246D02*
X033471Y010246D01*
X034695Y009749D02*
X036028Y009749D01*
X035678Y009500D02*
X034757Y009500D01*
X034870Y009252D02*
X035550Y009252D01*
X035540Y009003D02*
X034870Y009003D01*
X034870Y008755D02*
X035540Y008755D01*
X035540Y008506D02*
X034870Y008506D01*
X034799Y008258D02*
X035625Y008258D01*
X036505Y008258D02*
X037115Y008258D01*
X037115Y008506D02*
X036590Y008506D01*
X036590Y008755D02*
X037115Y008755D01*
X037115Y009003D02*
X036590Y009003D01*
X036065Y008755D02*
X036065Y008755D01*
X037935Y008755D02*
X040276Y008755D01*
X040276Y009003D02*
X037935Y009003D01*
X037935Y009252D02*
X038850Y009252D01*
X038592Y009500D02*
X038008Y009500D01*
X038135Y009749D02*
X038457Y009749D01*
X038396Y009997D02*
X038196Y009997D01*
X037525Y009681D02*
X037081Y010125D01*
X037525Y009681D02*
X037525Y007725D01*
X037990Y007761D02*
X040276Y007761D01*
X040276Y008009D02*
X037935Y008009D01*
X037935Y008258D02*
X040276Y008258D01*
X040276Y008506D02*
X037935Y008506D01*
X037115Y008009D02*
X034520Y008009D01*
X033318Y007761D02*
X032947Y007761D01*
X033118Y007512D02*
X033182Y007512D01*
X033177Y007507D02*
X033177Y007507D01*
X033525Y007275D02*
X033775Y007525D01*
X033775Y007475D01*
X033525Y007275D02*
X033531Y005500D01*
X033606Y005425D01*
X033625Y005425D01*
X034067Y005276D02*
X035400Y005276D01*
X035612Y005524D02*
X034087Y005524D01*
X034543Y005773D02*
X035385Y005773D01*
X035385Y006021D02*
X034736Y006021D01*
X034790Y006270D02*
X035456Y006270D01*
X035925Y006270D02*
X035925Y006270D01*
X036394Y006270D02*
X040276Y006270D01*
X040276Y006518D02*
X038126Y006518D01*
X038118Y006510D02*
X038390Y006782D01*
X038390Y006975D01*
X038390Y007168D01*
X038118Y007440D01*
X037925Y007440D01*
X037925Y006975D01*
X037925Y006975D01*
X038390Y006975D01*
X037925Y006975D01*
X037925Y006975D01*
X037925Y006510D01*
X038118Y006510D01*
X037925Y006510D02*
X037925Y006975D01*
X037925Y006975D01*
X037925Y006975D01*
X037460Y006975D01*
X037460Y006782D01*
X037732Y006510D01*
X037925Y006510D01*
X037925Y006518D02*
X037925Y006518D01*
X037724Y006518D02*
X034740Y006518D01*
X034553Y006767D02*
X037476Y006767D01*
X037925Y006767D02*
X037925Y006767D01*
X038374Y006767D02*
X040276Y006767D01*
X040276Y007015D02*
X038390Y007015D01*
X037925Y007015D02*
X037925Y007015D01*
X037460Y007015D02*
X037058Y007015D01*
X036492Y007015D02*
X034058Y007015D01*
X034300Y007264D02*
X036250Y007264D01*
X036250Y007512D02*
X034300Y007512D01*
X032925Y007125D02*
X032625Y007425D01*
X032925Y007125D02*
X032925Y003806D01*
X034131Y002600D01*
X034131Y002419D01*
X034175Y002275D01*
X033560Y002294D02*
X029590Y002294D01*
X029590Y002282D02*
X029590Y002475D01*
X029590Y002668D01*
X029318Y002940D01*
X029125Y002940D01*
X029125Y002475D01*
X031206Y002475D01*
X032131Y003400D01*
X032131Y003869D01*
X032125Y003875D01*
X032125Y003380D01*
X032125Y003875D01*
X032125Y003875D01*
X032125Y003785D02*
X032125Y003785D01*
X032125Y003536D02*
X032125Y003536D01*
X032131Y003400D02*
X033831Y001600D01*
X034531Y001600D01*
X034931Y002000D01*
X034931Y003000D01*
X035406Y003475D01*
X035925Y003475D01*
X037575Y003475D01*
X037925Y004025D01*
X036175Y005975D01*
X036465Y006021D02*
X040276Y006021D01*
X040276Y005773D02*
X039905Y005773D01*
X039932Y005762D02*
X039827Y005805D01*
X039123Y005805D01*
X039018Y005762D01*
X038938Y005682D01*
X038919Y005635D01*
X038093Y005635D01*
X037943Y005573D01*
X037870Y005500D01*
X037708Y005500D01*
X037400Y005192D01*
X037400Y004758D01*
X037700Y004458D01*
X037460Y004218D01*
X037460Y004025D01*
X037925Y004025D01*
X039275Y004025D01*
X039475Y004225D01*
X039995Y004225D01*
X039995Y004266D01*
X039982Y004347D01*
X039957Y004425D01*
X039920Y004498D01*
X039872Y004564D01*
X039814Y004622D01*
X039782Y004645D01*
X039827Y004645D01*
X039932Y004688D01*
X040012Y004768D01*
X040055Y004873D01*
X040055Y005577D01*
X040012Y005682D01*
X039932Y005762D01*
X040055Y005524D02*
X040276Y005524D01*
X040276Y005276D02*
X040055Y005276D01*
X039475Y005225D02*
X038175Y005225D01*
X037925Y004975D01*
X037400Y005027D02*
X036525Y005027D01*
X036493Y004779D02*
X037400Y004779D01*
X037627Y004530D02*
X036329Y004530D01*
X035521Y004530D02*
X033335Y004530D01*
X033335Y004282D02*
X037524Y004282D01*
X037460Y004033D02*
X033335Y004033D01*
X033526Y003785D02*
X035471Y003785D01*
X035385Y003699D02*
X035385Y003475D01*
X035925Y003475D01*
X035925Y003475D01*
X035925Y004015D01*
X036149Y004015D01*
X036465Y003699D01*
X036465Y003475D01*
X035925Y003475D01*
X035925Y003475D01*
X035925Y003475D01*
X035925Y004015D01*
X035701Y004015D01*
X035385Y003699D01*
X035925Y003785D02*
X035925Y003785D01*
X036379Y003785D02*
X037508Y003785D01*
X037460Y003832D02*
X037732Y003560D01*
X037925Y003560D01*
X038118Y003560D01*
X038390Y003832D01*
X038390Y004025D01*
X038390Y004218D01*
X038150Y004458D01*
X038450Y004758D01*
X038450Y004815D01*
X038919Y004815D01*
X038938Y004768D01*
X039018Y004688D01*
X039123Y004645D01*
X039168Y004645D01*
X039136Y004622D01*
X039078Y004564D01*
X039030Y004498D01*
X038993Y004425D01*
X038968Y004347D01*
X038955Y004266D01*
X038955Y004225D01*
X038955Y004184D01*
X038968Y004103D01*
X038993Y004025D01*
X039030Y003952D01*
X039078Y003886D01*
X039136Y003828D01*
X039202Y003780D01*
X039245Y003758D01*
X039146Y003717D01*
X038983Y003554D01*
X038895Y003340D01*
X038895Y003110D01*
X038983Y002896D01*
X039146Y002733D01*
X039360Y002645D01*
X039590Y002645D01*
X039804Y002733D01*
X039967Y002896D01*
X040055Y003110D01*
X040055Y003340D01*
X039967Y003554D01*
X039804Y003717D01*
X039705Y003758D01*
X039748Y003780D01*
X039814Y003828D01*
X039872Y003886D01*
X039920Y003952D01*
X039957Y004025D01*
X039982Y004103D01*
X039995Y004184D01*
X039995Y004225D01*
X039475Y004225D01*
X039475Y004225D01*
X039475Y004225D01*
X038955Y004225D01*
X039475Y004225D01*
X039993Y004282D02*
X040276Y004282D01*
X040276Y004530D02*
X039896Y004530D01*
X040016Y004779D02*
X040276Y004779D01*
X040276Y005027D02*
X040055Y005027D01*
X038934Y004779D02*
X038450Y004779D01*
X038223Y004530D02*
X039054Y004530D01*
X038957Y004282D02*
X038326Y004282D01*
X038390Y004033D02*
X038990Y004033D01*
X038390Y004025D02*
X037925Y004025D01*
X037925Y004025D01*
X038390Y004025D01*
X037925Y004025D02*
X037925Y003560D01*
X037925Y004025D01*
X037925Y004025D01*
X037925Y004025D01*
X037460Y004025D01*
X037460Y003832D01*
X037925Y003785D02*
X037925Y003785D01*
X038342Y003785D02*
X039196Y003785D01*
X039754Y003785D02*
X040276Y003785D01*
X040276Y004033D02*
X039960Y004033D01*
X039974Y003536D02*
X040276Y003536D01*
X040276Y003288D02*
X040055Y003288D01*
X040026Y003039D02*
X040276Y003039D01*
X040276Y002791D02*
X039861Y002791D01*
X040276Y002542D02*
X038150Y002542D01*
X038399Y002294D02*
X040276Y002294D01*
X040276Y002045D02*
X038450Y002045D01*
X038439Y001797D02*
X040276Y001797D01*
X040276Y001548D02*
X038191Y001548D01*
X037659Y001548D02*
X026976Y001548D01*
X027105Y001797D02*
X033783Y001797D01*
X033604Y002045D02*
X029353Y002045D01*
X029318Y002010D02*
X029590Y002282D01*
X029590Y002475D02*
X029125Y002475D01*
X029075Y002575D01*
X028525Y003125D01*
X020225Y003125D01*
X019775Y002675D01*
X019525Y002225D01*
X018525Y002225D01*
X019525Y002225D01*
X019525Y002225D01*
X019000Y002225D01*
X018525Y002225D01*
X018525Y002225D01*
X019979Y002791D02*
X020002Y002791D01*
X020019Y003039D02*
X020238Y003039D01*
X020812Y003039D02*
X021238Y003039D01*
X021812Y003039D02*
X022238Y003039D01*
X022812Y003039D02*
X023238Y003039D01*
X023812Y003039D02*
X024238Y003039D01*
X024812Y003039D02*
X025238Y003039D01*
X025812Y003039D02*
X026238Y003039D01*
X026812Y003039D02*
X033112Y003039D01*
X033360Y002791D02*
X029467Y002791D01*
X029125Y002791D02*
X029125Y002791D01*
X029125Y002940D02*
X028932Y002940D01*
X028660Y002668D01*
X028660Y002475D01*
X029125Y002475D01*
X029590Y002475D01*
X029590Y002542D02*
X033609Y002542D01*
X034529Y002791D02*
X035406Y002791D01*
X035416Y002815D02*
X035325Y002594D01*
X035325Y002356D01*
X035416Y002135D01*
X035585Y001966D01*
X035806Y001875D01*
X036044Y001875D01*
X036265Y001966D01*
X036434Y002135D01*
X036525Y002356D01*
X036525Y002594D01*
X036434Y002815D01*
X036265Y002984D01*
X036217Y003003D01*
X036465Y003251D01*
X036465Y003475D01*
X035925Y003475D01*
X035385Y003475D01*
X035385Y003251D01*
X035633Y003003D01*
X035585Y002984D01*
X035416Y002815D01*
X035325Y002542D02*
X034730Y002542D01*
X034790Y002294D02*
X035351Y002294D01*
X035506Y002045D02*
X034746Y002045D01*
X034567Y001797D02*
X037411Y001797D01*
X037400Y002045D02*
X036344Y002045D01*
X036499Y002294D02*
X037451Y002294D01*
X037700Y002542D02*
X036525Y002542D01*
X036444Y002791D02*
X039089Y002791D01*
X038924Y003039D02*
X036253Y003039D01*
X035597Y003039D02*
X034272Y003039D01*
X034023Y003288D02*
X035385Y003288D01*
X035385Y003536D02*
X033775Y003536D01*
X032863Y003288D02*
X020268Y003288D01*
X019775Y003375D02*
X020275Y003875D01*
X020525Y004225D01*
X019675Y004675D02*
X019525Y004225D01*
X019675Y004675D02*
X023925Y008925D01*
X027975Y008925D01*
X028125Y008975D01*
X028650Y009003D02*
X028660Y009003D01*
X028660Y008975D02*
X028660Y008782D01*
X028647Y008755D02*
X028688Y008755D01*
X029125Y008755D02*
X029125Y008755D01*
X029125Y008975D02*
X029125Y008510D01*
X029125Y008975D01*
X029125Y008975D01*
X029125Y008975D01*
X028660Y008975D01*
X027851Y008506D02*
X027340Y008506D01*
X027309Y008258D02*
X030723Y008258D01*
X030570Y008009D02*
X027087Y008009D01*
X026875Y008425D02*
X024525Y008425D01*
X023225Y007125D01*
X022825Y007125D01*
X021932Y007512D02*
X019218Y007512D01*
X019207Y007523D02*
X018035Y008695D01*
X018035Y008965D01*
X023385Y008965D01*
X019432Y005012D01*
X019419Y005005D01*
X019397Y004980D01*
X019228Y004910D01*
X019080Y004762D01*
X019025Y004630D01*
X018970Y004762D01*
X018822Y004910D01*
X018629Y004990D01*
X018421Y004990D01*
X018228Y004910D01*
X018080Y004762D01*
X018000Y004569D01*
X018000Y003881D01*
X018040Y003785D01*
X017945Y003785D01*
X017956Y003807D01*
X017979Y003876D01*
X017990Y003948D01*
X017990Y004225D01*
X017990Y004502D01*
X017979Y004574D01*
X017956Y004643D01*
X017923Y004709D01*
X017880Y004768D01*
X017828Y004820D01*
X017769Y004863D01*
X017703Y004896D01*
X017683Y004903D01*
X019323Y006543D01*
X019385Y006693D01*
X019385Y007257D01*
X019323Y007407D01*
X019207Y007523D01*
X019382Y007264D02*
X021684Y007264D01*
X021435Y007015D02*
X019385Y007015D01*
X019385Y006767D02*
X021187Y006767D01*
X020938Y006518D02*
X019298Y006518D01*
X019050Y006270D02*
X020690Y006270D01*
X020441Y006021D02*
X018801Y006021D01*
X018553Y005773D02*
X020193Y005773D01*
X019944Y005524D02*
X018304Y005524D01*
X018056Y005276D02*
X019696Y005276D01*
X019447Y005027D02*
X017807Y005027D01*
X017869Y004779D02*
X018096Y004779D01*
X018000Y004530D02*
X017985Y004530D01*
X017990Y004282D02*
X018000Y004282D01*
X017990Y004225D02*
X017525Y004225D01*
X017525Y004225D01*
X017990Y004225D01*
X017990Y004033D02*
X018000Y004033D01*
X017525Y004225D02*
X017060Y004225D01*
X017525Y004225D01*
X017525Y004225D01*
X017060Y004225D02*
X017060Y004269D01*
X017050Y004255D01*
X017050Y003881D01*
X017010Y003785D01*
X017105Y003785D01*
X017094Y003807D01*
X017071Y003876D01*
X017060Y003948D01*
X017060Y004225D01*
X017050Y004033D02*
X017060Y004033D01*
X018954Y004779D02*
X019096Y004779D01*
X021525Y004225D02*
X021675Y004675D01*
X021675Y005675D01*
X024725Y007075D02*
X027825Y003975D01*
X031075Y003975D01*
X031125Y003875D01*
X031571Y003536D02*
X031764Y003536D01*
X032486Y003536D02*
X032615Y003536D01*
X030679Y003536D02*
X026814Y003536D01*
X026236Y003536D02*
X025814Y003536D01*
X026010Y003785D02*
X026040Y003785D01*
X025236Y003536D02*
X024814Y003536D01*
X024236Y003536D02*
X023814Y003536D01*
X023236Y003536D02*
X022814Y003536D01*
X023010Y003785D02*
X023040Y003785D01*
X022236Y003536D02*
X021814Y003536D01*
X021236Y003536D02*
X020814Y003536D01*
X021010Y003785D02*
X021040Y003785D01*
X022010Y003785D02*
X022040Y003785D01*
X024010Y003785D02*
X024040Y003785D01*
X025010Y003785D02*
X025040Y003785D01*
X027010Y003785D02*
X027435Y003785D01*
X027187Y004033D02*
X027050Y004033D01*
X027908Y003000D02*
X027600Y002692D01*
X027600Y002258D01*
X027908Y001950D01*
X028342Y001950D01*
X028650Y002258D01*
X028650Y002692D01*
X028342Y003000D01*
X027908Y003000D01*
X027698Y002791D02*
X027048Y002791D01*
X027110Y002542D02*
X027600Y002542D01*
X027600Y002294D02*
X027110Y002294D01*
X027110Y002045D02*
X027812Y002045D01*
X028438Y002045D02*
X028897Y002045D01*
X028932Y002010D02*
X029125Y002010D01*
X029318Y002010D01*
X029125Y002010D02*
X029125Y002475D01*
X029125Y002475D01*
X029125Y002475D01*
X029125Y002475D01*
X029125Y002475D01*
X029125Y002940D01*
X028783Y002791D02*
X028552Y002791D01*
X028650Y002542D02*
X028660Y002542D01*
X028660Y002475D02*
X028660Y002282D01*
X028932Y002010D01*
X029125Y002010D02*
X029125Y002475D01*
X028660Y002475D01*
X028650Y002294D02*
X028660Y002294D01*
X029125Y002294D02*
X029125Y002294D01*
X029125Y002542D02*
X029125Y002542D01*
X029125Y002045D02*
X029125Y002045D01*
X035925Y003536D02*
X035925Y003536D01*
X036465Y003536D02*
X038976Y003536D01*
X038895Y003288D02*
X036465Y003288D01*
X035357Y004779D02*
X033335Y004779D01*
X033335Y005027D02*
X033370Y005027D01*
X033880Y005027D02*
X035325Y005027D01*
X036238Y005524D02*
X037894Y005524D01*
X037483Y005276D02*
X036450Y005276D01*
X036465Y005773D02*
X039045Y005773D01*
X038294Y007264D02*
X040276Y007264D01*
X040276Y007512D02*
X037940Y007512D01*
X037925Y007264D02*
X037925Y007264D01*
X037423Y007264D02*
X037300Y007264D01*
X032125Y008009D02*
X032125Y008009D01*
X032125Y008258D02*
X032125Y008258D01*
X031808Y008258D02*
X031527Y008258D01*
X030570Y007761D02*
X029419Y007761D01*
X029025Y007575D02*
X024375Y007575D01*
X022429Y008009D02*
X018721Y008009D01*
X018969Y007761D02*
X022181Y007761D01*
X022678Y008258D02*
X018472Y008258D01*
X018224Y008506D02*
X022926Y008506D01*
X023175Y008755D02*
X018035Y008755D01*
X017215Y008815D02*
X016574Y009456D01*
X016548Y009520D01*
X016562Y009520D01*
X016634Y009531D01*
X016703Y009554D01*
X016769Y009587D01*
X016828Y009630D01*
X016880Y009682D01*
X016923Y009741D01*
X016956Y009807D01*
X016979Y009876D01*
X016990Y009948D01*
X016990Y010225D01*
X016990Y010502D01*
X016979Y010574D01*
X016956Y010643D01*
X016945Y010665D01*
X017040Y010665D01*
X017000Y010569D01*
X017000Y009881D01*
X017080Y009688D01*
X017215Y009553D01*
X017215Y008815D01*
X017215Y009003D02*
X017027Y009003D01*
X017215Y009252D02*
X016778Y009252D01*
X016556Y009500D02*
X017215Y009500D01*
X017625Y009375D02*
X017625Y009725D01*
X017525Y010225D01*
X017000Y010246D02*
X016990Y010246D01*
X016990Y010225D02*
X016525Y010225D01*
X016525Y010225D01*
X016525Y010225D01*
X016060Y010225D01*
X016060Y010502D01*
X016071Y010574D01*
X016094Y010643D01*
X016105Y010665D01*
X016010Y010665D01*
X016050Y010569D01*
X016050Y009881D01*
X016008Y009780D01*
X016033Y009790D01*
X016102Y009790D01*
X016094Y009807D01*
X016071Y009876D01*
X016060Y009948D01*
X016060Y010225D01*
X016525Y010225D01*
X016990Y010225D01*
X016990Y010494D02*
X017000Y010494D01*
X016060Y010494D02*
X016050Y010494D01*
X016050Y010246D02*
X016060Y010246D01*
X016050Y009997D02*
X016060Y009997D01*
X016927Y009749D02*
X017055Y009749D01*
X017000Y009997D02*
X016990Y009997D01*
X016125Y009325D02*
X018475Y006975D01*
X017275Y007475D02*
X016975Y007775D01*
X009325Y007775D01*
X012025Y006825D02*
X014275Y004575D01*
X014525Y004225D01*
X013525Y004225D02*
X013275Y004575D01*
X012025Y005825D01*
X005275Y005825D01*
X005025Y005925D01*
X004075Y005075D02*
X003425Y005725D01*
X003425Y006175D01*
X003925Y006675D01*
X004025Y006925D01*
X003375Y006825D02*
X003375Y007175D01*
X002325Y008225D01*
X001875Y008475D01*
X002671Y008806D02*
X002760Y008591D01*
X002760Y008370D01*
X003607Y007523D01*
X003722Y007407D01*
X003783Y007467D01*
X003530Y007720D01*
X003530Y007925D01*
X004025Y007925D01*
X004025Y007925D01*
X004025Y008420D01*
X004230Y008420D01*
X004483Y008167D01*
X004715Y008400D01*
X004715Y009757D01*
X004777Y009907D01*
X005020Y010150D01*
X004858Y010150D01*
X004550Y010458D01*
X004550Y010892D01*
X004858Y011200D01*
X005292Y011200D01*
X005508Y010985D01*
X005594Y011071D01*
X005603Y011075D01*
X005594Y011079D01*
X005429Y011244D01*
X005340Y011459D01*
X005340Y011691D01*
X005429Y011906D01*
X005594Y012071D01*
X005809Y012160D01*
X006641Y012160D01*
X006856Y012071D01*
X006940Y011987D01*
X006940Y012641D01*
X007029Y012856D01*
X007059Y012886D01*
X001356Y012886D01*
X001356Y011018D01*
X001459Y011060D01*
X002291Y011060D01*
X002506Y010971D01*
X002567Y010910D01*
X002858Y011200D01*
X003292Y011200D01*
X003600Y010892D01*
X003600Y010458D01*
X003292Y010150D01*
X002858Y010150D01*
X002727Y010280D01*
X002671Y010144D01*
X002506Y009979D01*
X002497Y009975D01*
X002506Y009971D01*
X002671Y009806D01*
X002760Y009591D01*
X002760Y009359D01*
X002671Y009144D01*
X002506Y008979D01*
X002497Y008975D01*
X002506Y008971D01*
X002671Y008806D01*
X002692Y008755D02*
X004715Y008755D01*
X004715Y009003D02*
X002531Y009003D01*
X002716Y009252D02*
X004715Y009252D01*
X004715Y009500D02*
X002760Y009500D01*
X002695Y009749D02*
X004715Y009749D01*
X004867Y009997D02*
X002525Y009997D01*
X002713Y010246D02*
X002762Y010246D01*
X003388Y010246D02*
X004762Y010246D01*
X004550Y010494D02*
X003600Y010494D01*
X003600Y010743D02*
X004550Y010743D01*
X004649Y010991D02*
X003501Y010991D01*
X002649Y010991D02*
X002457Y010991D01*
X001356Y011240D02*
X005433Y011240D01*
X005340Y011488D02*
X001356Y011488D01*
X001356Y011737D02*
X005359Y011737D01*
X005508Y011985D02*
X001356Y011985D01*
X001356Y012234D02*
X006940Y012234D01*
X006940Y012482D02*
X001356Y012482D01*
X001356Y012731D02*
X006977Y012731D01*
X005514Y010991D02*
X005501Y010991D01*
X004715Y008506D02*
X002760Y008506D01*
X002872Y008258D02*
X003658Y008258D01*
X003530Y008130D02*
X003530Y007925D01*
X004025Y007925D01*
X004025Y007925D01*
X004025Y008420D01*
X003820Y008420D01*
X003530Y008130D01*
X003530Y008009D02*
X003121Y008009D01*
X003369Y007761D02*
X003530Y007761D01*
X003618Y007512D02*
X003738Y007512D01*
X002875Y006675D02*
X002325Y007225D01*
X001875Y007475D01*
X002875Y006675D02*
X002875Y005675D01*
X003975Y004575D01*
X006125Y004575D01*
X006825Y003875D02*
X004075Y003875D01*
X003475Y004475D01*
X003375Y004475D01*
X002952Y004282D02*
X002226Y004282D01*
X002118Y004390D02*
X001925Y004390D01*
X001925Y003925D01*
X002025Y003675D01*
X002825Y002875D01*
X002825Y002425D01*
X002925Y002175D01*
X003175Y002275D01*
X003625Y002725D01*
X004175Y002725D01*
X004625Y002275D01*
X005275Y002275D01*
X005525Y002175D01*
X005990Y002175D01*
X005990Y002368D01*
X005718Y002640D01*
X005525Y002640D01*
X005525Y002175D01*
X005525Y002175D01*
X005525Y002175D01*
X005990Y002175D01*
X005990Y001982D01*
X005718Y001710D01*
X005525Y001710D01*
X005525Y002175D01*
X005525Y002175D01*
X005525Y002175D01*
X005060Y002175D01*
X005060Y002368D01*
X005332Y002640D01*
X005525Y002640D01*
X005525Y002175D01*
X005525Y001710D01*
X005332Y001710D01*
X005060Y001982D01*
X005060Y002175D01*
X005525Y002175D01*
X005525Y002294D02*
X005525Y002294D01*
X005525Y002542D02*
X005525Y002542D01*
X005815Y002542D02*
X006150Y002542D01*
X006000Y002392D02*
X006000Y001958D01*
X006308Y001650D01*
X006742Y001650D01*
X006940Y001848D01*
X006940Y001809D01*
X007029Y001594D01*
X007098Y001525D01*
X002267Y001525D01*
X002450Y001708D01*
X002450Y002142D01*
X002142Y002450D01*
X001708Y002450D01*
X001400Y002142D01*
X001400Y001708D01*
X001583Y001525D01*
X001356Y001525D01*
X001356Y004997D01*
X001373Y004988D01*
X001452Y004963D01*
X001534Y004950D01*
X001875Y004950D01*
X002216Y004950D01*
X002298Y004963D01*
X002377Y004988D01*
X002450Y005026D01*
X002517Y005075D01*
X002575Y005133D01*
X002624Y005200D01*
X002662Y005273D01*
X002670Y005300D01*
X003106Y004864D01*
X002981Y004738D01*
X002910Y004567D01*
X002910Y004383D01*
X002981Y004212D01*
X003112Y004081D01*
X003283Y004010D01*
X003360Y004010D01*
X003727Y003643D01*
X003739Y003631D01*
X003675Y003567D01*
X003392Y003850D01*
X002958Y003850D01*
X002650Y003542D01*
X002650Y003108D01*
X002958Y002800D01*
X003392Y002800D01*
X003675Y003083D01*
X003958Y002800D01*
X004392Y002800D01*
X004700Y003108D01*
X004700Y003465D01*
X004800Y003465D01*
X004800Y003108D01*
X005108Y002800D01*
X005542Y002800D01*
X005825Y003083D01*
X006108Y002800D01*
X006542Y002800D01*
X006850Y003108D01*
X006850Y003270D01*
X006977Y003143D01*
X007093Y003027D01*
X007169Y002996D01*
X007029Y002856D01*
X006940Y002641D01*
X006940Y002502D01*
X006742Y002700D01*
X006308Y002700D01*
X006000Y002392D01*
X005990Y002294D02*
X006000Y002294D01*
X005990Y002045D02*
X006000Y002045D01*
X006161Y001797D02*
X005804Y001797D01*
X005525Y001797D02*
X005525Y001797D01*
X005246Y001797D02*
X004289Y001797D01*
X004142Y001650D02*
X004450Y001958D01*
X004450Y002392D01*
X004142Y002700D01*
X003708Y002700D01*
X003400Y002392D01*
X003400Y001958D01*
X003708Y001650D01*
X004142Y001650D01*
X003561Y001797D02*
X003204Y001797D01*
X003118Y001710D02*
X003390Y001982D01*
X003390Y002175D01*
X003390Y002368D01*
X003118Y002640D01*
X002925Y002640D01*
X002925Y002175D01*
X003390Y002175D01*
X002925Y002175D01*
X002925Y002175D01*
X002925Y002175D01*
X002925Y001710D01*
X003118Y001710D01*
X002925Y001710D02*
X002925Y002175D01*
X002925Y002175D01*
X002925Y002175D01*
X002460Y002175D01*
X002460Y002368D01*
X002732Y002640D01*
X002925Y002640D01*
X002925Y002175D01*
X002460Y002175D01*
X002460Y001982D01*
X002732Y001710D01*
X002925Y001710D01*
X002925Y001797D02*
X002925Y001797D01*
X002646Y001797D02*
X002450Y001797D01*
X002450Y002045D02*
X002460Y002045D01*
X002925Y002045D02*
X002925Y002045D01*
X003390Y002045D02*
X003400Y002045D01*
X003390Y002294D02*
X003400Y002294D01*
X003550Y002542D02*
X003215Y002542D01*
X002925Y002542D02*
X002925Y002542D01*
X002925Y002294D02*
X002925Y002294D01*
X002635Y002542D02*
X001356Y002542D01*
X001356Y002294D02*
X001551Y002294D01*
X001400Y002045D02*
X001356Y002045D01*
X001356Y001797D02*
X001400Y001797D01*
X001356Y001548D02*
X001559Y001548D01*
X002291Y001548D02*
X007074Y001548D01*
X006945Y001797D02*
X006889Y001797D01*
X005525Y002045D02*
X005525Y002045D01*
X005060Y002045D02*
X004450Y002045D01*
X004450Y002294D02*
X005060Y002294D01*
X005235Y002542D02*
X004300Y002542D01*
X004632Y003039D02*
X004868Y003039D01*
X004800Y003288D02*
X004700Y003288D01*
X003718Y003039D02*
X003632Y003039D01*
X002718Y003039D02*
X001356Y003039D01*
X001356Y002791D02*
X007002Y002791D01*
X006940Y002542D02*
X006900Y002542D01*
X006782Y003039D02*
X007081Y003039D01*
X007325Y003375D02*
X019775Y003375D01*
X012525Y004225D02*
X012275Y004575D01*
X011775Y005075D01*
X004075Y005075D01*
X003021Y004779D02*
X001356Y004779D01*
X001875Y004950D02*
X001875Y005475D01*
X001875Y006475D01*
X001875Y006000D01*
X001875Y005475D01*
X001925Y005225D01*
X001925Y003925D01*
X001925Y003925D01*
X002390Y003925D01*
X002390Y004118D01*
X002118Y004390D01*
X001925Y004390D02*
X001732Y004390D01*
X001460Y004118D01*
X001460Y003925D01*
X001925Y003925D01*
X001925Y003925D01*
X001925Y003925D01*
X001925Y004390D01*
X001925Y004282D02*
X001925Y004282D01*
X001624Y004282D02*
X001356Y004282D01*
X001356Y004530D02*
X002910Y004530D01*
X003226Y004033D02*
X002390Y004033D01*
X002390Y003925D02*
X001925Y003925D01*
X001925Y003460D01*
X002118Y003460D01*
X002390Y003732D01*
X002390Y003925D01*
X002390Y003785D02*
X002892Y003785D01*
X002650Y003536D02*
X002194Y003536D01*
X001925Y003536D02*
X001925Y003536D01*
X001925Y003460D02*
X001925Y003925D01*
X001925Y003925D01*
X001460Y003925D01*
X001460Y003732D01*
X001732Y003460D01*
X001925Y003460D01*
X001656Y003536D02*
X001356Y003536D01*
X001356Y003288D02*
X002650Y003288D01*
X001925Y003785D02*
X001925Y003785D01*
X001460Y003785D02*
X001356Y003785D01*
X001356Y004033D02*
X001460Y004033D01*
X001925Y004033D02*
X001925Y004033D01*
X003458Y003785D02*
X003585Y003785D01*
X005782Y003039D02*
X005868Y003039D01*
X006825Y003875D02*
X007325Y003375D01*
X002943Y005027D02*
X002452Y005027D01*
X001875Y005027D02*
X001875Y005027D01*
X001875Y004950D02*
X001875Y005475D01*
X001875Y005475D01*
X001875Y005475D01*
X001875Y006475D01*
X001875Y006475D01*
X001875Y006270D02*
X001875Y006270D01*
X001875Y006021D02*
X001875Y006021D01*
X001875Y005773D02*
X001875Y005773D01*
X001875Y005524D02*
X001875Y005524D01*
X001875Y005276D02*
X001875Y005276D01*
X002662Y005276D02*
X002694Y005276D01*
X005025Y006925D02*
X005275Y006825D01*
X012025Y006825D01*
X004573Y008258D02*
X004392Y008258D01*
X004025Y008258D02*
X004025Y008258D01*
X004025Y008009D02*
X004025Y008009D01*
X002460Y002294D02*
X002299Y002294D01*
X029025Y007575D02*
X029625Y006975D01*
X031075Y006975D01*
X031125Y006875D01*
X030703Y007512D02*
X029668Y007512D01*
X039319Y009252D02*
X039569Y009252D01*
X039569Y009500D02*
X039319Y009500D01*
X039319Y009749D02*
X039569Y009749D01*
X039569Y009997D02*
X039319Y009997D01*
X039319Y010494D02*
X039569Y010494D01*
X039569Y010743D02*
X039319Y010743D01*
X039319Y010991D02*
X039569Y010991D01*
X040048Y010991D02*
X040276Y010991D01*
X040276Y011240D02*
X039005Y011240D01*
X039203Y011488D02*
X040276Y011488D01*
X038839Y010991D02*
X038584Y010991D01*
X035540Y011737D02*
X034870Y011737D01*
X029251Y012731D02*
X029073Y012731D01*
X040037Y009252D02*
X040276Y009252D01*
D24*
X037525Y007725D03*
X032625Y007425D03*
X033625Y005425D03*
X026875Y008425D03*
X024375Y007575D03*
X022825Y007125D03*
X024725Y007075D03*
X021675Y005675D03*
X018475Y006975D03*
X017275Y007475D03*
X016125Y009325D03*
X009325Y007775D03*
X003375Y006825D03*
X006125Y004575D03*
X003375Y004475D03*
X028125Y010375D03*
M02*
