G75*
G70*
%OFA0B0*%
%FSLAX24Y24*%
%IPPOS*%
%LPD*%
%AMOC8*
5,1,8,0,0,1.08239X$1,22.5*
%
%ADD10C,0.0000*%
%ADD11R,0.0110X0.0005*%
%ADD12R,0.0210X0.0005*%
%ADD13R,0.0280X0.0005*%
%ADD14R,0.0325X0.0005*%
%ADD15R,0.0365X0.0005*%
%ADD16R,0.0410X0.0005*%
%ADD17R,0.0440X0.0005*%
%ADD18R,0.0470X0.0005*%
%ADD19R,0.0505X0.0005*%
%ADD20R,0.0530X0.0005*%
%ADD21R,0.0555X0.0005*%
%ADD22R,0.0580X0.0005*%
%ADD23R,0.0600X0.0005*%
%ADD24R,0.0625X0.0005*%
%ADD25R,0.0645X0.0005*%
%ADD26R,0.0665X0.0005*%
%ADD27R,0.0685X0.0005*%
%ADD28R,0.0705X0.0005*%
%ADD29R,0.0715X0.0005*%
%ADD30R,0.0735X0.0005*%
%ADD31R,0.0755X0.0005*%
%ADD32R,0.0090X0.0005*%
%ADD33R,0.0770X0.0005*%
%ADD34R,0.0190X0.0005*%
%ADD35R,0.0355X0.0005*%
%ADD36R,0.0360X0.0005*%
%ADD37R,0.0260X0.0005*%
%ADD38R,0.0315X0.0005*%
%ADD39R,0.0320X0.0005*%
%ADD40R,0.0295X0.0005*%
%ADD41R,0.0275X0.0005*%
%ADD42R,0.0400X0.0005*%
%ADD43R,0.0265X0.0005*%
%ADD44R,0.0435X0.0005*%
%ADD45R,0.0255X0.0005*%
%ADD46R,0.0465X0.0005*%
%ADD47R,0.0245X0.0005*%
%ADD48R,0.0495X0.0005*%
%ADD49R,0.0235X0.0005*%
%ADD50R,0.0525X0.0005*%
%ADD51R,0.0230X0.0005*%
%ADD52R,0.0240X0.0005*%
%ADD53R,0.0545X0.0005*%
%ADD54R,0.0820X0.0005*%
%ADD55R,0.0220X0.0005*%
%ADD56R,0.0025X0.0005*%
%ADD57R,0.0795X0.0005*%
%ADD58R,0.0215X0.0005*%
%ADD59R,0.0035X0.0005*%
%ADD60R,0.0040X0.0005*%
%ADD61R,0.0800X0.0005*%
%ADD62R,0.0205X0.0005*%
%ADD63R,0.0050X0.0005*%
%ADD64R,0.0805X0.0005*%
%ADD65R,0.0165X0.0005*%
%ADD66R,0.0055X0.0005*%
%ADD67R,0.0200X0.0005*%
%ADD68R,0.0060X0.0005*%
%ADD69R,0.0300X0.0005*%
%ADD70R,0.0195X0.0005*%
%ADD71R,0.0065X0.0005*%
%ADD72R,0.0345X0.0005*%
%ADD73R,0.0070X0.0005*%
%ADD74R,0.0385X0.0005*%
%ADD75R,0.0080X0.0005*%
%ADD76R,0.0425X0.0005*%
%ADD77R,0.0185X0.0005*%
%ADD78R,0.0085X0.0005*%
%ADD79R,0.0635X0.0005*%
%ADD80R,0.0810X0.0005*%
%ADD81R,0.0095X0.0005*%
%ADD82R,0.0335X0.0005*%
%ADD83R,0.0655X0.0005*%
%ADD84R,0.0105X0.0005*%
%ADD85R,0.0290X0.0005*%
%ADD86R,0.0660X0.0005*%
%ADD87R,0.0115X0.0005*%
%ADD88R,0.0285X0.0005*%
%ADD89R,0.0120X0.0005*%
%ADD90R,0.0270X0.0005*%
%ADD91R,0.0675X0.0005*%
%ADD92R,0.0130X0.0005*%
%ADD93R,0.0680X0.0005*%
%ADD94R,0.0135X0.0005*%
%ADD95R,0.0250X0.0005*%
%ADD96R,0.0140X0.0005*%
%ADD97R,0.0180X0.0005*%
%ADD98R,0.0695X0.0005*%
%ADD99R,0.0150X0.0005*%
%ADD100R,0.0160X0.0005*%
%ADD101R,0.0155X0.0005*%
%ADD102R,0.0145X0.0005*%
%ADD103R,0.0700X0.0005*%
%ADD104R,0.0225X0.0005*%
%ADD105R,0.0170X0.0005*%
%ADD106R,0.0100X0.0005*%
%ADD107R,0.0075X0.0005*%
%ADD108R,0.0720X0.0005*%
%ADD109R,0.0725X0.0005*%
%ADD110R,0.0340X0.0005*%
%ADD111R,0.0305X0.0005*%
%ADD112R,0.0175X0.0005*%
%ADD113R,0.0005X0.0005*%
%ADD114R,0.0010X0.0005*%
%ADD115R,0.0015X0.0005*%
%ADD116R,0.0020X0.0005*%
%ADD117R,0.0030X0.0005*%
%ADD118R,0.0125X0.0005*%
%ADD119R,0.0045X0.0005*%
%ADD120R,0.0370X0.0005*%
%ADD121R,0.0375X0.0005*%
%ADD122R,0.0350X0.0005*%
%ADD123R,0.0330X0.0005*%
%ADD124R,0.0485X0.0005*%
%ADD125R,0.0480X0.0005*%
%ADD126R,0.0460X0.0005*%
%ADD127R,0.0445X0.0005*%
%ADD128R,0.0310X0.0005*%
%ADD129R,0.0380X0.0005*%
%ADD130R,0.0415X0.0005*%
%ADD131R,0.0450X0.0005*%
%ADD132R,0.0490X0.0005*%
%ADD133R,0.0965X0.0005*%
%ADD134R,0.0975X0.0005*%
%ADD135R,0.0980X0.0005*%
%ADD136R,0.0990X0.0005*%
%ADD137R,0.1005X0.0005*%
%ADD138R,0.0615X0.0005*%
%ADD139R,0.0640X0.0005*%
%ADD140R,0.0605X0.0005*%
%ADD141R,0.0620X0.0005*%
%ADD142R,0.0590X0.0005*%
%ADD143R,0.0570X0.0005*%
%ADD144R,0.0540X0.0005*%
%ADD145R,0.0515X0.0005*%
%ADD146R,0.0565X0.0005*%
%ADD147R,0.0535X0.0005*%
%ADD148R,0.0395X0.0005*%
%ADD149R,0.0520X0.0005*%
%ADD150R,0.0500X0.0005*%
%ADD151R,0.0430X0.0005*%
%ADD152C,0.0060*%
D10*
X001131Y001300D02*
X001131Y013111D01*
X040501Y013111D01*
X040501Y001300D01*
X001131Y001300D01*
D11*
X007149Y006241D03*
X007044Y006516D03*
X007059Y006526D03*
X007064Y006531D03*
X007069Y006536D03*
X007084Y006546D03*
X007129Y006576D03*
X007144Y006586D03*
X007149Y006591D03*
X007164Y006601D03*
X007179Y006611D03*
X007184Y006616D03*
X007194Y006621D03*
X007199Y006626D03*
X007204Y006631D03*
X007214Y006636D03*
X007219Y006641D03*
X007229Y006646D03*
X007234Y006651D03*
X007249Y006661D03*
X007624Y006561D03*
X007654Y006756D03*
X007029Y006891D03*
X006909Y007046D03*
X006909Y007051D03*
X006904Y007056D03*
X006904Y007061D03*
X007434Y007201D03*
X007434Y007206D03*
X007594Y007226D03*
X007594Y007231D03*
X007279Y007766D03*
X007279Y007771D03*
D12*
X007149Y007966D03*
X007559Y008161D03*
X006244Y007696D03*
X005959Y007546D03*
X008499Y007656D03*
X008499Y007116D03*
X008494Y007111D03*
X008239Y006591D03*
X007509Y006411D03*
X007149Y006246D03*
X006044Y006516D03*
D13*
X006874Y006366D03*
X007149Y006251D03*
X006209Y007676D03*
X007559Y008156D03*
X008404Y007706D03*
D14*
X007557Y008151D03*
X007137Y007996D03*
X006177Y006456D03*
X007147Y006256D03*
D15*
X007147Y006261D03*
X006152Y007631D03*
D16*
X008244Y007761D03*
X007149Y006266D03*
D17*
X007149Y006271D03*
X008254Y007751D03*
D18*
X008264Y007736D03*
X007149Y006276D03*
D19*
X007147Y006281D03*
X007547Y008121D03*
D20*
X007149Y006286D03*
D21*
X007147Y006291D03*
X007522Y008101D03*
D22*
X007504Y008086D03*
X007149Y006296D03*
D23*
X007149Y006301D03*
X007494Y008076D03*
D24*
X007147Y006306D03*
D25*
X007147Y006311D03*
X007792Y006456D03*
D26*
X007822Y006471D03*
X007147Y006316D03*
D27*
X007147Y006321D03*
X007847Y006486D03*
D28*
X007877Y006506D03*
X007147Y006326D03*
D29*
X007147Y006331D03*
X007882Y006511D03*
X007887Y006516D03*
D30*
X007147Y006336D03*
D31*
X007147Y006341D03*
D32*
X006964Y006451D03*
X007619Y006566D03*
X007654Y006731D03*
X007029Y006866D03*
X006894Y007096D03*
X006889Y007106D03*
X006889Y007111D03*
X007434Y007226D03*
X007599Y007201D03*
X007274Y007796D03*
X006414Y006341D03*
D33*
X007149Y006346D03*
D34*
X006414Y006346D03*
X007229Y006676D03*
X008279Y006621D03*
X008284Y006626D03*
X008369Y007016D03*
X008529Y007141D03*
X008534Y007146D03*
X008534Y007626D03*
X008529Y007631D03*
X006389Y007931D03*
X006384Y007926D03*
X006379Y007921D03*
X006254Y007701D03*
X005919Y007516D03*
X005914Y007511D03*
X005909Y007506D03*
X005914Y007031D03*
X005919Y007026D03*
X005924Y007021D03*
X005929Y007016D03*
X005934Y007006D03*
X005939Y007001D03*
D35*
X006167Y007641D03*
X006412Y006361D03*
X007362Y006351D03*
D36*
X006934Y006351D03*
X006159Y007636D03*
X006109Y007606D03*
X007344Y008056D03*
X008224Y007781D03*
X008344Y007721D03*
D37*
X007144Y007981D03*
X006499Y008001D03*
X006219Y007681D03*
X008169Y006551D03*
X006414Y006351D03*
X006114Y006476D03*
D38*
X006902Y006356D03*
X007392Y006356D03*
X007312Y008051D03*
D39*
X008369Y007716D03*
X006189Y007661D03*
X006079Y007601D03*
X006414Y006356D03*
D40*
X006887Y006361D03*
X007407Y006361D03*
X006062Y007596D03*
X006202Y007671D03*
X008387Y007711D03*
D41*
X008192Y007806D03*
X007222Y006701D03*
X007677Y006531D03*
X007422Y006366D03*
X008152Y006546D03*
D42*
X006414Y006366D03*
X008239Y007766D03*
D43*
X008417Y007701D03*
X006032Y007586D03*
X007212Y006691D03*
X006677Y006466D03*
X006857Y006371D03*
X007437Y006371D03*
D44*
X006412Y006371D03*
D45*
X006847Y006376D03*
X007447Y006376D03*
X008177Y006556D03*
X007212Y006686D03*
X006022Y007581D03*
X008427Y007696D03*
D46*
X007572Y008136D03*
X006412Y006376D03*
D47*
X006837Y006381D03*
X007457Y006381D03*
X008187Y006561D03*
X008402Y007051D03*
X008407Y007056D03*
X008442Y007081D03*
X006012Y007576D03*
X006477Y007991D03*
D48*
X006412Y006381D03*
D49*
X006827Y006386D03*
X007467Y006386D03*
X007872Y006426D03*
X008207Y006571D03*
X008392Y007041D03*
X008397Y007046D03*
X008457Y007681D03*
X006467Y007986D03*
X005992Y007566D03*
D50*
X006412Y006386D03*
D51*
X006084Y006491D03*
X006074Y006496D03*
X007474Y006391D03*
X007484Y006396D03*
X008459Y007091D03*
X008469Y007096D03*
X008469Y007676D03*
X006459Y007981D03*
X006234Y007691D03*
X005984Y007561D03*
D52*
X005999Y007571D03*
X007144Y007976D03*
X008449Y007686D03*
X008449Y007086D03*
X008199Y006566D03*
X007209Y006706D03*
X006819Y006391D03*
X006684Y006471D03*
X006094Y006486D03*
D53*
X006412Y006391D03*
X007527Y008106D03*
D54*
X006534Y006396D03*
D55*
X006059Y006506D03*
X007494Y006401D03*
X008224Y006581D03*
X008484Y007666D03*
X006449Y007976D03*
X006444Y007971D03*
X005974Y007556D03*
D56*
X006842Y007266D03*
X006842Y007261D03*
X007442Y007291D03*
X007617Y007116D03*
X007617Y007111D03*
X007042Y006766D03*
X007042Y006761D03*
X007662Y006661D03*
X006937Y006401D03*
X007262Y007881D03*
X007262Y007886D03*
D57*
X006512Y006401D03*
X006502Y006406D03*
D58*
X006692Y006476D03*
X006052Y006511D03*
X007197Y006711D03*
X007502Y006406D03*
X008232Y006586D03*
X008382Y007031D03*
X008487Y007106D03*
X008492Y007661D03*
X006437Y007966D03*
X005967Y007551D03*
D59*
X006847Y007246D03*
X006847Y007241D03*
X006852Y007231D03*
X007442Y007281D03*
X007442Y007286D03*
X007617Y007126D03*
X007617Y006576D03*
X006942Y006406D03*
X007267Y007866D03*
D60*
X007264Y007861D03*
X007439Y007276D03*
X007614Y007136D03*
X007614Y007131D03*
X006854Y007221D03*
X006854Y007226D03*
X006849Y007236D03*
X007039Y006791D03*
X007039Y006786D03*
X007659Y006681D03*
X007659Y006676D03*
X006944Y006411D03*
X006714Y006521D03*
D61*
X006494Y006411D03*
X006474Y006421D03*
X006464Y006426D03*
D62*
X006037Y006521D03*
X006032Y006526D03*
X007517Y006416D03*
X007522Y006421D03*
X008247Y006596D03*
X008377Y007026D03*
X008507Y007121D03*
X008507Y007651D03*
X006427Y007961D03*
X006422Y007956D03*
X005952Y007541D03*
D63*
X006859Y007206D03*
X006859Y007201D03*
X007439Y007266D03*
X007609Y007151D03*
X007659Y006696D03*
X007659Y006691D03*
X007659Y006686D03*
X006944Y006416D03*
X007269Y007846D03*
D64*
X006442Y006441D03*
X006447Y006436D03*
X006457Y006431D03*
X006482Y006416D03*
X006432Y006446D03*
D65*
X006997Y006501D03*
X007872Y006421D03*
X008337Y006686D03*
X008342Y006691D03*
X008342Y006696D03*
X008347Y006701D03*
X008352Y006711D03*
X008362Y007006D03*
X008587Y007201D03*
X008592Y007211D03*
X008597Y007216D03*
X008602Y007221D03*
X008607Y007231D03*
X008607Y007541D03*
X008602Y007551D03*
X008597Y007556D03*
X008592Y007561D03*
X008587Y007571D03*
X006337Y007871D03*
X006332Y007866D03*
X006327Y007861D03*
X006327Y007856D03*
X006322Y007851D03*
X006267Y007706D03*
X005857Y007446D03*
X005852Y007441D03*
X005847Y007431D03*
X005842Y007116D03*
X005847Y007106D03*
X005852Y007101D03*
X005952Y006981D03*
X005952Y006976D03*
X005947Y006966D03*
X005947Y006961D03*
X005942Y006956D03*
X005937Y006946D03*
X005942Y006621D03*
X005947Y006616D03*
X005947Y006611D03*
X005952Y006606D03*
D66*
X006947Y006421D03*
X007037Y006806D03*
X007037Y006811D03*
X006867Y007181D03*
X006867Y007186D03*
X006862Y007191D03*
X006862Y007196D03*
X007437Y007261D03*
X007612Y007156D03*
X007727Y007851D03*
X007732Y007881D03*
X007737Y007911D03*
X007742Y007941D03*
X007747Y007966D03*
X007747Y007971D03*
X007752Y007996D03*
X007752Y008001D03*
X007757Y008026D03*
X007757Y008031D03*
X007777Y008151D03*
X007777Y008156D03*
X007267Y007841D03*
D67*
X007689Y008056D03*
X008159Y007821D03*
X008514Y007646D03*
X008519Y007641D03*
X008519Y007131D03*
X008514Y007126D03*
X008374Y007021D03*
X008259Y006606D03*
X008254Y006601D03*
X007649Y006541D03*
X007529Y006426D03*
X006694Y006481D03*
X006024Y006531D03*
X005939Y007531D03*
X005944Y007536D03*
X006414Y007951D03*
D68*
X007244Y007721D03*
X007239Y007701D03*
X007234Y007681D03*
X007234Y007676D03*
X007229Y007656D03*
X007224Y007636D03*
X007219Y007616D03*
X007214Y007591D03*
X007209Y007571D03*
X007204Y007551D03*
X007199Y007526D03*
X007194Y007506D03*
X007189Y007486D03*
X007184Y007461D03*
X007179Y007441D03*
X007174Y007421D03*
X007169Y007396D03*
X007164Y007376D03*
X007159Y007356D03*
X007154Y007331D03*
X007149Y007311D03*
X007144Y007291D03*
X007139Y007266D03*
X007134Y007246D03*
X007129Y007226D03*
X007124Y007201D03*
X007119Y007181D03*
X007114Y007161D03*
X007109Y007136D03*
X007104Y007116D03*
X007099Y007096D03*
X007094Y007071D03*
X007089Y007051D03*
X007084Y007031D03*
X007079Y007006D03*
X007074Y006991D03*
X007074Y006986D03*
X007069Y006976D03*
X007069Y006971D03*
X007069Y006966D03*
X007064Y006951D03*
X007064Y006946D03*
X007064Y006941D03*
X007059Y006931D03*
X007059Y006926D03*
X007034Y006821D03*
X007034Y006816D03*
X006909Y006816D03*
X006909Y006821D03*
X006909Y006826D03*
X006904Y006866D03*
X006904Y006871D03*
X006899Y006896D03*
X006899Y006901D03*
X006899Y006906D03*
X006899Y006911D03*
X006899Y006916D03*
X006894Y006926D03*
X006894Y006931D03*
X006894Y006936D03*
X006894Y006941D03*
X006894Y006946D03*
X006894Y006951D03*
X006894Y006956D03*
X006894Y006961D03*
X006889Y006971D03*
X006889Y006976D03*
X006889Y006981D03*
X006889Y006986D03*
X006889Y006991D03*
X006889Y006996D03*
X006869Y007171D03*
X006869Y007176D03*
X007439Y007256D03*
X007479Y007146D03*
X007489Y007121D03*
X007499Y007096D03*
X007509Y007071D03*
X007609Y007161D03*
X007629Y007276D03*
X007629Y007281D03*
X007629Y007286D03*
X007629Y007291D03*
X007629Y007296D03*
X007634Y007306D03*
X007634Y007311D03*
X007634Y007316D03*
X007634Y007321D03*
X007639Y007331D03*
X007639Y007336D03*
X007639Y007341D03*
X007639Y007346D03*
X007639Y007351D03*
X007644Y007361D03*
X007644Y007366D03*
X007644Y007371D03*
X007644Y007376D03*
X007644Y007381D03*
X007649Y007391D03*
X007649Y007396D03*
X007649Y007401D03*
X007649Y007406D03*
X007649Y007411D03*
X007654Y007421D03*
X007654Y007426D03*
X007654Y007431D03*
X007654Y007436D03*
X007659Y007446D03*
X007659Y007451D03*
X007659Y007456D03*
X007659Y007461D03*
X007659Y007466D03*
X007664Y007476D03*
X007664Y007481D03*
X007664Y007486D03*
X007664Y007491D03*
X007664Y007496D03*
X007669Y007506D03*
X007669Y007511D03*
X007669Y007516D03*
X007669Y007521D03*
X007669Y007526D03*
X007674Y007536D03*
X007674Y007541D03*
X007674Y007546D03*
X007674Y007551D03*
X007674Y007556D03*
X007679Y007566D03*
X007679Y007571D03*
X007679Y007576D03*
X007679Y007581D03*
X007684Y007591D03*
X007684Y007596D03*
X007684Y007601D03*
X007684Y007606D03*
X007684Y007611D03*
X007689Y007621D03*
X007689Y007626D03*
X007689Y007631D03*
X007689Y007636D03*
X007689Y007641D03*
X007694Y007651D03*
X007694Y007656D03*
X007694Y007661D03*
X007694Y007666D03*
X007694Y007671D03*
X007699Y007681D03*
X007699Y007686D03*
X007699Y007691D03*
X007699Y007696D03*
X007704Y007706D03*
X007704Y007711D03*
X007704Y007716D03*
X007704Y007721D03*
X007704Y007726D03*
X007709Y007736D03*
X007709Y007741D03*
X007709Y007746D03*
X007709Y007751D03*
X007709Y007756D03*
X007709Y007761D03*
X007714Y007766D03*
X007714Y007771D03*
X007714Y007776D03*
X007714Y007781D03*
X007714Y007786D03*
X007714Y007791D03*
X007719Y007796D03*
X007719Y007801D03*
X007719Y007806D03*
X007719Y007811D03*
X007719Y007816D03*
X007719Y007821D03*
X007724Y007826D03*
X007724Y007831D03*
X007724Y007836D03*
X007724Y007841D03*
X007724Y007846D03*
X007729Y007856D03*
X007729Y007861D03*
X007729Y007866D03*
X007729Y007871D03*
X007729Y007876D03*
X007734Y007886D03*
X007734Y007891D03*
X007734Y007896D03*
X007734Y007901D03*
X007734Y007906D03*
X007739Y007916D03*
X007739Y007921D03*
X007739Y007926D03*
X007739Y007931D03*
X007739Y007936D03*
X007744Y007946D03*
X007744Y007951D03*
X007744Y007956D03*
X007744Y007961D03*
X007749Y007976D03*
X007749Y007981D03*
X007749Y007986D03*
X007749Y007991D03*
X007754Y008006D03*
X007754Y008011D03*
X007754Y008016D03*
X007754Y008021D03*
X007779Y008161D03*
X007779Y008166D03*
X007269Y007836D03*
X007269Y007831D03*
X007984Y007536D03*
X007994Y007561D03*
X008004Y007586D03*
X008014Y007611D03*
X008024Y007636D03*
X008034Y007661D03*
X008039Y007676D03*
X008049Y007701D03*
X007959Y007471D03*
X007949Y007446D03*
X007939Y007421D03*
X007929Y007396D03*
X007894Y007306D03*
X007884Y007281D03*
X007874Y007256D03*
X007864Y007231D03*
X007839Y007166D03*
X007829Y007141D03*
X007819Y007116D03*
X007809Y007091D03*
X007784Y007026D03*
X007774Y007001D03*
X007764Y006976D03*
X007754Y006951D03*
X007729Y006886D03*
X007719Y006861D03*
X007709Y006836D03*
X007699Y006811D03*
X007659Y006706D03*
X007659Y006701D03*
X006934Y006611D03*
X006934Y006606D03*
X006934Y006601D03*
X006934Y006596D03*
X006934Y006591D03*
X006934Y006586D03*
X006934Y006581D03*
X006934Y006576D03*
X006934Y006571D03*
X006934Y006566D03*
X006939Y006561D03*
X006939Y006556D03*
X006939Y006551D03*
X006939Y006546D03*
X006939Y006541D03*
X006939Y006536D03*
X006939Y006531D03*
X006939Y006526D03*
X006939Y006521D03*
X006939Y006516D03*
X006944Y006511D03*
X006949Y006426D03*
X006929Y006616D03*
X006929Y006621D03*
X006929Y006626D03*
X006929Y006631D03*
X006929Y006636D03*
X006929Y006641D03*
X006929Y006646D03*
X006929Y006651D03*
X006929Y006656D03*
X006929Y006661D03*
X006924Y006666D03*
X006924Y006671D03*
X006924Y006676D03*
X006924Y006681D03*
X006924Y006686D03*
X006924Y006691D03*
X006924Y006696D03*
X006924Y006701D03*
X006924Y006706D03*
X006924Y006711D03*
X006919Y006716D03*
X006919Y006721D03*
X006919Y006726D03*
X006919Y006731D03*
X006919Y006736D03*
X006919Y006741D03*
X006919Y006746D03*
X006919Y006751D03*
X006919Y006756D03*
X006914Y006766D03*
X006914Y006771D03*
X006914Y006776D03*
X006914Y006781D03*
D69*
X006154Y006461D03*
X007874Y006431D03*
X007139Y007991D03*
X006794Y008121D03*
D70*
X006407Y007946D03*
X006402Y007941D03*
X006397Y007936D03*
X005932Y007526D03*
X005927Y007521D03*
X006007Y006546D03*
X006012Y006541D03*
X006017Y006536D03*
X007537Y006431D03*
X007542Y006436D03*
X007547Y006441D03*
X008267Y006611D03*
X008272Y006616D03*
X008527Y007136D03*
X008522Y007636D03*
D71*
X008057Y007716D03*
X008052Y007711D03*
X008052Y007706D03*
X008047Y007696D03*
X008047Y007691D03*
X008042Y007686D03*
X008042Y007681D03*
X008037Y007671D03*
X008037Y007666D03*
X008032Y007656D03*
X008032Y007651D03*
X008027Y007646D03*
X008027Y007641D03*
X008022Y007631D03*
X008022Y007626D03*
X008017Y007621D03*
X008017Y007616D03*
X008012Y007606D03*
X008012Y007601D03*
X008007Y007596D03*
X008007Y007591D03*
X008002Y007581D03*
X008002Y007576D03*
X007997Y007571D03*
X007997Y007566D03*
X007992Y007556D03*
X007992Y007551D03*
X007987Y007546D03*
X007987Y007541D03*
X007982Y007531D03*
X007982Y007526D03*
X007977Y007521D03*
X007977Y007516D03*
X007977Y007511D03*
X007972Y007506D03*
X007972Y007501D03*
X007967Y007496D03*
X007967Y007491D03*
X007967Y007486D03*
X007962Y007481D03*
X007962Y007476D03*
X007957Y007466D03*
X007957Y007461D03*
X007952Y007456D03*
X007952Y007451D03*
X007947Y007441D03*
X007947Y007436D03*
X007942Y007431D03*
X007942Y007426D03*
X007937Y007416D03*
X007937Y007411D03*
X007932Y007406D03*
X007932Y007401D03*
X007927Y007391D03*
X007927Y007386D03*
X007922Y007381D03*
X007922Y007376D03*
X007922Y007371D03*
X007917Y007366D03*
X007917Y007361D03*
X007912Y007356D03*
X007912Y007351D03*
X007912Y007346D03*
X007907Y007341D03*
X007907Y007336D03*
X007902Y007331D03*
X007902Y007326D03*
X007902Y007321D03*
X007897Y007316D03*
X007897Y007311D03*
X007892Y007301D03*
X007892Y007296D03*
X007887Y007291D03*
X007887Y007286D03*
X007882Y007276D03*
X007882Y007271D03*
X007877Y007266D03*
X007877Y007261D03*
X007872Y007251D03*
X007872Y007246D03*
X007867Y007241D03*
X007867Y007236D03*
X007862Y007226D03*
X007862Y007221D03*
X007857Y007216D03*
X007857Y007211D03*
X007857Y007206D03*
X007852Y007201D03*
X007852Y007196D03*
X007847Y007191D03*
X007847Y007186D03*
X007847Y007181D03*
X007842Y007176D03*
X007842Y007171D03*
X007837Y007161D03*
X007837Y007156D03*
X007832Y007151D03*
X007832Y007146D03*
X007827Y007136D03*
X007827Y007131D03*
X007822Y007126D03*
X007822Y007121D03*
X007817Y007111D03*
X007817Y007106D03*
X007812Y007101D03*
X007812Y007096D03*
X007807Y007086D03*
X007807Y007081D03*
X007802Y007076D03*
X007802Y007071D03*
X007802Y007066D03*
X007797Y007061D03*
X007797Y007056D03*
X007792Y007051D03*
X007792Y007046D03*
X007792Y007041D03*
X007787Y007036D03*
X007787Y007031D03*
X007782Y007021D03*
X007782Y007016D03*
X007777Y007011D03*
X007777Y007006D03*
X007772Y006996D03*
X007772Y006991D03*
X007767Y006986D03*
X007767Y006981D03*
X007762Y006971D03*
X007762Y006966D03*
X007757Y006961D03*
X007757Y006956D03*
X007752Y006946D03*
X007752Y006941D03*
X007747Y006936D03*
X007747Y006931D03*
X007747Y006926D03*
X007742Y006921D03*
X007742Y006916D03*
X007737Y006911D03*
X007737Y006906D03*
X007737Y006901D03*
X007732Y006896D03*
X007732Y006891D03*
X007727Y006881D03*
X007727Y006876D03*
X007722Y006871D03*
X007722Y006866D03*
X007717Y006856D03*
X007717Y006851D03*
X007712Y006846D03*
X007712Y006841D03*
X007707Y006831D03*
X007707Y006826D03*
X007702Y006821D03*
X007702Y006816D03*
X007697Y006806D03*
X007697Y006801D03*
X007692Y006796D03*
X007612Y006816D03*
X007602Y006841D03*
X007597Y006851D03*
X007592Y006866D03*
X007587Y006876D03*
X007582Y006886D03*
X007582Y006891D03*
X007577Y006901D03*
X007572Y006911D03*
X007572Y006916D03*
X007567Y006926D03*
X007562Y006936D03*
X007562Y006941D03*
X007557Y006951D03*
X007552Y006961D03*
X007547Y006971D03*
X007547Y006976D03*
X007542Y006986D03*
X007537Y006996D03*
X007537Y007001D03*
X007532Y007011D03*
X007527Y007021D03*
X007527Y007026D03*
X007527Y007031D03*
X007522Y007036D03*
X007522Y007041D03*
X007517Y007046D03*
X007517Y007051D03*
X007517Y007056D03*
X007512Y007061D03*
X007512Y007066D03*
X007507Y007076D03*
X007507Y007081D03*
X007502Y007086D03*
X007502Y007091D03*
X007497Y007101D03*
X007497Y007106D03*
X007492Y007111D03*
X007492Y007116D03*
X007487Y007126D03*
X007487Y007131D03*
X007482Y007136D03*
X007482Y007141D03*
X007477Y007151D03*
X007477Y007156D03*
X007472Y007161D03*
X007472Y007166D03*
X007472Y007171D03*
X007437Y007251D03*
X007487Y007401D03*
X007482Y007411D03*
X007477Y007421D03*
X007472Y007431D03*
X007467Y007441D03*
X007462Y007451D03*
X007457Y007461D03*
X007452Y007471D03*
X007447Y007481D03*
X007442Y007491D03*
X007437Y007496D03*
X007437Y007501D03*
X007432Y007506D03*
X007432Y007511D03*
X007427Y007516D03*
X007427Y007521D03*
X007422Y007526D03*
X007422Y007531D03*
X007417Y007536D03*
X007412Y007546D03*
X007407Y007556D03*
X007402Y007566D03*
X007397Y007576D03*
X007392Y007586D03*
X007387Y007596D03*
X007382Y007606D03*
X007377Y007616D03*
X007372Y007626D03*
X007367Y007636D03*
X007362Y007646D03*
X007357Y007656D03*
X007352Y007666D03*
X007347Y007676D03*
X007342Y007686D03*
X007337Y007696D03*
X007332Y007706D03*
X007327Y007716D03*
X007322Y007726D03*
X007317Y007736D03*
X007247Y007736D03*
X007247Y007731D03*
X007247Y007726D03*
X007242Y007716D03*
X007242Y007711D03*
X007242Y007706D03*
X007237Y007696D03*
X007237Y007691D03*
X007237Y007686D03*
X007232Y007671D03*
X007232Y007666D03*
X007232Y007661D03*
X007227Y007651D03*
X007227Y007646D03*
X007227Y007641D03*
X007222Y007631D03*
X007222Y007626D03*
X007222Y007621D03*
X007217Y007611D03*
X007217Y007606D03*
X007217Y007601D03*
X007217Y007596D03*
X007212Y007586D03*
X007212Y007581D03*
X007212Y007576D03*
X007207Y007566D03*
X007207Y007561D03*
X007207Y007556D03*
X007202Y007546D03*
X007202Y007541D03*
X007202Y007536D03*
X007202Y007531D03*
X007197Y007521D03*
X007197Y007516D03*
X007197Y007511D03*
X007192Y007501D03*
X007192Y007496D03*
X007192Y007491D03*
X007187Y007481D03*
X007187Y007476D03*
X007187Y007471D03*
X007187Y007466D03*
X007182Y007456D03*
X007182Y007451D03*
X007182Y007446D03*
X007177Y007436D03*
X007177Y007431D03*
X007177Y007426D03*
X007172Y007416D03*
X007172Y007411D03*
X007172Y007406D03*
X007172Y007401D03*
X007167Y007391D03*
X007167Y007386D03*
X007167Y007381D03*
X007162Y007371D03*
X007162Y007366D03*
X007162Y007361D03*
X007157Y007351D03*
X007157Y007346D03*
X007157Y007341D03*
X007157Y007336D03*
X007152Y007326D03*
X007152Y007321D03*
X007152Y007316D03*
X007147Y007306D03*
X007147Y007301D03*
X007147Y007296D03*
X007142Y007286D03*
X007142Y007281D03*
X007142Y007276D03*
X007142Y007271D03*
X007137Y007261D03*
X007137Y007256D03*
X007137Y007251D03*
X007132Y007241D03*
X007132Y007236D03*
X007132Y007231D03*
X007127Y007221D03*
X007127Y007216D03*
X007127Y007211D03*
X007127Y007206D03*
X007122Y007196D03*
X007122Y007191D03*
X007122Y007186D03*
X007117Y007176D03*
X007117Y007171D03*
X007117Y007166D03*
X007112Y007156D03*
X007112Y007151D03*
X007112Y007146D03*
X007112Y007141D03*
X007107Y007131D03*
X007107Y007126D03*
X007107Y007121D03*
X007102Y007111D03*
X007102Y007106D03*
X007102Y007101D03*
X007097Y007091D03*
X007097Y007086D03*
X007097Y007081D03*
X007097Y007076D03*
X007092Y007066D03*
X007092Y007061D03*
X007092Y007056D03*
X007087Y007046D03*
X007087Y007041D03*
X007087Y007036D03*
X007082Y007026D03*
X007082Y007021D03*
X007082Y007016D03*
X007082Y007011D03*
X007077Y007001D03*
X007077Y006996D03*
X007072Y006981D03*
X007067Y006961D03*
X007067Y006956D03*
X007062Y006936D03*
X006992Y006926D03*
X006987Y006936D03*
X006982Y006946D03*
X006977Y006956D03*
X006972Y006966D03*
X006967Y006976D03*
X006962Y006986D03*
X006957Y006996D03*
X006892Y006966D03*
X006897Y006921D03*
X006902Y006891D03*
X006902Y006886D03*
X006902Y006881D03*
X006902Y006876D03*
X006907Y006861D03*
X006907Y006856D03*
X006907Y006851D03*
X006907Y006846D03*
X006907Y006841D03*
X006907Y006836D03*
X006907Y006831D03*
X006912Y006811D03*
X006912Y006806D03*
X006912Y006801D03*
X006912Y006796D03*
X006912Y006791D03*
X006912Y006786D03*
X006917Y006761D03*
X007037Y006826D03*
X006872Y007161D03*
X006872Y007166D03*
X007607Y007166D03*
X007627Y007271D03*
X007632Y007301D03*
X007637Y007326D03*
X007642Y007356D03*
X007647Y007386D03*
X007652Y007416D03*
X007657Y007441D03*
X007662Y007471D03*
X007667Y007501D03*
X007672Y007531D03*
X007677Y007561D03*
X007682Y007586D03*
X007687Y007616D03*
X007692Y007646D03*
X007697Y007676D03*
X007702Y007701D03*
X007707Y007731D03*
X008102Y007836D03*
X008102Y007841D03*
X008107Y007851D03*
X008112Y007866D03*
X008117Y007876D03*
X008122Y007891D03*
X008127Y007901D03*
X008132Y007916D03*
X008142Y007941D03*
X008152Y007966D03*
X008157Y007981D03*
X008162Y007991D03*
X008167Y008006D03*
X008172Y008016D03*
X008177Y008031D03*
X008182Y008041D03*
X008187Y008056D03*
X008192Y008066D03*
X008197Y008081D03*
X008202Y008091D03*
X008207Y008106D03*
X008212Y008116D03*
X008212Y008121D03*
X008217Y008131D03*
X008222Y008141D03*
X008222Y008146D03*
X008222Y008151D03*
X008227Y008156D03*
X008227Y008161D03*
X008232Y008166D03*
X007272Y007826D03*
X007272Y007821D03*
X007157Y007921D03*
X007622Y006571D03*
X006952Y006431D03*
D72*
X007872Y006436D03*
D73*
X007659Y006711D03*
X007659Y006716D03*
X007619Y006796D03*
X007619Y006801D03*
X007614Y006806D03*
X007614Y006811D03*
X007609Y006821D03*
X007609Y006826D03*
X007604Y006831D03*
X007604Y006836D03*
X007599Y006846D03*
X007594Y006856D03*
X007594Y006861D03*
X007589Y006871D03*
X007584Y006881D03*
X007579Y006896D03*
X007574Y006906D03*
X007569Y006921D03*
X007564Y006931D03*
X007559Y006946D03*
X007554Y006956D03*
X007549Y006966D03*
X007544Y006981D03*
X007539Y006991D03*
X007534Y007006D03*
X007529Y007016D03*
X007604Y007171D03*
X007604Y007176D03*
X007554Y007271D03*
X007549Y007281D03*
X007544Y007291D03*
X007539Y007296D03*
X007539Y007301D03*
X007534Y007306D03*
X007534Y007311D03*
X007529Y007316D03*
X007529Y007321D03*
X007524Y007326D03*
X007524Y007331D03*
X007519Y007336D03*
X007519Y007341D03*
X007514Y007346D03*
X007514Y007351D03*
X007509Y007356D03*
X007509Y007361D03*
X007504Y007366D03*
X007504Y007371D03*
X007499Y007376D03*
X007499Y007381D03*
X007494Y007386D03*
X007494Y007391D03*
X007489Y007396D03*
X007484Y007406D03*
X007479Y007416D03*
X007474Y007426D03*
X007469Y007436D03*
X007464Y007446D03*
X007459Y007456D03*
X007454Y007466D03*
X007449Y007476D03*
X007444Y007486D03*
X007414Y007541D03*
X007409Y007551D03*
X007404Y007561D03*
X007399Y007571D03*
X007394Y007581D03*
X007389Y007591D03*
X007384Y007601D03*
X007379Y007611D03*
X007374Y007621D03*
X007369Y007631D03*
X007364Y007641D03*
X007359Y007651D03*
X007354Y007661D03*
X007349Y007671D03*
X007344Y007681D03*
X007339Y007691D03*
X007334Y007701D03*
X007329Y007711D03*
X007324Y007721D03*
X007319Y007731D03*
X008104Y007846D03*
X008109Y007856D03*
X008109Y007861D03*
X008114Y007871D03*
X008119Y007881D03*
X008119Y007886D03*
X008124Y007896D03*
X008129Y007906D03*
X008129Y007911D03*
X008134Y007921D03*
X008134Y007926D03*
X008139Y007931D03*
X008139Y007936D03*
X008144Y007946D03*
X008144Y007951D03*
X008149Y007956D03*
X008149Y007961D03*
X008154Y007971D03*
X008154Y007976D03*
X008159Y007986D03*
X008164Y007996D03*
X008164Y008001D03*
X008169Y008011D03*
X008174Y008021D03*
X008174Y008026D03*
X008179Y008036D03*
X008184Y008046D03*
X008184Y008051D03*
X008189Y008061D03*
X008194Y008071D03*
X008194Y008076D03*
X008199Y008086D03*
X008204Y008096D03*
X008204Y008101D03*
X008209Y008111D03*
X008214Y008126D03*
X008219Y008136D03*
X007439Y007246D03*
X007374Y007131D03*
X007359Y007106D03*
X007344Y007081D03*
X007339Y007071D03*
X007329Y007056D03*
X007324Y007046D03*
X007319Y007036D03*
X007314Y007031D03*
X007309Y007021D03*
X007304Y007011D03*
X007299Y007006D03*
X007294Y006996D03*
X007289Y006986D03*
X007284Y006976D03*
X007279Y006971D03*
X007279Y006966D03*
X007274Y006961D03*
X007274Y006956D03*
X007269Y006951D03*
X007264Y006946D03*
X007264Y006941D03*
X007259Y006936D03*
X007259Y006931D03*
X007254Y006926D03*
X007249Y006921D03*
X007249Y006916D03*
X007244Y006911D03*
X007244Y006906D03*
X007239Y006901D03*
X007234Y006896D03*
X007234Y006891D03*
X007229Y006886D03*
X007229Y006881D03*
X007224Y006876D03*
X007219Y006871D03*
X007219Y006866D03*
X007214Y006861D03*
X007214Y006856D03*
X007209Y006851D03*
X007204Y006846D03*
X007204Y006841D03*
X007199Y006836D03*
X007199Y006831D03*
X007194Y006826D03*
X007189Y006821D03*
X007189Y006816D03*
X007184Y006811D03*
X007184Y006806D03*
X007179Y006801D03*
X007174Y006796D03*
X007174Y006791D03*
X007169Y006786D03*
X007169Y006781D03*
X007164Y006776D03*
X007159Y006771D03*
X007159Y006766D03*
X007154Y006761D03*
X007154Y006756D03*
X007149Y006751D03*
X007144Y006746D03*
X007144Y006741D03*
X007139Y006736D03*
X007034Y006831D03*
X007034Y006836D03*
X006989Y006931D03*
X006984Y006941D03*
X006979Y006951D03*
X006974Y006961D03*
X006969Y006971D03*
X006964Y006981D03*
X006959Y006991D03*
X006874Y007156D03*
X006954Y006436D03*
D74*
X007872Y006441D03*
X008237Y007771D03*
D75*
X007274Y007806D03*
X007274Y007811D03*
X007604Y007186D03*
X007604Y007181D03*
X006884Y007131D03*
X006884Y007126D03*
X007144Y006731D03*
X007659Y006726D03*
X006959Y006441D03*
D76*
X007872Y006446D03*
X008247Y007756D03*
X006792Y008106D03*
D77*
X007152Y007961D03*
X008542Y007621D03*
X008547Y007616D03*
X008552Y007611D03*
X008552Y007161D03*
X008547Y007156D03*
X008542Y007151D03*
X008292Y006636D03*
X008287Y006631D03*
X007552Y006446D03*
X006002Y006551D03*
X005997Y006556D03*
X005992Y006561D03*
X005942Y006996D03*
X005932Y007011D03*
X005907Y007036D03*
X005902Y007041D03*
X005897Y007046D03*
X005892Y007051D03*
X005897Y007496D03*
X005902Y007501D03*
D78*
X006887Y007121D03*
X006887Y007116D03*
X007437Y007231D03*
X007602Y007196D03*
X007602Y007191D03*
X007032Y006861D03*
X007032Y006856D03*
X007032Y006851D03*
X006962Y006446D03*
X007277Y007801D03*
X007157Y007926D03*
D79*
X007782Y006451D03*
D80*
X006424Y006451D03*
D81*
X006967Y006456D03*
X007657Y006736D03*
X007032Y006871D03*
X006897Y007086D03*
X006897Y007091D03*
X006892Y007101D03*
X007437Y007221D03*
X007597Y007206D03*
X007277Y007786D03*
X007277Y007791D03*
X007742Y008041D03*
D82*
X006177Y007651D03*
X006657Y006456D03*
D83*
X007807Y006461D03*
D84*
X007657Y006751D03*
X007172Y006606D03*
X007157Y006596D03*
X007137Y006581D03*
X007122Y006571D03*
X007117Y006566D03*
X007107Y006561D03*
X007052Y006521D03*
X007037Y006511D03*
X006972Y006461D03*
X007027Y006886D03*
X006902Y007066D03*
X006902Y007071D03*
X007597Y007216D03*
X007597Y007221D03*
X007277Y007776D03*
X007277Y007781D03*
X008117Y007831D03*
X007557Y008166D03*
D85*
X008199Y007801D03*
X008139Y006541D03*
X006669Y006461D03*
D86*
X007814Y006466D03*
X006794Y008061D03*
D87*
X007592Y007236D03*
X006912Y007041D03*
X006912Y007036D03*
X007027Y006906D03*
X007027Y006901D03*
X007027Y006896D03*
X007157Y006726D03*
X007242Y006656D03*
X007097Y006556D03*
X007092Y006551D03*
X007077Y006541D03*
X006972Y006466D03*
X006712Y006506D03*
X007657Y006761D03*
D88*
X006142Y006466D03*
X006047Y007591D03*
X006527Y008011D03*
X007142Y007986D03*
D89*
X007154Y007936D03*
X007279Y007761D03*
X007279Y007756D03*
X007729Y008046D03*
X007594Y007241D03*
X007434Y007196D03*
X006914Y007031D03*
X006914Y007026D03*
X007024Y006911D03*
X007654Y006771D03*
X007654Y006766D03*
X007249Y006666D03*
X006974Y006471D03*
D90*
X007219Y006696D03*
X006129Y006471D03*
X006509Y008006D03*
D91*
X007832Y006476D03*
D92*
X007629Y006556D03*
X007654Y006781D03*
X007024Y006921D03*
X006924Y007001D03*
X006919Y007011D03*
X007589Y007256D03*
X007589Y007261D03*
X007284Y007741D03*
X007154Y007941D03*
X006979Y006476D03*
X006709Y006501D03*
D93*
X007839Y006481D03*
X006794Y008056D03*
D94*
X007587Y007266D03*
X007432Y007181D03*
X007432Y007176D03*
X007657Y006786D03*
X006982Y006481D03*
D95*
X006104Y006481D03*
X008414Y007061D03*
X008419Y007066D03*
X008424Y007071D03*
X008434Y007076D03*
X008439Y007691D03*
X008184Y007811D03*
X006794Y008126D03*
X006489Y007996D03*
X006224Y007686D03*
D96*
X007654Y006791D03*
X006984Y006486D03*
D97*
X006699Y006486D03*
X007184Y006716D03*
X007639Y006546D03*
X008299Y006641D03*
X008304Y006646D03*
X008309Y006651D03*
X005984Y006566D03*
X005944Y006991D03*
X005889Y007056D03*
X005884Y007481D03*
X005889Y007486D03*
X005894Y007491D03*
X006359Y007901D03*
X006364Y007906D03*
X006369Y007911D03*
X006374Y007916D03*
X006794Y008131D03*
X008554Y007606D03*
D98*
X007862Y006496D03*
X007857Y006491D03*
D99*
X007634Y006551D03*
X006989Y006491D03*
X005909Y006686D03*
X005904Y006696D03*
X005904Y006701D03*
X005904Y006706D03*
X005899Y006716D03*
X005899Y006721D03*
X005899Y006726D03*
X005894Y006736D03*
X005894Y006741D03*
X005894Y006746D03*
X005894Y006751D03*
X005894Y006756D03*
X005889Y006796D03*
X005889Y006801D03*
X005889Y006806D03*
X005894Y006826D03*
X005894Y006831D03*
X005894Y006836D03*
X005894Y006841D03*
X005894Y006846D03*
X005899Y006851D03*
X005899Y006856D03*
X005899Y006861D03*
X005899Y006866D03*
X005904Y006871D03*
X005904Y006876D03*
X005909Y006891D03*
X005819Y007161D03*
X005814Y007176D03*
X005809Y007186D03*
X005809Y007191D03*
X005809Y007196D03*
X005804Y007206D03*
X005804Y007211D03*
X005804Y007216D03*
X005804Y007221D03*
X005799Y007236D03*
X005799Y007241D03*
X005799Y007246D03*
X005799Y007251D03*
X005799Y007256D03*
X005799Y007261D03*
X005799Y007266D03*
X005799Y007271D03*
X005799Y007276D03*
X005799Y007281D03*
X005799Y007286D03*
X005799Y007291D03*
X005799Y007296D03*
X005799Y007301D03*
X005804Y007321D03*
X005804Y007326D03*
X005804Y007331D03*
X005804Y007336D03*
X005809Y007341D03*
X005809Y007346D03*
X005809Y007351D03*
X005814Y007361D03*
X005814Y007366D03*
X006274Y007711D03*
X006274Y007716D03*
X006274Y007721D03*
X006279Y007736D03*
X006279Y007741D03*
X006279Y007746D03*
X006279Y007751D03*
X006284Y007761D03*
X006284Y007766D03*
X006284Y007771D03*
X006289Y007781D03*
X006294Y007796D03*
X008379Y006961D03*
X008384Y006951D03*
X008384Y006946D03*
X008384Y006941D03*
X008389Y006931D03*
X008389Y006926D03*
X008389Y006921D03*
X008389Y006916D03*
X008394Y006906D03*
X008394Y006901D03*
X008394Y006896D03*
X008394Y006891D03*
X008394Y006886D03*
X008394Y006881D03*
X008394Y006876D03*
X008394Y006871D03*
X008394Y006866D03*
X008394Y006861D03*
X008394Y006856D03*
X008394Y006851D03*
X008394Y006846D03*
X008394Y006841D03*
X008394Y006836D03*
X008394Y006831D03*
X008394Y006826D03*
X008389Y006811D03*
X008389Y006806D03*
X008389Y006801D03*
X008389Y006796D03*
X008384Y006791D03*
X008384Y006786D03*
X008384Y006781D03*
X008379Y006771D03*
X008634Y007291D03*
X008639Y007306D03*
X008639Y007311D03*
X008639Y007316D03*
X008644Y007321D03*
X008644Y007326D03*
X008644Y007331D03*
X008644Y007336D03*
X008649Y007346D03*
X008649Y007351D03*
X008649Y007356D03*
X008649Y007361D03*
X008649Y007366D03*
X008649Y007371D03*
X008649Y007376D03*
X008649Y007381D03*
X008649Y007386D03*
X008649Y007391D03*
X008649Y007396D03*
X008649Y007401D03*
X008649Y007406D03*
X008649Y007411D03*
X008649Y007416D03*
X008649Y007421D03*
X008644Y007436D03*
X008644Y007441D03*
X008644Y007446D03*
X008644Y007451D03*
X008639Y007456D03*
X008639Y007461D03*
X008639Y007466D03*
X008634Y007476D03*
X008634Y007481D03*
D100*
X008624Y007506D03*
X008619Y007516D03*
X008614Y007526D03*
X008609Y007536D03*
X008604Y007546D03*
X008624Y007266D03*
X008619Y007256D03*
X008614Y007246D03*
X008609Y007236D03*
X008604Y007226D03*
X008364Y006996D03*
X008369Y006986D03*
X008364Y006731D03*
X008359Y006721D03*
X008354Y006716D03*
X008349Y006706D03*
X006704Y006491D03*
X005939Y006626D03*
X005934Y006631D03*
X005934Y006636D03*
X005929Y006641D03*
X005924Y006651D03*
X005919Y006661D03*
X005919Y006916D03*
X005924Y006926D03*
X005929Y006936D03*
X005934Y006941D03*
X005939Y006951D03*
X005949Y006971D03*
X005844Y007111D03*
X005839Y007121D03*
X005834Y007126D03*
X005834Y007131D03*
X005829Y007401D03*
X005834Y007411D03*
X005839Y007416D03*
X005839Y007421D03*
X005844Y007426D03*
X005849Y007436D03*
X006309Y007826D03*
X006309Y007831D03*
X006314Y007836D03*
X006314Y007841D03*
X006319Y007846D03*
X007154Y007951D03*
D101*
X006307Y007821D03*
X006302Y007816D03*
X006302Y007811D03*
X006297Y007806D03*
X006297Y007801D03*
X006292Y007791D03*
X006292Y007786D03*
X006287Y007776D03*
X005832Y007406D03*
X005827Y007396D03*
X005827Y007391D03*
X005822Y007386D03*
X005822Y007381D03*
X005817Y007376D03*
X005817Y007371D03*
X005812Y007356D03*
X005807Y007201D03*
X005812Y007181D03*
X005817Y007171D03*
X005817Y007166D03*
X005822Y007156D03*
X005822Y007151D03*
X005827Y007146D03*
X005827Y007141D03*
X005832Y007136D03*
X005927Y006931D03*
X005922Y006921D03*
X005917Y006911D03*
X005917Y006906D03*
X005912Y006901D03*
X005912Y006896D03*
X005907Y006886D03*
X005907Y006881D03*
X005902Y006711D03*
X005907Y006691D03*
X005912Y006681D03*
X005912Y006676D03*
X005917Y006671D03*
X005917Y006666D03*
X005922Y006656D03*
X005927Y006646D03*
X006992Y006496D03*
X007242Y006671D03*
X008362Y006726D03*
X008367Y006736D03*
X008367Y006741D03*
X008372Y006746D03*
X008372Y006751D03*
X008377Y006756D03*
X008377Y006761D03*
X008377Y006766D03*
X008382Y006776D03*
X008387Y006936D03*
X008382Y006956D03*
X008377Y006966D03*
X008377Y006971D03*
X008372Y006976D03*
X008372Y006981D03*
X008367Y006991D03*
X008362Y007001D03*
X008612Y007241D03*
X008617Y007251D03*
X008622Y007261D03*
X008627Y007271D03*
X008627Y007276D03*
X008632Y007281D03*
X008632Y007286D03*
X008637Y007296D03*
X008637Y007301D03*
X008637Y007471D03*
X008632Y007486D03*
X008632Y007491D03*
X008627Y007496D03*
X008627Y007501D03*
X008622Y007511D03*
X008617Y007521D03*
X008612Y007531D03*
D102*
X008647Y007431D03*
X008647Y007426D03*
X008647Y007341D03*
X008392Y006911D03*
X008392Y006821D03*
X008392Y006816D03*
X007172Y006721D03*
X006707Y006496D03*
X005897Y006731D03*
X005892Y006761D03*
X005892Y006766D03*
X005892Y006771D03*
X005892Y006776D03*
X005892Y006781D03*
X005892Y006786D03*
X005892Y006791D03*
X005892Y006811D03*
X005892Y006816D03*
X005892Y006821D03*
X005802Y007226D03*
X005802Y007231D03*
X005802Y007306D03*
X005802Y007311D03*
X005802Y007316D03*
X006277Y007726D03*
X006277Y007731D03*
X006282Y007756D03*
X007152Y007946D03*
X007717Y008051D03*
D103*
X006794Y008051D03*
X007869Y006501D03*
D104*
X007657Y006536D03*
X007222Y006681D03*
X006067Y006501D03*
X008217Y006576D03*
X008387Y007036D03*
X008477Y007101D03*
X008477Y007671D03*
X008172Y007816D03*
X007147Y007971D03*
D105*
X006344Y007881D03*
X006339Y007876D03*
X005869Y007466D03*
X005869Y007461D03*
X005864Y007456D03*
X005859Y007451D03*
X005854Y007096D03*
X005859Y007091D03*
X005864Y007086D03*
X005864Y007081D03*
X005869Y007076D03*
X005874Y007071D03*
X005954Y006601D03*
X005959Y006596D03*
X005964Y006591D03*
X006999Y006506D03*
X008324Y006671D03*
X008329Y006676D03*
X008334Y006681D03*
X008574Y007186D03*
X008579Y007191D03*
X008584Y007196D03*
X008589Y007206D03*
X008589Y007566D03*
X008584Y007576D03*
X008579Y007581D03*
X008574Y007586D03*
X008149Y007826D03*
D106*
X007154Y007931D03*
X007434Y007216D03*
X007434Y007211D03*
X007599Y007211D03*
X006899Y007081D03*
X006899Y007076D03*
X007029Y006881D03*
X007029Y006876D03*
X007654Y006746D03*
X007654Y006741D03*
X006714Y006511D03*
D107*
X006712Y006516D03*
X007657Y006721D03*
X007032Y006841D03*
X007032Y006846D03*
X007287Y006981D03*
X007292Y006991D03*
X007297Y007001D03*
X007307Y007016D03*
X007312Y007026D03*
X007322Y007041D03*
X007327Y007051D03*
X007332Y007061D03*
X007337Y007066D03*
X007342Y007076D03*
X007347Y007086D03*
X007352Y007091D03*
X007352Y007096D03*
X007357Y007101D03*
X007362Y007111D03*
X007367Y007116D03*
X007367Y007121D03*
X007372Y007126D03*
X007377Y007136D03*
X007382Y007141D03*
X007382Y007146D03*
X007387Y007151D03*
X007387Y007156D03*
X007392Y007161D03*
X007397Y007166D03*
X007397Y007171D03*
X007437Y007236D03*
X007437Y007241D03*
X007547Y007286D03*
X007552Y007276D03*
X006882Y007141D03*
X006882Y007136D03*
X006877Y007146D03*
X006877Y007151D03*
X008062Y007721D03*
X007752Y008036D03*
X007272Y007816D03*
D108*
X007894Y006521D03*
D109*
X007902Y006526D03*
D110*
X008099Y006531D03*
X008219Y007786D03*
D111*
X006542Y008016D03*
X006197Y007666D03*
X008127Y006536D03*
D112*
X008312Y006656D03*
X008317Y006661D03*
X008322Y006666D03*
X008367Y007011D03*
X008557Y007166D03*
X008562Y007171D03*
X008567Y007176D03*
X008572Y007181D03*
X008572Y007591D03*
X008567Y007596D03*
X008562Y007601D03*
X007152Y007956D03*
X006357Y007896D03*
X006352Y007891D03*
X006347Y007886D03*
X005882Y007476D03*
X005877Y007471D03*
X005877Y007066D03*
X005882Y007061D03*
X005947Y006986D03*
X005967Y006586D03*
X005972Y006581D03*
X005977Y006576D03*
X005982Y006571D03*
D113*
X007042Y006736D03*
X007662Y006636D03*
X007622Y007081D03*
X007622Y007086D03*
X006827Y007311D03*
X006827Y007316D03*
X007157Y007916D03*
D114*
X007259Y007906D03*
X007259Y007901D03*
X007444Y007311D03*
X007444Y007306D03*
X007619Y007091D03*
X007044Y006746D03*
X007044Y006741D03*
X007659Y006641D03*
X006829Y007301D03*
X006829Y007306D03*
D115*
X006832Y007296D03*
X006832Y007291D03*
X007442Y007301D03*
X007622Y007096D03*
X007042Y006756D03*
X007042Y006751D03*
X007662Y006646D03*
X007262Y007891D03*
X007262Y007896D03*
X006797Y008136D03*
D116*
X006834Y007286D03*
X006834Y007281D03*
X006839Y007276D03*
X006839Y007271D03*
X007444Y007296D03*
X007619Y007106D03*
X007619Y007101D03*
X007659Y006656D03*
X007659Y006651D03*
D117*
X007659Y006666D03*
X007659Y006671D03*
X007039Y006771D03*
X007039Y006776D03*
X007039Y006781D03*
X007614Y007121D03*
X006844Y007251D03*
X006844Y007256D03*
X007264Y007871D03*
X007264Y007876D03*
D118*
X007282Y007751D03*
X007282Y007746D03*
X007592Y007251D03*
X007592Y007246D03*
X007432Y007191D03*
X007432Y007186D03*
X006917Y007021D03*
X006917Y007016D03*
X006922Y007006D03*
X007027Y006916D03*
X007657Y006776D03*
D119*
X007037Y006796D03*
X007037Y006801D03*
X006857Y007211D03*
X006857Y007216D03*
X007442Y007271D03*
X007612Y007146D03*
X007612Y007141D03*
X007267Y007851D03*
X007267Y007856D03*
D120*
X006144Y007626D03*
X006129Y007616D03*
X006119Y007611D03*
D121*
X006137Y007621D03*
X008232Y007776D03*
D122*
X007134Y008001D03*
X006794Y008116D03*
X006169Y007646D03*
D123*
X006184Y007656D03*
X006559Y008021D03*
X008214Y007791D03*
D124*
X008272Y007726D03*
X007562Y008131D03*
D125*
X008269Y007731D03*
D126*
X008259Y007741D03*
X006794Y008101D03*
D127*
X008257Y007746D03*
D128*
X008209Y007796D03*
D129*
X007129Y008006D03*
D130*
X007127Y008011D03*
D131*
X007119Y008016D03*
X007579Y008141D03*
D132*
X007109Y008021D03*
X006794Y008096D03*
D133*
X006887Y008026D03*
D134*
X006897Y008031D03*
D135*
X006909Y008036D03*
D136*
X006924Y008041D03*
D137*
X006942Y008046D03*
D138*
X007482Y008061D03*
X007487Y008066D03*
D139*
X006794Y008066D03*
D140*
X007492Y008071D03*
D141*
X006794Y008071D03*
D142*
X006794Y008076D03*
X007499Y008081D03*
D143*
X007509Y008091D03*
X006794Y008081D03*
D144*
X006794Y008086D03*
D145*
X006792Y008091D03*
D146*
X007517Y008096D03*
D147*
X007532Y008111D03*
D148*
X006792Y008111D03*
D149*
X007539Y008116D03*
D150*
X007554Y008126D03*
D151*
X007589Y008146D03*
D152*
X010058Y007807D02*
X010058Y007273D01*
X010165Y007166D01*
X010272Y007166D01*
X010379Y007380D02*
X010058Y007380D01*
X010379Y007380D02*
X010486Y007487D01*
X010486Y007807D01*
X010703Y007700D02*
X010810Y007807D01*
X011130Y007807D01*
X010703Y007700D02*
X010703Y007487D01*
X010810Y007380D01*
X011130Y007380D01*
X011130Y008020D01*
X011992Y008020D02*
X011992Y007380D01*
X012312Y007380D01*
X012419Y007487D01*
X012419Y007700D01*
X012312Y007807D01*
X011992Y007807D01*
X012637Y007700D02*
X012637Y007593D01*
X013064Y007593D01*
X013064Y007487D02*
X013064Y007700D01*
X012957Y007807D01*
X012743Y007807D01*
X012637Y007700D01*
X012957Y007380D02*
X013064Y007487D01*
X012957Y007380D02*
X012743Y007380D01*
X013280Y007380D02*
X013493Y007380D01*
X013387Y007380D02*
X013387Y008020D01*
X013493Y008020D01*
X013816Y008020D02*
X013816Y007380D01*
X013710Y007380D02*
X013923Y007380D01*
X014139Y007380D02*
X014353Y007380D01*
X014246Y007380D02*
X014246Y007807D01*
X014353Y007807D01*
X014569Y007700D02*
X014783Y007700D01*
X014676Y007914D02*
X014569Y008020D01*
X014676Y007914D02*
X014676Y007380D01*
X014999Y007380D02*
X015212Y007380D01*
X015105Y007380D02*
X015105Y008020D01*
X015212Y008020D01*
X015430Y007807D02*
X015430Y007380D01*
X015750Y007380D01*
X015857Y007487D01*
X015857Y007807D01*
X016288Y007700D02*
X016501Y007700D01*
X016501Y007380D02*
X016501Y008020D01*
X016074Y008020D01*
X014246Y008020D02*
X014246Y008127D01*
X013923Y008020D02*
X013816Y008020D01*
X014461Y007077D02*
X014461Y006970D01*
X014461Y006757D02*
X014461Y006330D01*
X014568Y006330D02*
X014354Y006330D01*
X014138Y006437D02*
X014031Y006330D01*
X013711Y006330D01*
X014138Y006437D02*
X014138Y006650D01*
X014031Y006757D01*
X013711Y006757D01*
X014461Y006757D02*
X014568Y006757D01*
X014785Y006757D02*
X015105Y006757D01*
X015212Y006650D01*
X015212Y006437D01*
X015105Y006330D01*
X014785Y006330D01*
X014785Y006223D02*
X014785Y006757D01*
X015430Y006650D02*
X015430Y006330D01*
X015750Y006330D01*
X015857Y006437D01*
X015750Y006543D01*
X015430Y006543D01*
X015430Y006650D02*
X015536Y006757D01*
X015750Y006757D01*
X016074Y006970D02*
X016074Y006330D01*
X016501Y006330D02*
X016501Y006970D01*
X016288Y006757D01*
X016074Y006970D01*
X014999Y006116D02*
X014892Y006116D01*
X014785Y006223D01*
X012849Y006437D02*
X012742Y006330D01*
X012529Y006330D01*
X012422Y006437D01*
X012422Y006543D01*
X012529Y006650D01*
X012742Y006650D01*
X012849Y006757D01*
X012849Y006864D01*
X012742Y006970D01*
X012529Y006970D01*
X012422Y006864D01*
X012204Y006757D02*
X012098Y006757D01*
X011991Y006650D01*
X011884Y006757D01*
X011777Y006650D01*
X011777Y006330D01*
X011991Y006330D02*
X011991Y006650D01*
X012204Y006757D02*
X012204Y006330D01*
X011560Y006437D02*
X011560Y006650D01*
X011453Y006757D01*
X011239Y006757D01*
X011133Y006650D01*
X011133Y006437D01*
X011239Y006330D01*
X011453Y006330D01*
X011560Y006437D01*
X010915Y006543D02*
X010595Y006757D01*
X010378Y006650D02*
X010271Y006757D01*
X010058Y006757D01*
X009951Y006650D01*
X009951Y006543D01*
X010378Y006543D01*
X010378Y006437D02*
X010378Y006650D01*
X010378Y006437D02*
X010271Y006330D01*
X010058Y006330D01*
X010595Y006330D02*
X010915Y006543D01*
X010915Y006330D02*
X010915Y006970D01*
M02*
