G75*
G70*
%OFA0B0*%
%FSLAX24Y24*%
%IPPOS*%
%LPD*%
%AMOC8*
5,1,8,0,0,1.08239X$1,22.5*
%
%ADD10C,0.0000*%
%ADD11C,0.0000*%
%ADD12C,0.0480*%
%ADD13OC8,0.0480*%
%ADD14OC8,0.0540*%
%ADD15C,0.0600*%
%ADD16C,0.0480*%
%ADD17C,0.0660*%
%ADD18R,0.0591X0.0591*%
%ADD19C,0.0591*%
%ADD20OC8,0.0630*%
%ADD21C,0.0630*%
%ADD22C,0.0886*%
%ADD23C,0.1660*%
%ADD24C,0.0250*%
%ADD25C,0.0360*%
%ADD26C,0.0000*%
%ADD27C,0.0480*%
%ADD28OC8,0.0480*%
%ADD29OC8,0.0540*%
%ADD30C,0.0600*%
%ADD31C,0.0480*%
%ADD32C,0.0660*%
%ADD33R,0.0591X0.0591*%
%ADD34C,0.0591*%
%ADD35OC8,0.0630*%
%ADD36C,0.0630*%
%ADD37C,0.0886*%
%ADD38C,0.1660*%
%ADD39C,0.0250*%
%ADD40C,0.0360*%
%ADD41C,0.0000*%
%ADD42C,0.0480*%
%ADD43OC8,0.0480*%
%ADD44OC8,0.0540*%
%ADD45C,0.0600*%
%ADD46C,0.0480*%
%ADD47C,0.0660*%
%ADD48R,0.0591X0.0591*%
%ADD49C,0.0591*%
%ADD50OC8,0.0630*%
%ADD51C,0.0630*%
%ADD52C,0.0886*%
%ADD53C,0.1660*%
%ADD54C,0.0250*%
%ADD55C,0.0360*%
D10*
X000100Y000100D02*
X000100Y011911D01*
X000494Y011911D01*
X000494Y012502D01*
X000100Y012502D01*
X000100Y024313D01*
X000494Y024313D01*
X000494Y024903D01*
X000100Y024903D01*
X000100Y036714D01*
X039470Y036714D01*
X039470Y024903D01*
X000887Y024903D01*
X000887Y024313D01*
X039470Y024313D01*
X039470Y012502D01*
X000887Y012502D01*
X000887Y011911D01*
X039470Y011911D01*
X039470Y000100D01*
X000100Y000100D01*
D11*
X101Y100D02*
X101Y11911D01*
X39471Y11911D01*
X39471Y100D01*
X101Y100D01*
D12*
X6495Y2785D02*
X6495Y3265D01*
X7495Y3265D02*
X7495Y2785D01*
X8495Y2785D02*
X8495Y3265D01*
X9495Y3265D02*
X9495Y2785D01*
X10495Y2785D02*
X10495Y3265D01*
X11495Y3265D02*
X11495Y2785D01*
X12495Y2785D02*
X12495Y3265D01*
X13495Y3265D02*
X13495Y2785D01*
X14495Y2785D02*
X14495Y3265D01*
X15495Y3265D02*
X15495Y2785D01*
X16495Y2785D02*
X16495Y3265D01*
X17495Y3265D02*
X17495Y2785D01*
X18495Y2785D02*
X18495Y3265D01*
X19495Y3265D02*
X19495Y2785D01*
X20495Y2785D02*
X20495Y3265D01*
X21495Y3265D02*
X21495Y2785D01*
X22495Y2785D02*
X22495Y3265D01*
X23495Y3265D02*
X23495Y2785D01*
X24495Y2785D02*
X24495Y3265D01*
X25495Y3265D02*
X25495Y2785D01*
X25495Y8785D02*
X25495Y9265D01*
X24495Y9265D02*
X24495Y8785D01*
X23495Y8785D02*
X23495Y9265D01*
X22495Y9265D02*
X22495Y8785D01*
X21495Y8785D02*
X21495Y9265D01*
X20495Y9265D02*
X20495Y8785D01*
X19495Y8785D02*
X19495Y9265D01*
X18495Y9265D02*
X18495Y8785D01*
X17495Y8785D02*
X17495Y9265D01*
X16495Y9265D02*
X16495Y8785D01*
X15495Y8785D02*
X15495Y9265D01*
X14495Y9265D02*
X14495Y8785D01*
X13495Y8785D02*
X13495Y9265D01*
X12495Y9265D02*
X12495Y8785D01*
X11495Y8785D02*
X11495Y9265D01*
X10495Y9265D02*
X10495Y8785D01*
X9495Y8785D02*
X9495Y9265D01*
X8495Y9265D02*
X8495Y8785D01*
X7495Y8785D02*
X7495Y9265D01*
X6495Y9265D02*
X6495Y8785D01*
D13*
X4045Y9475D03*
X2045Y9475D03*
X895Y2725D03*
X2145Y2125D03*
X3145Y2125D03*
X4295Y2125D03*
X5295Y2125D03*
X5495Y975D03*
X4495Y975D03*
X2895Y975D03*
X1895Y975D03*
X895Y725D03*
X27095Y1275D03*
X28095Y1275D03*
X36895Y825D03*
X36895Y2825D03*
X36895Y3775D03*
X36895Y5775D03*
X35745Y6275D03*
X32745Y6275D03*
X28095Y7775D03*
X27095Y7775D03*
D14*
X30095Y6675D03*
X31095Y6675D03*
X31095Y5675D03*
X30095Y5675D03*
X30095Y4675D03*
X31095Y4675D03*
X31095Y3675D03*
X30095Y3675D03*
X30095Y2675D03*
X31095Y2675D03*
X3995Y4725D03*
X2995Y4725D03*
X2995Y5725D03*
X3995Y5725D03*
X3995Y6725D03*
X2995Y6725D03*
D15*
X1145Y6275D02*
X545Y6275D01*
X545Y5275D02*
X1145Y5275D01*
X1145Y4275D02*
X545Y4275D01*
X545Y7275D02*
X1145Y7275D01*
X1145Y8275D02*
X545Y8275D01*
X545Y9275D02*
X1145Y9275D01*
X4895Y9375D02*
X5495Y9375D01*
X5495Y10375D02*
X4895Y10375D01*
X6495Y10725D02*
X6495Y11325D01*
X7495Y11325D02*
X7495Y10725D01*
X8495Y10725D02*
X8495Y11325D01*
X9495Y11325D02*
X9495Y10725D01*
X10495Y10725D02*
X10495Y11325D01*
X11495Y11325D02*
X11495Y10725D01*
X12495Y10725D02*
X12495Y11325D01*
X13495Y11325D02*
X13495Y10725D01*
X14495Y10725D02*
X14495Y11325D01*
X15495Y11325D02*
X15495Y10725D01*
X16495Y10725D02*
X16495Y11325D01*
X17495Y11325D02*
X17495Y10725D01*
X18495Y10725D02*
X18495Y11325D01*
X19495Y11325D02*
X19495Y10725D01*
X20495Y10725D02*
X20495Y11325D01*
X21495Y11325D02*
X21495Y10725D01*
X22495Y10725D02*
X22495Y11325D01*
X23495Y11325D02*
X23495Y10725D01*
X24495Y10725D02*
X24495Y11325D01*
X25495Y11325D02*
X25495Y10725D01*
X26495Y10725D02*
X26495Y11325D01*
X27495Y11325D02*
X27495Y10725D01*
X33255Y10505D02*
X33255Y9905D01*
X35035Y9905D02*
X35035Y10505D01*
X35035Y7945D02*
X35035Y7345D01*
X33255Y7345D02*
X33255Y7945D01*
X25495Y1325D02*
X25495Y725D01*
X24495Y725D02*
X24495Y1325D01*
X23495Y1325D02*
X23495Y725D01*
X22495Y725D02*
X22495Y1325D01*
X21495Y1325D02*
X21495Y725D01*
X20495Y725D02*
X20495Y1325D01*
X19495Y1325D02*
X19495Y725D01*
X18495Y725D02*
X18495Y1325D01*
X17495Y1325D02*
X17495Y725D01*
X16495Y725D02*
X16495Y1325D01*
X15495Y1325D02*
X15495Y725D01*
X14495Y725D02*
X14495Y1325D01*
X13495Y1325D02*
X13495Y725D01*
X12495Y725D02*
X12495Y1325D01*
X11495Y1325D02*
X11495Y725D01*
X10495Y725D02*
X10495Y1325D01*
X9495Y1325D02*
X9495Y725D01*
X8495Y725D02*
X8495Y1325D01*
X7495Y1325D02*
X7495Y725D01*
X6495Y725D02*
X6495Y1325D01*
D16*
X27595Y3875D03*
X27595Y5775D03*
D17*
X33145Y5075D03*
X33145Y1075D03*
D18*
X38445Y4025D03*
D19*
X38445Y3025D03*
X38445Y2025D03*
D20*
X34895Y2275D03*
X34895Y4775D03*
D21*
X34895Y3775D03*
X34895Y1275D03*
D22*
X32022Y9656D02*
X32022Y10542D01*
X30451Y10546D02*
X30451Y9660D01*
X28880Y9660D02*
X28880Y10546D01*
D23*
X36051Y8925D03*
X38414Y8925D03*
X37213Y10854D03*
D24*
X38282Y10537D02*
X39246Y10537D01*
X39246Y10785D02*
X38328Y10785D01*
X38328Y10707D02*
X38328Y11001D01*
X38252Y11284D01*
X38105Y11539D01*
X37958Y11686D01*
X39246Y11686D01*
X39246Y9573D01*
X39201Y9629D01*
X39118Y9713D01*
X39025Y9787D01*
X38925Y9850D01*
X38818Y9901D01*
X38706Y9940D01*
X38590Y9967D01*
X38539Y9973D01*
X38539Y9050D01*
X38289Y9050D01*
X38289Y9973D01*
X38237Y9967D01*
X38121Y9940D01*
X38009Y9901D01*
X37902Y9850D01*
X37802Y9787D01*
X37709Y9713D01*
X37626Y9629D01*
X37552Y9536D01*
X37489Y9436D01*
X37437Y9329D01*
X37398Y9218D01*
X37372Y9102D01*
X37366Y9050D01*
X38288Y9050D01*
X38288Y8800D01*
X37366Y8800D01*
X37372Y8748D01*
X37398Y8632D01*
X37437Y8521D01*
X37489Y8414D01*
X37552Y8314D01*
X37626Y8221D01*
X37709Y8137D01*
X37802Y8063D01*
X37902Y8000D01*
X38009Y7949D01*
X38121Y7910D01*
X38237Y7883D01*
X38289Y7877D01*
X38289Y8800D01*
X38539Y8800D01*
X38539Y7877D01*
X38590Y7883D01*
X38706Y7910D01*
X38818Y7949D01*
X38925Y8000D01*
X39025Y8063D01*
X39118Y8137D01*
X39201Y8221D01*
X39246Y8277D01*
X39246Y325D01*
X37137Y325D01*
X37227Y415D01*
X37327Y415D01*
X37477Y477D01*
X38445Y1445D01*
X38560Y1445D01*
X38774Y1533D01*
X38937Y1696D01*
X39025Y1910D01*
X39025Y2140D01*
X38937Y2354D01*
X38774Y2517D01*
X38675Y2558D01*
X38718Y2580D01*
X38784Y2628D01*
X38842Y2686D01*
X38890Y2752D01*
X38927Y2825D01*
X38952Y2903D01*
X38965Y2984D01*
X38965Y3025D01*
X38965Y3066D01*
X38952Y3147D01*
X38927Y3225D01*
X38890Y3298D01*
X38842Y3364D01*
X38784Y3422D01*
X38752Y3445D01*
X38797Y3445D01*
X38902Y3488D01*
X38982Y3568D01*
X39025Y3673D01*
X39025Y4377D01*
X38982Y4482D01*
X38902Y4562D01*
X38797Y4605D01*
X38093Y4605D01*
X38011Y4571D01*
X38011Y6550D01*
X37949Y6701D01*
X37134Y7516D01*
X36983Y7579D01*
X36820Y7579D01*
X35820Y7579D01*
X35657Y7579D01*
X35560Y7538D01*
X35560Y7645D01*
X35560Y7921D01*
X35621Y7886D01*
X35905Y7810D01*
X36198Y7810D01*
X36482Y7886D01*
X36736Y8033D01*
X36943Y8240D01*
X37090Y8495D01*
X37166Y8778D01*
X37166Y9072D01*
X37090Y9355D01*
X36943Y9610D01*
X36736Y9817D01*
X36482Y9964D01*
X36411Y9983D01*
X36411Y10079D01*
X36528Y9962D01*
X36782Y9815D01*
X37066Y9739D01*
X37359Y9739D01*
X37643Y9815D01*
X37897Y9962D01*
X38105Y10170D01*
X38252Y10424D01*
X38328Y10707D01*
X38319Y11034D02*
X39246Y11034D01*
X39246Y11282D02*
X38252Y11282D01*
X38109Y11531D02*
X39246Y11531D01*
X36001Y10700D02*
X35426Y11275D01*
X27745Y11275D01*
X27495Y11025D01*
X26745Y10575D02*
X26495Y11025D01*
X25495Y11025D02*
X25495Y9025D01*
X24495Y9025D02*
X24495Y11025D01*
X23495Y11025D02*
X23495Y9025D01*
X22745Y8675D02*
X22495Y9025D01*
X22495Y11025D01*
X21495Y11025D02*
X21495Y9025D01*
X21745Y8675D01*
X22195Y8225D01*
X22295Y8225D01*
X25745Y4775D01*
X30045Y4775D01*
X30095Y4675D01*
X29620Y4365D02*
X29810Y4175D01*
X29540Y3905D01*
X29540Y3445D01*
X29810Y3175D01*
X29540Y2905D01*
X29540Y2445D01*
X29865Y2120D01*
X30325Y2120D01*
X30637Y2433D01*
X30890Y2180D01*
X31095Y2180D01*
X31300Y2180D01*
X31590Y2470D01*
X31590Y2675D01*
X31590Y2880D01*
X31337Y3133D01*
X31650Y3445D01*
X31650Y3905D01*
X31380Y4175D01*
X31495Y4290D01*
X31931Y4290D01*
X32159Y4062D01*
X32201Y3962D01*
X32332Y3831D01*
X32503Y3760D01*
X32687Y3760D01*
X32858Y3831D01*
X32989Y3962D01*
X33060Y4133D01*
X33060Y4317D01*
X32996Y4471D01*
X33023Y4460D01*
X33267Y4460D01*
X33493Y4554D01*
X33666Y4727D01*
X33760Y4953D01*
X33760Y4976D01*
X33927Y5090D01*
X34446Y5090D01*
X34355Y4999D01*
X34355Y4775D01*
X34895Y4775D01*
X35435Y4775D01*
X35435Y4999D01*
X35344Y5090D01*
X36075Y5090D01*
X36130Y5083D01*
X36156Y5090D01*
X36183Y5090D01*
X36234Y5111D01*
X36288Y5126D01*
X36309Y5142D01*
X36334Y5152D01*
X36373Y5192D01*
X36417Y5226D01*
X36430Y5249D01*
X36449Y5268D01*
X36470Y5319D01*
X36551Y5461D01*
X36702Y5310D01*
X36895Y5310D01*
X37088Y5310D01*
X37191Y5414D01*
X37191Y4221D01*
X37112Y4300D01*
X36678Y4300D01*
X36563Y4185D01*
X35334Y4185D01*
X35235Y4284D01*
X35187Y4303D01*
X35435Y4551D01*
X35435Y4775D01*
X34895Y4775D01*
X34895Y4775D01*
X34895Y4775D01*
X34355Y4775D01*
X34355Y4551D01*
X34603Y4303D01*
X34555Y4284D01*
X34456Y4185D01*
X34295Y4185D01*
X34144Y4123D01*
X32969Y2947D01*
X32854Y2832D01*
X32791Y2681D01*
X32791Y1591D01*
X28437Y1591D01*
X28560Y1468D02*
X28288Y1740D01*
X28095Y1740D01*
X28095Y1275D01*
X28560Y1275D01*
X28560Y1468D01*
X28560Y1342D02*
X32590Y1342D01*
X32624Y1423D02*
X32530Y1197D01*
X32530Y953D01*
X32624Y727D01*
X32797Y554D01*
X33023Y460D01*
X33267Y460D01*
X33493Y554D01*
X33666Y727D01*
X33760Y953D01*
X33760Y1197D01*
X33666Y1423D01*
X33611Y1478D01*
X33611Y2430D01*
X34501Y3320D01*
X34555Y3266D01*
X34776Y3175D01*
X35014Y3175D01*
X35235Y3266D01*
X35334Y3365D01*
X36563Y3365D01*
X36670Y3258D01*
X36430Y3018D01*
X36430Y2825D01*
X36895Y2825D01*
X36895Y2360D01*
X37088Y2360D01*
X37324Y2597D01*
X37369Y2552D01*
X37865Y2057D01*
X37865Y2025D01*
X37151Y1311D01*
X37112Y1350D01*
X37006Y1350D01*
X36903Y1483D01*
X36893Y1507D01*
X36853Y1547D01*
X36819Y1591D01*
X37431Y1591D01*
X36819Y1591D02*
X36796Y1604D01*
X36777Y1623D01*
X36725Y1644D01*
X36677Y1672D01*
X36651Y1675D01*
X36627Y1685D01*
X36571Y1685D01*
X36515Y1692D01*
X36490Y1685D01*
X35334Y1685D01*
X35235Y1784D01*
X35187Y1803D01*
X35435Y2051D01*
X35435Y2275D01*
X35435Y2499D01*
X35119Y2815D01*
X34895Y2815D01*
X34895Y2275D01*
X34895Y2275D01*
X35435Y2275D01*
X34895Y2275D01*
X34895Y2275D01*
X34895Y2275D01*
X34355Y2275D01*
X34355Y2499D01*
X34671Y2815D01*
X34895Y2815D01*
X34895Y2275D01*
X34355Y2275D01*
X34355Y2051D01*
X34603Y1803D01*
X34555Y1784D01*
X34386Y1615D01*
X34295Y1394D01*
X34295Y1156D01*
X34386Y935D01*
X34555Y766D01*
X34776Y675D01*
X35014Y675D01*
X35235Y766D01*
X35334Y865D01*
X36344Y865D01*
X36370Y832D01*
X36370Y608D01*
X36653Y325D01*
X25922Y325D01*
X25991Y394D01*
X26080Y609D01*
X26080Y1441D01*
X25991Y1656D01*
X25905Y1742D01*
X25905Y2453D01*
X25940Y2488D01*
X26020Y2681D01*
X26020Y3369D01*
X25980Y3465D01*
X26685Y3465D01*
X26685Y1607D01*
X26570Y1492D01*
X26570Y1058D01*
X26878Y750D01*
X27312Y750D01*
X27620Y1058D01*
X27620Y1492D01*
X27505Y1607D01*
X27505Y3350D01*
X27699Y3350D01*
X27892Y3430D01*
X28040Y3578D01*
X28120Y3771D01*
X28120Y3979D01*
X28040Y4172D01*
X27892Y4320D01*
X27784Y4365D01*
X29620Y4365D01*
X29661Y4324D02*
X27882Y4324D01*
X28080Y4076D02*
X29711Y4076D01*
X29540Y3827D02*
X28120Y3827D01*
X28041Y3579D02*
X29540Y3579D01*
X29655Y3330D02*
X27505Y3330D01*
X27505Y3082D02*
X29717Y3082D01*
X29540Y2833D02*
X27505Y2833D01*
X27505Y2585D02*
X29540Y2585D01*
X29649Y2336D02*
X27505Y2336D01*
X27505Y2088D02*
X32791Y2088D01*
X32791Y2336D02*
X31456Y2336D01*
X31095Y2336D02*
X31095Y2336D01*
X31095Y2180D02*
X31095Y2675D01*
X31590Y2675D01*
X31095Y2675D01*
X31095Y2675D01*
X31095Y2675D01*
X31095Y2180D01*
X30734Y2336D02*
X30541Y2336D01*
X31095Y2585D02*
X31095Y2585D01*
X31590Y2585D02*
X32791Y2585D01*
X33201Y2600D02*
X33201Y1231D01*
X33145Y1075D01*
X32530Y1094D02*
X28560Y1094D01*
X28560Y1082D02*
X28560Y1275D01*
X28095Y1275D01*
X28095Y1275D01*
X28095Y1275D01*
X28095Y810D01*
X28288Y810D01*
X28560Y1082D01*
X28323Y845D02*
X32574Y845D01*
X32753Y597D02*
X26075Y597D01*
X26080Y845D02*
X26782Y845D01*
X26570Y1094D02*
X26080Y1094D01*
X26080Y1342D02*
X26570Y1342D01*
X27095Y1275D02*
X27095Y3875D01*
X27595Y3875D01*
X27095Y3875D02*
X18245Y3875D01*
X17745Y3375D01*
X17495Y3025D01*
X16970Y3082D02*
X16960Y3082D01*
X16960Y3025D02*
X16495Y3025D01*
X16395Y3525D01*
X15595Y4325D01*
X15595Y7325D01*
X3745Y7325D01*
X3245Y6825D01*
X2995Y6725D01*
X2745Y6625D01*
X2595Y6625D01*
X1395Y5425D01*
X845Y5275D01*
X1670Y5275D01*
X1670Y5316D01*
X1657Y5398D01*
X1632Y5477D01*
X1594Y5550D01*
X1545Y5617D01*
X1487Y5675D01*
X1420Y5724D01*
X1386Y5742D01*
X1476Y5779D01*
X1641Y5944D01*
X1730Y6159D01*
X1730Y6391D01*
X1641Y6606D01*
X1476Y6771D01*
X1467Y6775D01*
X1476Y6779D01*
X1641Y6944D01*
X1730Y7159D01*
X1730Y7391D01*
X1641Y7606D01*
X1532Y7715D01*
X14870Y7715D01*
X15003Y7660D01*
X15187Y7660D01*
X15358Y7731D01*
X15489Y7862D01*
X15560Y8033D01*
X15560Y8217D01*
X15518Y8320D01*
X15532Y8320D01*
X15604Y8331D01*
X15673Y8354D01*
X15739Y8387D01*
X15798Y8430D01*
X15850Y8482D01*
X15893Y8541D01*
X15926Y8607D01*
X15949Y8676D01*
X15960Y8748D01*
X15960Y9025D01*
X15960Y9302D01*
X15949Y9374D01*
X15926Y9443D01*
X15893Y9509D01*
X15850Y9568D01*
X15798Y9620D01*
X15739Y9663D01*
X15673Y9696D01*
X15604Y9719D01*
X15532Y9730D01*
X15495Y9730D01*
X15495Y9025D01*
X15595Y8525D01*
X15595Y7325D01*
X15431Y7803D02*
X20037Y7803D01*
X20285Y7555D02*
X1662Y7555D01*
X1730Y7306D02*
X20534Y7306D01*
X20782Y7058D02*
X4447Y7058D01*
X4550Y6955D02*
X4225Y7280D01*
X3765Y7280D01*
X3453Y6967D01*
X3200Y7220D01*
X2995Y7220D01*
X2995Y6725D01*
X2995Y6725D01*
X2995Y6725D01*
X2500Y6725D01*
X2500Y6930D01*
X2790Y7220D01*
X2995Y7220D01*
X2995Y6725D01*
X2500Y6725D01*
X2500Y6520D01*
X2753Y6267D01*
X2535Y6050D01*
X2437Y6090D01*
X2253Y6090D01*
X2082Y6019D01*
X1951Y5888D01*
X1880Y5717D01*
X1880Y5533D01*
X1935Y5400D01*
X1935Y3500D01*
X1880Y3367D01*
X1880Y3183D01*
X1951Y3012D01*
X2082Y2881D01*
X2145Y2855D01*
X2011Y2721D01*
X2009Y2720D01*
X1953Y2663D01*
X1940Y2650D01*
X1928Y2650D01*
X1620Y2342D01*
X1620Y2080D01*
X792Y1251D01*
X789Y1250D01*
X678Y1250D01*
X370Y942D01*
X370Y508D01*
X553Y325D01*
X326Y325D01*
X326Y3797D01*
X343Y3788D01*
X422Y3763D01*
X504Y3750D01*
X845Y3750D01*
X1186Y3750D01*
X1268Y3763D01*
X1347Y3788D01*
X1420Y3826D01*
X1487Y3875D01*
X1545Y3933D01*
X1594Y4000D01*
X1632Y4073D01*
X1657Y4152D01*
X1670Y4234D01*
X1670Y4275D01*
X1670Y4316D01*
X1657Y4398D01*
X1632Y4477D01*
X1594Y4550D01*
X1545Y4617D01*
X1487Y4675D01*
X1420Y4724D01*
X1347Y4762D01*
X1305Y4775D01*
X1347Y4788D01*
X1420Y4826D01*
X1487Y4875D01*
X1545Y4933D01*
X1594Y5000D01*
X1632Y5073D01*
X1657Y5152D01*
X1670Y5234D01*
X1670Y5275D01*
X845Y5275D01*
X845Y5275D01*
X845Y4800D01*
X845Y4275D01*
X1670Y4275D01*
X845Y4275D01*
X845Y4275D01*
X845Y4275D01*
X845Y3750D01*
X845Y4275D01*
X845Y4275D01*
X845Y5275D01*
X845Y5275D01*
X845Y5070D02*
X845Y5070D01*
X845Y4821D02*
X845Y4821D01*
X1411Y4821D02*
X1935Y4821D01*
X1935Y4573D02*
X1578Y4573D01*
X1669Y4324D02*
X1935Y4324D01*
X1935Y4076D02*
X1632Y4076D01*
X1422Y3827D02*
X1935Y3827D01*
X1935Y3579D02*
X326Y3579D01*
X326Y3330D02*
X1880Y3330D01*
X1922Y3082D02*
X1196Y3082D01*
X1088Y3190D02*
X895Y3190D01*
X895Y2725D01*
X895Y2725D01*
X1360Y2725D01*
X1360Y2918D01*
X1088Y3190D01*
X895Y3190D02*
X702Y3190D01*
X430Y2918D01*
X430Y2725D01*
X895Y2725D01*
X895Y2725D01*
X895Y2725D01*
X895Y3190D01*
X895Y3082D02*
X895Y3082D01*
X594Y3082D02*
X326Y3082D01*
X326Y2833D02*
X430Y2833D01*
X430Y2725D02*
X430Y2532D01*
X702Y2260D01*
X895Y2260D01*
X1088Y2260D01*
X1360Y2532D01*
X1360Y2725D01*
X895Y2725D01*
X895Y2260D01*
X895Y2725D01*
X895Y2725D01*
X430Y2725D01*
X430Y2585D02*
X326Y2585D01*
X895Y2585D02*
X895Y2585D01*
X1360Y2585D02*
X1862Y2585D01*
X2245Y2375D02*
X2145Y2125D01*
X2045Y1925D01*
X1045Y925D01*
X895Y725D01*
X1420Y720D02*
X1420Y508D01*
X1237Y325D01*
X6068Y325D01*
X5999Y394D01*
X5910Y609D01*
X5910Y648D01*
X5712Y450D01*
X5278Y450D01*
X4970Y758D01*
X4970Y1020D01*
X4960Y1030D01*
X4960Y975D01*
X4495Y975D01*
X4495Y975D01*
X4495Y975D01*
X4495Y1440D01*
X4550Y1440D01*
X4390Y1600D01*
X4078Y1600D01*
X3770Y1908D01*
X3770Y2342D01*
X3993Y2565D01*
X3447Y2565D01*
X3670Y2342D01*
X3670Y1908D01*
X3405Y1643D01*
X3405Y1227D01*
X3405Y1207D01*
X3420Y1192D01*
X3420Y758D01*
X3112Y450D01*
X2678Y450D01*
X2370Y758D01*
X2370Y1192D01*
X2585Y1407D01*
X2585Y1823D01*
X2362Y1600D01*
X2300Y1600D01*
X2114Y1414D01*
X2360Y1168D01*
X2360Y975D01*
X1895Y975D01*
X1895Y975D01*
X2360Y975D01*
X2360Y782D01*
X2088Y510D01*
X1895Y510D01*
X1895Y975D01*
X1895Y975D01*
X1895Y510D01*
X1702Y510D01*
X1456Y756D01*
X1420Y720D01*
X1420Y597D02*
X1616Y597D01*
X1895Y597D02*
X1895Y597D01*
X2174Y597D02*
X2531Y597D01*
X2370Y845D02*
X2360Y845D01*
X1895Y845D02*
X1895Y845D01*
X2360Y1094D02*
X2370Y1094D01*
X2520Y1342D02*
X2185Y1342D01*
X2291Y1591D02*
X2585Y1591D01*
X2995Y1925D02*
X2995Y1225D01*
X2895Y975D01*
X3420Y1094D02*
X4030Y1094D01*
X4030Y1168D02*
X4030Y975D01*
X4495Y975D01*
X4960Y975D01*
X4960Y782D01*
X4688Y510D01*
X4495Y510D01*
X4495Y975D01*
X4495Y975D01*
X4495Y975D01*
X4495Y1440D01*
X4302Y1440D01*
X4030Y1168D01*
X4030Y975D02*
X4030Y782D01*
X4302Y510D01*
X4495Y510D01*
X4495Y975D01*
X4030Y975D01*
X4030Y845D02*
X3420Y845D01*
X3259Y597D02*
X4216Y597D01*
X4495Y597D02*
X4495Y597D01*
X4774Y597D02*
X5131Y597D01*
X4970Y845D02*
X4960Y845D01*
X4495Y845D02*
X4495Y845D01*
X4495Y1094D02*
X4495Y1094D01*
X4495Y1342D02*
X4495Y1342D01*
X4205Y1342D02*
X3405Y1342D01*
X3405Y1591D02*
X4399Y1591D01*
X3838Y1839D02*
X3602Y1839D01*
X3145Y2125D02*
X2995Y1925D01*
X3670Y2088D02*
X3770Y2088D01*
X3770Y2336D02*
X3670Y2336D01*
X4295Y2125D02*
X4545Y2025D01*
X5395Y1175D01*
X5495Y975D01*
X6495Y1025D02*
X6495Y3025D01*
X6245Y2925D01*
X5545Y2225D01*
X5295Y2125D01*
X5295Y2875D02*
X4895Y2875D01*
X4795Y2975D01*
X2995Y2975D01*
X2895Y3025D01*
X2245Y2375D01*
X1620Y2336D02*
X1164Y2336D01*
X895Y2336D02*
X895Y2336D01*
X626Y2336D02*
X326Y2336D01*
X326Y2088D02*
X1620Y2088D01*
X1379Y1839D02*
X326Y1839D01*
X326Y1591D02*
X1131Y1591D01*
X882Y1342D02*
X326Y1342D01*
X326Y1094D02*
X521Y1094D01*
X370Y845D02*
X326Y845D01*
X326Y597D02*
X370Y597D01*
X326Y348D02*
X529Y348D01*
X1261Y348D02*
X6044Y348D01*
X5915Y597D02*
X5859Y597D01*
X7495Y1025D02*
X7495Y3025D01*
X8495Y3025D02*
X8495Y1025D01*
X9495Y1025D02*
X9495Y3025D01*
X10495Y3025D02*
X10495Y1025D01*
X11495Y1025D02*
X11495Y3025D01*
X12495Y3025D02*
X12495Y1025D01*
X13495Y1025D02*
X13495Y3025D01*
X14495Y3025D02*
X14495Y1025D01*
X15495Y1025D02*
X16495Y1025D01*
X15495Y1025D02*
X15495Y3025D01*
X15245Y3375D01*
X14745Y3875D01*
X6295Y3875D01*
X5295Y2875D01*
X5095Y3375D02*
X8295Y6575D01*
X8760Y6561D02*
X15873Y6561D01*
X15851Y6538D02*
X15780Y6367D01*
X15780Y6183D01*
X15851Y6012D01*
X15982Y5881D01*
X16153Y5810D01*
X16337Y5810D01*
X16470Y5865D01*
X16980Y5865D01*
X16980Y5683D01*
X17051Y5512D01*
X17182Y5381D01*
X17353Y5310D01*
X17537Y5310D01*
X17670Y5365D01*
X18712Y5365D01*
X20208Y4285D01*
X18163Y4285D01*
X18013Y4223D01*
X17897Y4107D01*
X17580Y3790D01*
X17391Y3790D01*
X17198Y3710D01*
X17050Y3562D01*
X16970Y3369D01*
X16970Y2681D01*
X17050Y2488D01*
X17198Y2340D01*
X17391Y2260D01*
X17599Y2260D01*
X17792Y2340D01*
X17940Y2488D01*
X17995Y2620D01*
X18050Y2488D01*
X18198Y2340D01*
X18391Y2260D01*
X18599Y2260D01*
X18792Y2340D01*
X18940Y2488D01*
X18995Y2620D01*
X19050Y2488D01*
X19085Y2453D01*
X19085Y1742D01*
X18999Y1656D01*
X18962Y1566D01*
X18944Y1600D01*
X18895Y1667D01*
X18837Y1725D01*
X18770Y1774D01*
X18697Y1812D01*
X18618Y1837D01*
X18536Y1850D01*
X18495Y1850D01*
X18495Y1025D01*
X18495Y1025D01*
X18495Y1025D01*
X17495Y1025D01*
X17545Y1575D01*
X16595Y2525D01*
X16495Y3025D01*
X16495Y3025D01*
X16495Y3025D01*
X16495Y3730D01*
X16532Y3730D01*
X16604Y3719D01*
X16673Y3696D01*
X16739Y3663D01*
X16798Y3620D01*
X16850Y3568D01*
X16893Y3509D01*
X16926Y3443D01*
X16949Y3374D01*
X16960Y3302D01*
X16960Y3025D01*
X16495Y3025D01*
X16495Y2320D01*
X16532Y2320D01*
X16604Y2331D01*
X16673Y2354D01*
X16739Y2387D01*
X16798Y2430D01*
X16850Y2482D01*
X16893Y2541D01*
X16926Y2607D01*
X16949Y2676D01*
X16960Y2748D01*
X16960Y3025D01*
X16960Y2833D02*
X16970Y2833D01*
X17010Y2585D02*
X16915Y2585D01*
X16495Y2585D02*
X16495Y2585D01*
X16386Y2331D02*
X16317Y2354D01*
X16251Y2387D01*
X16192Y2430D01*
X16140Y2482D01*
X16097Y2541D01*
X16064Y2607D01*
X16041Y2676D01*
X16030Y2748D01*
X16030Y3025D01*
X16495Y3025D01*
X16495Y3025D01*
X16495Y3025D01*
X16495Y3730D01*
X16458Y3730D01*
X16386Y3719D01*
X16317Y3696D01*
X16251Y3663D01*
X16192Y3620D01*
X16140Y3568D01*
X16097Y3509D01*
X16064Y3443D01*
X16041Y3374D01*
X16030Y3302D01*
X16030Y3025D01*
X16495Y3025D01*
X16495Y2320D01*
X16458Y2320D01*
X16386Y2331D01*
X16371Y2336D02*
X15905Y2336D01*
X15905Y2453D02*
X15940Y2488D01*
X16020Y2681D01*
X16020Y3369D01*
X15940Y3562D01*
X15792Y3710D01*
X15599Y3790D01*
X15410Y3790D01*
X14977Y4223D01*
X14827Y4285D01*
X6585Y4285D01*
X8426Y6126D01*
X8558Y6181D01*
X8689Y6312D01*
X8760Y6483D01*
X8760Y6667D01*
X8689Y6838D01*
X8558Y6969D01*
X8387Y7040D01*
X8203Y7040D01*
X8032Y6969D01*
X7901Y6838D01*
X7846Y6706D01*
X4964Y3824D01*
X4832Y3769D01*
X4701Y3638D01*
X4630Y3467D01*
X4630Y3385D01*
X3305Y3385D01*
X3305Y4250D01*
X3495Y4440D01*
X3765Y4170D01*
X4225Y4170D01*
X4550Y4495D01*
X4550Y4955D01*
X4280Y5225D01*
X4550Y5495D01*
X4550Y5955D01*
X4280Y6225D01*
X4550Y6495D01*
X4550Y6955D01*
X4550Y6809D02*
X7889Y6809D01*
X7701Y6561D02*
X4550Y6561D01*
X4367Y6312D02*
X7452Y6312D01*
X7204Y6064D02*
X4441Y6064D01*
X4550Y5815D02*
X6955Y5815D01*
X6707Y5567D02*
X4550Y5567D01*
X4373Y5318D02*
X6458Y5318D01*
X6210Y5070D02*
X4435Y5070D01*
X4550Y4821D02*
X5961Y4821D01*
X5713Y4573D02*
X4550Y4573D01*
X4379Y4324D02*
X5464Y4324D01*
X5216Y4076D02*
X3305Y4076D01*
X3379Y4324D02*
X3611Y4324D01*
X2895Y4475D02*
X2995Y4725D01*
X2895Y4475D02*
X2895Y3025D01*
X2345Y3275D02*
X2345Y5625D01*
X1921Y5815D02*
X1513Y5815D01*
X1582Y5567D02*
X1880Y5567D01*
X1935Y5318D02*
X1670Y5318D01*
X1630Y5070D02*
X1935Y5070D01*
X845Y4573D02*
X845Y4573D01*
X845Y4324D02*
X845Y4324D01*
X845Y4076D02*
X845Y4076D01*
X845Y3827D02*
X845Y3827D01*
X3305Y3827D02*
X4967Y3827D01*
X4676Y3579D02*
X3305Y3579D01*
X2123Y2833D02*
X1360Y2833D01*
X895Y2833D02*
X895Y2833D01*
X6624Y4324D02*
X20153Y4324D01*
X20645Y4475D02*
X18845Y5775D01*
X17445Y5775D01*
X16980Y5815D02*
X16350Y5815D01*
X16140Y5815D02*
X8115Y5815D01*
X7867Y5567D02*
X17028Y5567D01*
X17332Y5318D02*
X7618Y5318D01*
X7370Y5070D02*
X19121Y5070D01*
X18777Y5318D02*
X17558Y5318D01*
X19465Y4821D02*
X7121Y4821D01*
X6873Y4573D02*
X19809Y4573D01*
X17866Y4076D02*
X15124Y4076D01*
X15373Y3827D02*
X17617Y3827D01*
X17066Y3579D02*
X16839Y3579D01*
X16495Y3579D02*
X16495Y3579D01*
X16151Y3579D02*
X15924Y3579D01*
X16020Y3330D02*
X16035Y3330D01*
X16020Y3082D02*
X16030Y3082D01*
X16495Y3082D02*
X16495Y3082D01*
X16495Y3330D02*
X16495Y3330D01*
X16955Y3330D02*
X16970Y3330D01*
X16495Y2833D02*
X16495Y2833D01*
X16030Y2833D02*
X16020Y2833D01*
X15980Y2585D02*
X16075Y2585D01*
X15905Y2453D02*
X15905Y1742D01*
X15991Y1656D01*
X15995Y1647D01*
X15999Y1656D01*
X16164Y1821D01*
X16379Y1910D01*
X16611Y1910D01*
X16826Y1821D01*
X16991Y1656D01*
X17028Y1566D01*
X17046Y1600D01*
X17095Y1667D01*
X17153Y1725D01*
X17220Y1774D01*
X17293Y1812D01*
X17372Y1837D01*
X17454Y1850D01*
X17495Y1850D01*
X17495Y1025D01*
X17495Y1025D01*
X17495Y1025D01*
X17970Y1025D01*
X18495Y1025D01*
X18495Y1850D01*
X18454Y1850D01*
X18372Y1837D01*
X18293Y1812D01*
X18220Y1774D01*
X18153Y1725D01*
X18095Y1667D01*
X18046Y1600D01*
X18008Y1527D01*
X17995Y1485D01*
X17982Y1527D01*
X17944Y1600D01*
X17895Y1667D01*
X17837Y1725D01*
X17770Y1774D01*
X17697Y1812D01*
X17618Y1837D01*
X17536Y1850D01*
X17495Y1850D01*
X17495Y1025D01*
X17495Y1094D02*
X17495Y1094D01*
X17495Y1342D02*
X17495Y1342D01*
X17495Y1591D02*
X17495Y1591D01*
X17041Y1591D02*
X17018Y1591D01*
X16782Y1839D02*
X17386Y1839D01*
X17495Y1839D02*
X17495Y1839D01*
X17604Y1839D02*
X18386Y1839D01*
X18495Y1839D02*
X18495Y1839D01*
X18604Y1839D02*
X19085Y1839D01*
X19085Y2088D02*
X15905Y2088D01*
X16495Y2336D02*
X16495Y2336D01*
X16619Y2336D02*
X17206Y2336D01*
X17784Y2336D02*
X18206Y2336D01*
X18010Y2585D02*
X17980Y2585D01*
X18784Y2336D02*
X19085Y2336D01*
X19010Y2585D02*
X18980Y2585D01*
X19495Y3025D02*
X19495Y1025D01*
X18495Y1094D02*
X18495Y1094D01*
X18495Y1342D02*
X18495Y1342D01*
X18495Y1591D02*
X18495Y1591D01*
X18041Y1591D02*
X17949Y1591D01*
X18949Y1591D02*
X18972Y1591D01*
X20495Y1025D02*
X20495Y3025D01*
X21495Y3025D02*
X21495Y1025D01*
X22495Y1025D02*
X22495Y3025D01*
X23495Y3025D02*
X23495Y1025D01*
X24495Y1025D02*
X24495Y3025D01*
X25495Y3025D02*
X25495Y1025D01*
X26018Y1591D02*
X26668Y1591D01*
X26685Y1839D02*
X25905Y1839D01*
X25905Y2088D02*
X26685Y2088D01*
X26685Y2336D02*
X25905Y2336D01*
X25980Y2585D02*
X26685Y2585D01*
X26685Y2833D02*
X26020Y2833D01*
X26020Y3082D02*
X26685Y3082D01*
X26685Y3330D02*
X26020Y3330D01*
X27505Y1839D02*
X32791Y1839D01*
X32791Y1591D02*
X32624Y1423D01*
X33611Y1591D02*
X34376Y1591D01*
X34295Y1342D02*
X33700Y1342D01*
X33760Y1094D02*
X34321Y1094D01*
X34895Y1275D02*
X36545Y1275D01*
X36895Y825D01*
X37245Y825D01*
X38445Y2025D01*
X38445Y2056D01*
X37601Y2900D01*
X37601Y6469D01*
X36901Y7169D01*
X35739Y7169D01*
X35295Y6725D01*
X34576Y6725D01*
X34101Y7300D01*
X34101Y8400D01*
X33301Y9200D01*
X32601Y9200D01*
X32001Y9800D01*
X32001Y10079D01*
X32022Y10099D01*
X30451Y10103D02*
X30495Y9425D01*
X30495Y8975D01*
X32195Y7375D01*
X32195Y5525D01*
X31245Y5625D01*
X31095Y5675D01*
X32195Y5525D02*
X32626Y5525D01*
X32551Y5500D01*
X33245Y5875D01*
X33745Y6175D01*
X35745Y6275D01*
X36501Y6200D02*
X36501Y6419D01*
X36495Y6525D01*
X36501Y6200D02*
X36101Y5500D01*
X33801Y5500D01*
X33176Y5075D01*
X33145Y5075D01*
X33706Y4821D02*
X34355Y4821D01*
X34355Y4573D02*
X33513Y4573D01*
X33057Y4324D02*
X34582Y4324D01*
X35208Y4324D02*
X37191Y4324D01*
X37191Y4573D02*
X35435Y4573D01*
X35435Y4821D02*
X37191Y4821D01*
X37191Y5070D02*
X35364Y5070D01*
X34426Y5070D02*
X33898Y5070D01*
X32576Y4225D02*
X32101Y4700D01*
X31120Y4700D01*
X31095Y4675D01*
X31479Y4076D02*
X32145Y4076D01*
X32576Y4225D02*
X32595Y4225D01*
X33037Y4076D02*
X34097Y4076D01*
X33849Y3827D02*
X32850Y3827D01*
X32340Y3827D02*
X31650Y3827D01*
X31650Y3579D02*
X33600Y3579D01*
X33352Y3330D02*
X31535Y3330D01*
X31388Y3082D02*
X33103Y3082D01*
X32855Y2833D02*
X31590Y2833D01*
X33201Y2600D02*
X34376Y3775D01*
X34895Y3775D01*
X36895Y3775D01*
X36597Y3330D02*
X35299Y3330D01*
X34263Y3082D02*
X36494Y3082D01*
X36430Y2833D02*
X34015Y2833D01*
X33766Y2585D02*
X34441Y2585D01*
X34895Y2585D02*
X34895Y2585D01*
X35349Y2585D02*
X36478Y2585D01*
X36430Y2632D02*
X36702Y2360D01*
X36895Y2360D01*
X36895Y2825D01*
X36895Y2825D01*
X36895Y2825D01*
X36430Y2825D01*
X36430Y2632D01*
X36895Y2585D02*
X36895Y2585D01*
X37312Y2585D02*
X37336Y2585D01*
X37585Y2336D02*
X35435Y2336D01*
X35435Y2088D02*
X37833Y2088D01*
X37679Y1839D02*
X35223Y1839D01*
X34567Y1839D02*
X33611Y1839D01*
X33611Y2088D02*
X34355Y2088D01*
X34355Y2336D02*
X33611Y2336D01*
X34895Y2336D02*
X34895Y2336D01*
X37120Y1342D02*
X37182Y1342D01*
X38094Y1094D02*
X39246Y1094D01*
X39246Y1342D02*
X38342Y1342D01*
X38831Y1591D02*
X39246Y1591D01*
X39246Y1839D02*
X38996Y1839D01*
X39025Y2088D02*
X39246Y2088D01*
X39246Y2336D02*
X38944Y2336D01*
X38724Y2585D02*
X39246Y2585D01*
X39246Y2833D02*
X38930Y2833D01*
X38965Y3025D02*
X38445Y3025D01*
X38965Y3025D01*
X38963Y3082D02*
X39246Y3082D01*
X39246Y3330D02*
X38866Y3330D01*
X38986Y3579D02*
X39246Y3579D01*
X39246Y3827D02*
X39025Y3827D01*
X39025Y4076D02*
X39246Y4076D01*
X39246Y4324D02*
X39025Y4324D01*
X38875Y4573D02*
X39246Y4573D01*
X39246Y4821D02*
X38011Y4821D01*
X38011Y4573D02*
X38015Y4573D01*
X38011Y5070D02*
X39246Y5070D01*
X39246Y5318D02*
X38011Y5318D01*
X38011Y5567D02*
X39246Y5567D01*
X39246Y5815D02*
X38011Y5815D01*
X38011Y6064D02*
X39246Y6064D01*
X39246Y6312D02*
X38011Y6312D01*
X38007Y6561D02*
X39246Y6561D01*
X39246Y6809D02*
X37841Y6809D01*
X37592Y7058D02*
X39246Y7058D01*
X39246Y7306D02*
X37344Y7306D01*
X37041Y7555D02*
X39246Y7555D01*
X39246Y7803D02*
X35560Y7803D01*
X35560Y7645D02*
X35035Y7645D01*
X35035Y7645D01*
X35560Y7645D01*
X35560Y7555D02*
X35599Y7555D01*
X34511Y7995D02*
X34511Y8481D01*
X34449Y8632D01*
X33649Y9432D01*
X33629Y9452D01*
X33751Y9574D01*
X33840Y9789D01*
X33840Y10621D01*
X33751Y10836D01*
X33722Y10865D01*
X34653Y10865D01*
X34635Y10847D01*
X34586Y10780D01*
X34548Y10707D01*
X34523Y10628D01*
X34510Y10546D01*
X34510Y10205D01*
X35035Y10205D01*
X35560Y10205D01*
X35560Y10546D01*
X35557Y10564D01*
X35591Y10530D01*
X35591Y9947D01*
X35560Y9929D01*
X35560Y10205D01*
X35035Y10205D01*
X35035Y10205D01*
X35035Y10205D01*
X34510Y10205D01*
X34510Y9864D01*
X34523Y9782D01*
X34548Y9703D01*
X34586Y9630D01*
X34635Y9563D01*
X34693Y9505D01*
X34760Y9456D01*
X34833Y9418D01*
X34912Y9393D01*
X34994Y9380D01*
X35027Y9380D01*
X35012Y9355D01*
X34936Y9072D01*
X34936Y8778D01*
X35012Y8495D01*
X35027Y8470D01*
X34994Y8470D01*
X34912Y8457D01*
X34833Y8432D01*
X34760Y8394D01*
X34693Y8345D01*
X34635Y8287D01*
X34586Y8220D01*
X34548Y8147D01*
X34523Y8068D01*
X34511Y7995D01*
X34511Y8052D02*
X34520Y8052D01*
X34511Y8300D02*
X34648Y8300D01*
X34483Y8549D02*
X34998Y8549D01*
X34936Y8797D02*
X34284Y8797D01*
X34035Y9046D02*
X34936Y9046D01*
X34996Y9294D02*
X33787Y9294D01*
X33720Y9543D02*
X34655Y9543D01*
X34521Y9791D02*
X33840Y9791D01*
X33840Y10040D02*
X34510Y10040D01*
X34510Y10288D02*
X33840Y10288D01*
X33840Y10537D02*
X34510Y10537D01*
X34590Y10785D02*
X33772Y10785D01*
X35560Y10537D02*
X35584Y10537D01*
X36001Y10700D02*
X36001Y8975D01*
X36051Y8925D01*
X37107Y9294D02*
X37425Y9294D01*
X37166Y9046D02*
X38288Y9046D01*
X38289Y9294D02*
X38539Y9294D01*
X38539Y9543D02*
X38289Y9543D01*
X37557Y9543D02*
X36982Y9543D01*
X36871Y9791D02*
X36762Y9791D01*
X36450Y10040D02*
X36411Y10040D01*
X35591Y10040D02*
X35560Y10040D01*
X35560Y10288D02*
X35591Y10288D01*
X37554Y9791D02*
X37809Y9791D01*
X38289Y9791D02*
X38539Y9791D01*
X39018Y9791D02*
X39246Y9791D01*
X39246Y10040D02*
X37975Y10040D01*
X38173Y10288D02*
X39246Y10288D01*
X38539Y8797D02*
X38289Y8797D01*
X38289Y8549D02*
X38539Y8549D01*
X38539Y8300D02*
X38289Y8300D01*
X38289Y8052D02*
X38539Y8052D01*
X39007Y8052D02*
X39246Y8052D01*
X37820Y8052D02*
X36755Y8052D01*
X36978Y8300D02*
X37562Y8300D01*
X37427Y8549D02*
X37105Y8549D01*
X37166Y8797D02*
X37366Y8797D01*
X33255Y7645D02*
X33245Y7275D01*
X33245Y6525D01*
X32745Y6275D01*
X31701Y6331D02*
X31595Y6225D01*
X31701Y6331D02*
X31701Y6900D01*
X31326Y7275D01*
X30045Y7275D01*
X26745Y10575D01*
X27095Y9175D02*
X25845Y7225D01*
X27095Y7775D02*
X27195Y7725D01*
X27595Y7325D01*
X27595Y5775D01*
X28005Y6107D02*
X28005Y7310D01*
X28095Y7310D01*
X28288Y7310D01*
X28560Y7582D01*
X28560Y7775D01*
X28560Y7968D01*
X28288Y8240D01*
X28095Y8240D01*
X28095Y7775D01*
X28095Y7775D01*
X28560Y7775D01*
X28095Y7775D01*
X28095Y7775D01*
X28095Y8240D01*
X27902Y8240D01*
X27630Y7968D01*
X27630Y7870D01*
X27620Y7880D01*
X27620Y7992D01*
X27312Y8300D01*
X27021Y8300D01*
X27319Y8764D01*
X27358Y8781D01*
X27489Y8912D01*
X27560Y9083D01*
X27560Y9180D01*
X29688Y7053D01*
X29620Y6985D01*
X29313Y6985D01*
X29163Y6923D01*
X28120Y5880D01*
X28040Y6072D01*
X28005Y6107D01*
X28044Y6064D02*
X28304Y6064D01*
X28552Y6312D02*
X28005Y6312D01*
X28005Y6561D02*
X28801Y6561D01*
X29049Y6809D02*
X28005Y6809D01*
X28005Y7058D02*
X29682Y7058D01*
X29434Y7306D02*
X28005Y7306D01*
X28095Y7310D02*
X28095Y7775D01*
X28095Y7310D01*
X28095Y7555D02*
X28095Y7555D01*
X28532Y7555D02*
X29185Y7555D01*
X28937Y7803D02*
X28560Y7803D01*
X28476Y8052D02*
X28688Y8052D01*
X28440Y8300D02*
X27021Y8300D01*
X27561Y8052D02*
X27714Y8052D01*
X28095Y8052D02*
X28095Y8052D01*
X28095Y7803D02*
X28095Y7803D01*
X28095Y7775D02*
X28095Y7775D01*
X28191Y8549D02*
X27181Y8549D01*
X27375Y8797D02*
X27943Y8797D01*
X27694Y9046D02*
X27545Y9046D01*
X26195Y5225D02*
X22745Y8675D01*
X20745Y8675D02*
X20495Y9025D01*
X20495Y11025D01*
X19495Y11025D02*
X19495Y9025D01*
X19745Y8675D01*
X22545Y5875D01*
X23695Y5875D01*
X23345Y6375D02*
X23045Y6375D01*
X20745Y8675D01*
X19580Y8260D02*
X19391Y8260D01*
X19198Y8340D01*
X19050Y8488D01*
X18995Y8620D01*
X18940Y8488D01*
X18792Y8340D01*
X18599Y8260D01*
X18391Y8260D01*
X18198Y8340D01*
X18050Y8488D01*
X17995Y8620D01*
X17940Y8488D01*
X17792Y8340D01*
X17599Y8260D01*
X17391Y8260D01*
X17198Y8340D01*
X17050Y8488D01*
X16995Y8620D01*
X16940Y8488D01*
X16792Y8340D01*
X16599Y8260D01*
X16391Y8260D01*
X16198Y8340D01*
X16050Y8488D01*
X15970Y8681D01*
X15970Y9369D01*
X16050Y9562D01*
X16085Y9597D01*
X16085Y10308D01*
X15999Y10394D01*
X15962Y10484D01*
X15944Y10450D01*
X15895Y10383D01*
X15837Y10325D01*
X15770Y10276D01*
X15697Y10238D01*
X15618Y10213D01*
X15536Y10200D01*
X15495Y10200D01*
X15495Y11025D01*
X15495Y9025D01*
X15960Y9025D01*
X15495Y9025D01*
X15495Y9025D01*
X15495Y9025D01*
X15495Y9025D01*
X15030Y9025D01*
X15030Y9302D01*
X15041Y9374D01*
X15064Y9443D01*
X15097Y9509D01*
X15140Y9568D01*
X15192Y9620D01*
X15251Y9663D01*
X15317Y9696D01*
X15386Y9719D01*
X15458Y9730D01*
X15495Y9730D01*
X15495Y9025D01*
X15030Y9025D01*
X15030Y8748D01*
X15041Y8676D01*
X15064Y8607D01*
X15072Y8590D01*
X15003Y8590D01*
X14978Y8580D01*
X15020Y8681D01*
X15020Y9369D01*
X14940Y9562D01*
X14905Y9597D01*
X14905Y10308D01*
X14991Y10394D01*
X15028Y10484D01*
X15046Y10450D01*
X15095Y10383D01*
X15153Y10325D01*
X15220Y10276D01*
X15293Y10238D01*
X15372Y10213D01*
X15454Y10200D01*
X15495Y10200D01*
X15495Y11025D01*
X15495Y11025D01*
X15495Y10785D02*
X15495Y10785D01*
X15495Y10537D02*
X15495Y10537D01*
X15495Y10288D02*
X15495Y10288D01*
X15787Y10288D02*
X16085Y10288D01*
X16085Y10040D02*
X14905Y10040D01*
X14905Y10288D02*
X15203Y10288D01*
X14905Y9791D02*
X16085Y9791D01*
X16042Y9543D02*
X15868Y9543D01*
X15495Y9543D02*
X15495Y9543D01*
X15122Y9543D02*
X14948Y9543D01*
X15020Y9294D02*
X15030Y9294D01*
X15020Y9046D02*
X15030Y9046D01*
X15495Y9046D02*
X15495Y9046D01*
X15495Y9294D02*
X15495Y9294D01*
X15960Y9294D02*
X15970Y9294D01*
X15960Y9046D02*
X15970Y9046D01*
X16495Y9025D02*
X16495Y11025D01*
X17495Y11025D02*
X17495Y9025D01*
X18495Y9025D02*
X18495Y11025D01*
X14495Y11025D02*
X14495Y9025D01*
X15020Y8797D02*
X15030Y8797D01*
X15897Y8549D02*
X16025Y8549D01*
X15970Y8797D02*
X15960Y8797D01*
X16965Y8549D02*
X17025Y8549D01*
X17293Y8300D02*
X16697Y8300D01*
X16293Y8300D02*
X15526Y8300D01*
X15560Y8052D02*
X19788Y8052D01*
X19580Y8260D02*
X21155Y6685D01*
X16470Y6685D01*
X16337Y6740D01*
X16153Y6740D01*
X15982Y6669D01*
X15851Y6538D01*
X15780Y6312D02*
X8690Y6312D01*
X8364Y6064D02*
X15829Y6064D01*
X16245Y6275D02*
X21445Y6275D01*
X21795Y5925D01*
X21031Y6809D02*
X8701Y6809D01*
X3543Y7058D02*
X3362Y7058D01*
X2995Y7058D02*
X2995Y7058D01*
X2628Y7058D02*
X1688Y7058D01*
X1507Y6809D02*
X2500Y6809D01*
X2995Y6809D02*
X2995Y6809D01*
X2500Y6561D02*
X1660Y6561D01*
X1730Y6312D02*
X2708Y6312D01*
X2549Y6064D02*
X2501Y6064D01*
X2189Y6064D02*
X1691Y6064D01*
X1395Y8125D02*
X845Y8275D01*
X1395Y8125D02*
X15095Y8125D01*
X17697Y8300D02*
X18293Y8300D01*
X18697Y8300D02*
X19293Y8300D01*
X19025Y8549D02*
X18965Y8549D01*
X18025Y8549D02*
X17965Y8549D01*
X13495Y9025D02*
X13495Y11025D01*
X12495Y11025D02*
X12495Y9025D01*
X11495Y9025D02*
X11495Y11025D01*
X10495Y11025D02*
X10495Y9025D01*
X9495Y9025D02*
X9495Y11025D01*
X8495Y11025D02*
X8495Y9025D01*
X7495Y9025D02*
X7495Y11025D01*
X6495Y11025D02*
X6495Y9025D01*
X4745Y10125D02*
X4245Y9625D01*
X4045Y9475D01*
X4745Y10125D02*
X5195Y10375D01*
X2045Y9475D02*
X1795Y9425D01*
X1395Y9425D01*
X845Y9275D01*
X15905Y1839D02*
X16208Y1839D01*
X25946Y348D02*
X36629Y348D01*
X36381Y597D02*
X33537Y597D01*
X33716Y845D02*
X34476Y845D01*
X35314Y845D02*
X36360Y845D01*
X37597Y597D02*
X39246Y597D01*
X39246Y845D02*
X37845Y845D01*
X37161Y348D02*
X39246Y348D01*
X38445Y3025D02*
X38445Y3025D01*
X37191Y5318D02*
X37096Y5318D01*
X36895Y5318D02*
X36895Y5318D01*
X36895Y5310D02*
X36895Y5775D01*
X36895Y5775D01*
X36895Y5310D01*
X36694Y5318D02*
X36470Y5318D01*
X36895Y5567D02*
X36895Y5567D01*
X30095Y6675D02*
X30045Y6575D01*
X29395Y6575D01*
X28045Y5225D01*
X26195Y5225D01*
X27902Y1740D02*
X27630Y1468D01*
X27630Y1275D01*
X28095Y1275D01*
X28095Y1275D01*
X28095Y1275D01*
X28095Y1740D01*
X27902Y1740D01*
X27753Y1591D02*
X27522Y1591D01*
X28095Y1591D02*
X28095Y1591D01*
X28095Y1342D02*
X28095Y1342D01*
X28095Y1275D02*
X27630Y1275D01*
X27630Y1082D01*
X27902Y810D01*
X28095Y810D01*
X28095Y1275D01*
X28095Y1094D02*
X28095Y1094D01*
X27630Y1094D02*
X27620Y1094D01*
X27620Y1342D02*
X27630Y1342D01*
X27408Y845D02*
X27867Y845D01*
X28095Y845D02*
X28095Y845D01*
D25*
X32595Y4225D03*
X31595Y6225D03*
X36495Y6525D03*
X27095Y9175D03*
X25845Y7225D03*
X23345Y6375D03*
X21795Y5925D03*
X23695Y5875D03*
X20645Y4475D03*
X17445Y5775D03*
X16245Y6275D03*
X15095Y8125D03*
X8295Y6575D03*
X2345Y5625D03*
X5095Y3375D03*
X2345Y3275D03*
D26*
X101Y12502D02*
X101Y24313D01*
X39471Y24313D01*
X39471Y12502D01*
X101Y12502D01*
D27*
X6495Y15187D02*
X6495Y15667D01*
X7495Y15667D02*
X7495Y15187D01*
X8495Y15187D02*
X8495Y15667D01*
X9495Y15667D02*
X9495Y15187D01*
X10495Y15187D02*
X10495Y15667D01*
X11495Y15667D02*
X11495Y15187D01*
X12495Y15187D02*
X12495Y15667D01*
X13495Y15667D02*
X13495Y15187D01*
X14495Y15187D02*
X14495Y15667D01*
X15495Y15667D02*
X15495Y15187D01*
X16495Y15187D02*
X16495Y15667D01*
X17495Y15667D02*
X17495Y15187D01*
X18495Y15187D02*
X18495Y15667D01*
X19495Y15667D02*
X19495Y15187D01*
X20495Y15187D02*
X20495Y15667D01*
X21495Y15667D02*
X21495Y15187D01*
X22495Y15187D02*
X22495Y15667D01*
X23495Y15667D02*
X23495Y15187D01*
X24495Y15187D02*
X24495Y15667D01*
X25495Y15667D02*
X25495Y15187D01*
X25495Y21187D02*
X25495Y21667D01*
X24495Y21667D02*
X24495Y21187D01*
X23495Y21187D02*
X23495Y21667D01*
X22495Y21667D02*
X22495Y21187D01*
X21495Y21187D02*
X21495Y21667D01*
X20495Y21667D02*
X20495Y21187D01*
X19495Y21187D02*
X19495Y21667D01*
X18495Y21667D02*
X18495Y21187D01*
X17495Y21187D02*
X17495Y21667D01*
X16495Y21667D02*
X16495Y21187D01*
X15495Y21187D02*
X15495Y21667D01*
X14495Y21667D02*
X14495Y21187D01*
X13495Y21187D02*
X13495Y21667D01*
X12495Y21667D02*
X12495Y21187D01*
X11495Y21187D02*
X11495Y21667D01*
X10495Y21667D02*
X10495Y21187D01*
X9495Y21187D02*
X9495Y21667D01*
X8495Y21667D02*
X8495Y21187D01*
X7495Y21187D02*
X7495Y21667D01*
X6495Y21667D02*
X6495Y21187D01*
D28*
X4045Y21877D03*
X2045Y21877D03*
X895Y15127D03*
X2145Y14527D03*
X3145Y14527D03*
X4295Y14527D03*
X5295Y14527D03*
X5495Y13377D03*
X4495Y13377D03*
X2895Y13377D03*
X1895Y13377D03*
X895Y13127D03*
X27095Y13677D03*
X28095Y13677D03*
X36895Y13227D03*
X36895Y15227D03*
X36895Y16177D03*
X36895Y18177D03*
X35745Y18677D03*
X32745Y18677D03*
X28095Y20177D03*
X27095Y20177D03*
D29*
X30095Y19077D03*
X31095Y19077D03*
X31095Y18077D03*
X30095Y18077D03*
X30095Y17077D03*
X31095Y17077D03*
X31095Y16077D03*
X30095Y16077D03*
X30095Y15077D03*
X31095Y15077D03*
X3995Y17127D03*
X2995Y17127D03*
X2995Y18127D03*
X3995Y18127D03*
X3995Y19127D03*
X2995Y19127D03*
D30*
X1145Y18677D02*
X545Y18677D01*
X545Y17677D02*
X1145Y17677D01*
X1145Y16677D02*
X545Y16677D01*
X545Y19677D02*
X1145Y19677D01*
X1145Y20677D02*
X545Y20677D01*
X545Y21677D02*
X1145Y21677D01*
X4895Y21777D02*
X5495Y21777D01*
X5495Y22777D02*
X4895Y22777D01*
X6495Y23127D02*
X6495Y23727D01*
X7495Y23727D02*
X7495Y23127D01*
X8495Y23127D02*
X8495Y23727D01*
X9495Y23727D02*
X9495Y23127D01*
X10495Y23127D02*
X10495Y23727D01*
X11495Y23727D02*
X11495Y23127D01*
X12495Y23127D02*
X12495Y23727D01*
X13495Y23727D02*
X13495Y23127D01*
X14495Y23127D02*
X14495Y23727D01*
X15495Y23727D02*
X15495Y23127D01*
X16495Y23127D02*
X16495Y23727D01*
X17495Y23727D02*
X17495Y23127D01*
X18495Y23127D02*
X18495Y23727D01*
X19495Y23727D02*
X19495Y23127D01*
X20495Y23127D02*
X20495Y23727D01*
X21495Y23727D02*
X21495Y23127D01*
X22495Y23127D02*
X22495Y23727D01*
X23495Y23727D02*
X23495Y23127D01*
X24495Y23127D02*
X24495Y23727D01*
X25495Y23727D02*
X25495Y23127D01*
X26495Y23127D02*
X26495Y23727D01*
X27495Y23727D02*
X27495Y23127D01*
X33255Y22907D02*
X33255Y22307D01*
X35035Y22307D02*
X35035Y22907D01*
X35035Y20347D02*
X35035Y19747D01*
X33255Y19747D02*
X33255Y20347D01*
X25495Y13727D02*
X25495Y13127D01*
X24495Y13127D02*
X24495Y13727D01*
X23495Y13727D02*
X23495Y13127D01*
X22495Y13127D02*
X22495Y13727D01*
X21495Y13727D02*
X21495Y13127D01*
X20495Y13127D02*
X20495Y13727D01*
X19495Y13727D02*
X19495Y13127D01*
X18495Y13127D02*
X18495Y13727D01*
X17495Y13727D02*
X17495Y13127D01*
X16495Y13127D02*
X16495Y13727D01*
X15495Y13727D02*
X15495Y13127D01*
X14495Y13127D02*
X14495Y13727D01*
X13495Y13727D02*
X13495Y13127D01*
X12495Y13127D02*
X12495Y13727D01*
X11495Y13727D02*
X11495Y13127D01*
X10495Y13127D02*
X10495Y13727D01*
X9495Y13727D02*
X9495Y13127D01*
X8495Y13127D02*
X8495Y13727D01*
X7495Y13727D02*
X7495Y13127D01*
X6495Y13127D02*
X6495Y13727D01*
D31*
X27595Y16277D03*
X27595Y18177D03*
D32*
X33145Y17477D03*
X33145Y13477D03*
D33*
X38445Y16427D03*
D34*
X38445Y15427D03*
X38445Y14427D03*
D35*
X34895Y14677D03*
X34895Y17177D03*
D36*
X34895Y16177D03*
X34895Y13677D03*
D37*
X32022Y22058D02*
X32022Y22944D01*
X30451Y22948D02*
X30451Y22062D01*
X28880Y22062D02*
X28880Y22948D01*
D38*
X36051Y21327D03*
X38414Y21327D03*
X37213Y23256D03*
D39*
X38282Y22939D02*
X39246Y22939D01*
X39246Y23187D02*
X38328Y23187D01*
X38328Y23109D02*
X38328Y23403D01*
X38252Y23686D01*
X38105Y23941D01*
X37958Y24088D01*
X39246Y24088D01*
X39246Y21975D01*
X39201Y22031D01*
X39118Y22115D01*
X39025Y22189D01*
X38925Y22252D01*
X38818Y22303D01*
X38706Y22342D01*
X38590Y22369D01*
X38539Y22375D01*
X38539Y21452D01*
X38289Y21452D01*
X38289Y22375D01*
X38237Y22369D01*
X38121Y22342D01*
X38009Y22303D01*
X37902Y22252D01*
X37802Y22189D01*
X37709Y22115D01*
X37626Y22031D01*
X37552Y21938D01*
X37489Y21838D01*
X37437Y21731D01*
X37398Y21620D01*
X37372Y21504D01*
X37366Y21452D01*
X38288Y21452D01*
X38288Y21202D01*
X37366Y21202D01*
X37372Y21150D01*
X37398Y21034D01*
X37437Y20923D01*
X37489Y20816D01*
X37552Y20716D01*
X37626Y20623D01*
X37709Y20539D01*
X37802Y20465D01*
X37902Y20402D01*
X38009Y20351D01*
X38121Y20312D01*
X38237Y20285D01*
X38289Y20279D01*
X38289Y21202D01*
X38539Y21202D01*
X38539Y20279D01*
X38590Y20285D01*
X38706Y20312D01*
X38818Y20351D01*
X38925Y20402D01*
X39025Y20465D01*
X39118Y20539D01*
X39201Y20623D01*
X39246Y20679D01*
X39246Y12727D01*
X37137Y12727D01*
X37227Y12817D01*
X37327Y12817D01*
X37477Y12879D01*
X38445Y13847D01*
X38560Y13847D01*
X38774Y13935D01*
X38937Y14098D01*
X39025Y14312D01*
X39025Y14542D01*
X38937Y14756D01*
X38774Y14919D01*
X38675Y14960D01*
X38718Y14982D01*
X38784Y15030D01*
X38842Y15088D01*
X38890Y15154D01*
X38927Y15227D01*
X38952Y15305D01*
X38965Y15386D01*
X38965Y15427D01*
X38965Y15468D01*
X38952Y15549D01*
X38927Y15627D01*
X38890Y15700D01*
X38842Y15766D01*
X38784Y15824D01*
X38752Y15847D01*
X38797Y15847D01*
X38902Y15890D01*
X38982Y15970D01*
X39025Y16075D01*
X39025Y16779D01*
X38982Y16884D01*
X38902Y16964D01*
X38797Y17007D01*
X38093Y17007D01*
X38011Y16973D01*
X38011Y18952D01*
X37949Y19103D01*
X37134Y19918D01*
X36983Y19981D01*
X36820Y19981D01*
X35820Y19981D01*
X35657Y19981D01*
X35560Y19940D01*
X35560Y20047D01*
X35560Y20323D01*
X35621Y20288D01*
X35905Y20212D01*
X36198Y20212D01*
X36482Y20288D01*
X36736Y20435D01*
X36943Y20642D01*
X37090Y20897D01*
X37166Y21180D01*
X37166Y21474D01*
X37090Y21757D01*
X36943Y22012D01*
X36736Y22219D01*
X36482Y22366D01*
X36411Y22385D01*
X36411Y22481D01*
X36528Y22364D01*
X36782Y22217D01*
X37066Y22141D01*
X37359Y22141D01*
X37643Y22217D01*
X37897Y22364D01*
X38105Y22572D01*
X38252Y22826D01*
X38328Y23109D01*
X38319Y23436D02*
X39246Y23436D01*
X39246Y23684D02*
X38252Y23684D01*
X38109Y23933D02*
X39246Y23933D01*
X36001Y23102D02*
X35426Y23677D01*
X27745Y23677D01*
X27495Y23427D01*
X26745Y22977D02*
X26495Y23427D01*
X25495Y23427D02*
X25495Y21427D01*
X24495Y21427D02*
X24495Y23427D01*
X23495Y23427D02*
X23495Y21427D01*
X22745Y21077D02*
X22495Y21427D01*
X22495Y23427D01*
X21495Y23427D02*
X21495Y21427D01*
X21745Y21077D01*
X22195Y20627D01*
X22295Y20627D01*
X25745Y17177D01*
X30045Y17177D01*
X30095Y17077D01*
X29620Y16767D02*
X29810Y16577D01*
X29540Y16307D01*
X29540Y15847D01*
X29810Y15577D01*
X29540Y15307D01*
X29540Y14847D01*
X29865Y14522D01*
X30325Y14522D01*
X30637Y14835D01*
X30890Y14582D01*
X31095Y14582D01*
X31300Y14582D01*
X31590Y14872D01*
X31590Y15077D01*
X31590Y15282D01*
X31337Y15535D01*
X31650Y15847D01*
X31650Y16307D01*
X31380Y16577D01*
X31495Y16692D01*
X31931Y16692D01*
X32159Y16464D01*
X32201Y16364D01*
X32332Y16233D01*
X32503Y16162D01*
X32687Y16162D01*
X32858Y16233D01*
X32989Y16364D01*
X33060Y16535D01*
X33060Y16719D01*
X32996Y16873D01*
X33023Y16862D01*
X33267Y16862D01*
X33493Y16956D01*
X33666Y17129D01*
X33760Y17355D01*
X33760Y17378D01*
X33927Y17492D01*
X34446Y17492D01*
X34355Y17401D01*
X34355Y17177D01*
X34895Y17177D01*
X35435Y17177D01*
X35435Y17401D01*
X35344Y17492D01*
X36075Y17492D01*
X36130Y17485D01*
X36156Y17492D01*
X36183Y17492D01*
X36234Y17513D01*
X36288Y17528D01*
X36309Y17544D01*
X36334Y17554D01*
X36373Y17594D01*
X36417Y17628D01*
X36430Y17651D01*
X36449Y17670D01*
X36470Y17721D01*
X36551Y17863D01*
X36702Y17712D01*
X36895Y17712D01*
X37088Y17712D01*
X37191Y17816D01*
X37191Y16623D01*
X37112Y16702D01*
X36678Y16702D01*
X36563Y16587D01*
X35334Y16587D01*
X35235Y16686D01*
X35187Y16705D01*
X35435Y16953D01*
X35435Y17177D01*
X34895Y17177D01*
X34895Y17177D01*
X34895Y17177D01*
X34355Y17177D01*
X34355Y16953D01*
X34603Y16705D01*
X34555Y16686D01*
X34456Y16587D01*
X34295Y16587D01*
X34144Y16525D01*
X32969Y15349D01*
X32854Y15234D01*
X32791Y15083D01*
X32791Y13993D01*
X28437Y13993D01*
X28560Y13870D02*
X28288Y14142D01*
X28095Y14142D01*
X28095Y13677D01*
X28560Y13677D01*
X28560Y13870D01*
X28560Y13744D02*
X32590Y13744D01*
X32624Y13825D02*
X32530Y13599D01*
X32530Y13355D01*
X32624Y13129D01*
X32797Y12956D01*
X33023Y12862D01*
X33267Y12862D01*
X33493Y12956D01*
X33666Y13129D01*
X33760Y13355D01*
X33760Y13599D01*
X33666Y13825D01*
X33611Y13880D01*
X33611Y14832D01*
X34501Y15722D01*
X34555Y15668D01*
X34776Y15577D01*
X35014Y15577D01*
X35235Y15668D01*
X35334Y15767D01*
X36563Y15767D01*
X36670Y15660D01*
X36430Y15420D01*
X36430Y15227D01*
X36895Y15227D01*
X36895Y14762D01*
X37088Y14762D01*
X37324Y14999D01*
X37369Y14954D01*
X37865Y14459D01*
X37865Y14427D01*
X37151Y13713D01*
X37112Y13752D01*
X37006Y13752D01*
X36903Y13885D01*
X36893Y13909D01*
X36853Y13949D01*
X36819Y13993D01*
X37431Y13993D01*
X36819Y13993D02*
X36796Y14006D01*
X36777Y14025D01*
X36725Y14046D01*
X36677Y14074D01*
X36651Y14077D01*
X36627Y14087D01*
X36571Y14087D01*
X36515Y14094D01*
X36490Y14087D01*
X35334Y14087D01*
X35235Y14186D01*
X35187Y14205D01*
X35435Y14453D01*
X35435Y14677D01*
X35435Y14901D01*
X35119Y15217D01*
X34895Y15217D01*
X34895Y14677D01*
X34895Y14677D01*
X35435Y14677D01*
X34895Y14677D01*
X34895Y14677D01*
X34895Y14677D01*
X34355Y14677D01*
X34355Y14901D01*
X34671Y15217D01*
X34895Y15217D01*
X34895Y14677D01*
X34355Y14677D01*
X34355Y14453D01*
X34603Y14205D01*
X34555Y14186D01*
X34386Y14017D01*
X34295Y13796D01*
X34295Y13558D01*
X34386Y13337D01*
X34555Y13168D01*
X34776Y13077D01*
X35014Y13077D01*
X35235Y13168D01*
X35334Y13267D01*
X36344Y13267D01*
X36370Y13234D01*
X36370Y13010D01*
X36653Y12727D01*
X25922Y12727D01*
X25991Y12796D01*
X26080Y13011D01*
X26080Y13843D01*
X25991Y14058D01*
X25905Y14144D01*
X25905Y14855D01*
X25940Y14890D01*
X26020Y15083D01*
X26020Y15771D01*
X25980Y15867D01*
X26685Y15867D01*
X26685Y14009D01*
X26570Y13894D01*
X26570Y13460D01*
X26878Y13152D01*
X27312Y13152D01*
X27620Y13460D01*
X27620Y13894D01*
X27505Y14009D01*
X27505Y15752D01*
X27699Y15752D01*
X27892Y15832D01*
X28040Y15980D01*
X28120Y16173D01*
X28120Y16381D01*
X28040Y16574D01*
X27892Y16722D01*
X27784Y16767D01*
X29620Y16767D01*
X29661Y16726D02*
X27882Y16726D01*
X28080Y16478D02*
X29711Y16478D01*
X29540Y16229D02*
X28120Y16229D01*
X28041Y15981D02*
X29540Y15981D01*
X29655Y15732D02*
X27505Y15732D01*
X27505Y15484D02*
X29717Y15484D01*
X29540Y15235D02*
X27505Y15235D01*
X27505Y14987D02*
X29540Y14987D01*
X29649Y14738D02*
X27505Y14738D01*
X27505Y14490D02*
X32791Y14490D01*
X32791Y14738D02*
X31456Y14738D01*
X31095Y14738D02*
X31095Y14738D01*
X31095Y14582D02*
X31095Y15077D01*
X31590Y15077D01*
X31095Y15077D01*
X31095Y15077D01*
X31095Y15077D01*
X31095Y14582D01*
X30734Y14738D02*
X30541Y14738D01*
X31095Y14987D02*
X31095Y14987D01*
X31590Y14987D02*
X32791Y14987D01*
X33201Y15002D02*
X33201Y13633D01*
X33145Y13477D01*
X32530Y13496D02*
X28560Y13496D01*
X28560Y13484D02*
X28560Y13677D01*
X28095Y13677D01*
X28095Y13677D01*
X28095Y13677D01*
X28095Y13212D01*
X28288Y13212D01*
X28560Y13484D01*
X28323Y13247D02*
X32574Y13247D01*
X32753Y12999D02*
X26075Y12999D01*
X26080Y13247D02*
X26782Y13247D01*
X26570Y13496D02*
X26080Y13496D01*
X26080Y13744D02*
X26570Y13744D01*
X27095Y13677D02*
X27095Y16277D01*
X27595Y16277D01*
X27095Y16277D02*
X18245Y16277D01*
X17745Y15777D01*
X17495Y15427D01*
X16970Y15484D02*
X16960Y15484D01*
X16960Y15427D02*
X16495Y15427D01*
X16395Y15927D01*
X15595Y16727D01*
X15595Y19727D01*
X3745Y19727D01*
X3245Y19227D01*
X2995Y19127D01*
X2745Y19027D01*
X2595Y19027D01*
X1395Y17827D01*
X845Y17677D01*
X1670Y17677D01*
X1670Y17718D01*
X1657Y17800D01*
X1632Y17879D01*
X1594Y17952D01*
X1545Y18019D01*
X1487Y18077D01*
X1420Y18126D01*
X1386Y18144D01*
X1476Y18181D01*
X1641Y18346D01*
X1730Y18561D01*
X1730Y18793D01*
X1641Y19008D01*
X1476Y19173D01*
X1467Y19177D01*
X1476Y19181D01*
X1641Y19346D01*
X1730Y19561D01*
X1730Y19793D01*
X1641Y20008D01*
X1532Y20117D01*
X14870Y20117D01*
X15003Y20062D01*
X15187Y20062D01*
X15358Y20133D01*
X15489Y20264D01*
X15560Y20435D01*
X15560Y20619D01*
X15518Y20722D01*
X15532Y20722D01*
X15604Y20733D01*
X15673Y20756D01*
X15739Y20789D01*
X15798Y20832D01*
X15850Y20884D01*
X15893Y20943D01*
X15926Y21009D01*
X15949Y21078D01*
X15960Y21150D01*
X15960Y21427D01*
X15960Y21704D01*
X15949Y21776D01*
X15926Y21845D01*
X15893Y21911D01*
X15850Y21970D01*
X15798Y22022D01*
X15739Y22065D01*
X15673Y22098D01*
X15604Y22121D01*
X15532Y22132D01*
X15495Y22132D01*
X15495Y21427D01*
X15595Y20927D01*
X15595Y19727D01*
X15431Y20205D02*
X20037Y20205D01*
X20285Y19957D02*
X1662Y19957D01*
X1730Y19708D02*
X20534Y19708D01*
X20782Y19460D02*
X4447Y19460D01*
X4550Y19357D02*
X4225Y19682D01*
X3765Y19682D01*
X3453Y19369D01*
X3200Y19622D01*
X2995Y19622D01*
X2995Y19127D01*
X2995Y19127D01*
X2995Y19127D01*
X2500Y19127D01*
X2500Y19332D01*
X2790Y19622D01*
X2995Y19622D01*
X2995Y19127D01*
X2500Y19127D01*
X2500Y18922D01*
X2753Y18669D01*
X2535Y18452D01*
X2437Y18492D01*
X2253Y18492D01*
X2082Y18421D01*
X1951Y18290D01*
X1880Y18119D01*
X1880Y17935D01*
X1935Y17802D01*
X1935Y15902D01*
X1880Y15769D01*
X1880Y15585D01*
X1951Y15414D01*
X2082Y15283D01*
X2145Y15257D01*
X2011Y15123D01*
X2009Y15122D01*
X1953Y15065D01*
X1940Y15052D01*
X1928Y15052D01*
X1620Y14744D01*
X1620Y14482D01*
X792Y13653D01*
X789Y13652D01*
X678Y13652D01*
X370Y13344D01*
X370Y12910D01*
X553Y12727D01*
X326Y12727D01*
X326Y16199D01*
X343Y16190D01*
X422Y16165D01*
X504Y16152D01*
X845Y16152D01*
X1186Y16152D01*
X1268Y16165D01*
X1347Y16190D01*
X1420Y16228D01*
X1487Y16277D01*
X1545Y16335D01*
X1594Y16402D01*
X1632Y16475D01*
X1657Y16554D01*
X1670Y16636D01*
X1670Y16677D01*
X1670Y16718D01*
X1657Y16800D01*
X1632Y16879D01*
X1594Y16952D01*
X1545Y17019D01*
X1487Y17077D01*
X1420Y17126D01*
X1347Y17164D01*
X1305Y17177D01*
X1347Y17190D01*
X1420Y17228D01*
X1487Y17277D01*
X1545Y17335D01*
X1594Y17402D01*
X1632Y17475D01*
X1657Y17554D01*
X1670Y17636D01*
X1670Y17677D01*
X845Y17677D01*
X845Y17677D01*
X845Y17202D01*
X845Y16677D01*
X1670Y16677D01*
X845Y16677D01*
X845Y16677D01*
X845Y16677D01*
X845Y16152D01*
X845Y16677D01*
X845Y16677D01*
X845Y17677D01*
X845Y17677D01*
X845Y17472D02*
X845Y17472D01*
X845Y17223D02*
X845Y17223D01*
X1411Y17223D02*
X1935Y17223D01*
X1935Y16975D02*
X1578Y16975D01*
X1669Y16726D02*
X1935Y16726D01*
X1935Y16478D02*
X1632Y16478D01*
X1422Y16229D02*
X1935Y16229D01*
X1935Y15981D02*
X326Y15981D01*
X326Y15732D02*
X1880Y15732D01*
X1922Y15484D02*
X1196Y15484D01*
X1088Y15592D02*
X895Y15592D01*
X895Y15127D01*
X895Y15127D01*
X1360Y15127D01*
X1360Y15320D01*
X1088Y15592D01*
X895Y15592D02*
X702Y15592D01*
X430Y15320D01*
X430Y15127D01*
X895Y15127D01*
X895Y15127D01*
X895Y15127D01*
X895Y15592D01*
X895Y15484D02*
X895Y15484D01*
X594Y15484D02*
X326Y15484D01*
X326Y15235D02*
X430Y15235D01*
X430Y15127D02*
X430Y14934D01*
X702Y14662D01*
X895Y14662D01*
X1088Y14662D01*
X1360Y14934D01*
X1360Y15127D01*
X895Y15127D01*
X895Y14662D01*
X895Y15127D01*
X895Y15127D01*
X430Y15127D01*
X430Y14987D02*
X326Y14987D01*
X895Y14987D02*
X895Y14987D01*
X1360Y14987D02*
X1862Y14987D01*
X2245Y14777D02*
X2145Y14527D01*
X2045Y14327D01*
X1045Y13327D01*
X895Y13127D01*
X1420Y13122D02*
X1420Y12910D01*
X1237Y12727D01*
X6068Y12727D01*
X5999Y12796D01*
X5910Y13011D01*
X5910Y13050D01*
X5712Y12852D01*
X5278Y12852D01*
X4970Y13160D01*
X4970Y13422D01*
X4960Y13432D01*
X4960Y13377D01*
X4495Y13377D01*
X4495Y13377D01*
X4495Y13377D01*
X4495Y13842D01*
X4550Y13842D01*
X4390Y14002D01*
X4078Y14002D01*
X3770Y14310D01*
X3770Y14744D01*
X3993Y14967D01*
X3447Y14967D01*
X3670Y14744D01*
X3670Y14310D01*
X3405Y14045D01*
X3405Y13629D01*
X3405Y13609D01*
X3420Y13594D01*
X3420Y13160D01*
X3112Y12852D01*
X2678Y12852D01*
X2370Y13160D01*
X2370Y13594D01*
X2585Y13809D01*
X2585Y14225D01*
X2362Y14002D01*
X2300Y14002D01*
X2114Y13816D01*
X2360Y13570D01*
X2360Y13377D01*
X1895Y13377D01*
X1895Y13377D01*
X2360Y13377D01*
X2360Y13184D01*
X2088Y12912D01*
X1895Y12912D01*
X1895Y13377D01*
X1895Y13377D01*
X1895Y12912D01*
X1702Y12912D01*
X1456Y13158D01*
X1420Y13122D01*
X1420Y12999D02*
X1616Y12999D01*
X1895Y12999D02*
X1895Y12999D01*
X2174Y12999D02*
X2531Y12999D01*
X2370Y13247D02*
X2360Y13247D01*
X1895Y13247D02*
X1895Y13247D01*
X2360Y13496D02*
X2370Y13496D01*
X2520Y13744D02*
X2185Y13744D01*
X2291Y13993D02*
X2585Y13993D01*
X2995Y14327D02*
X2995Y13627D01*
X2895Y13377D01*
X3420Y13496D02*
X4030Y13496D01*
X4030Y13570D02*
X4030Y13377D01*
X4495Y13377D01*
X4960Y13377D01*
X4960Y13184D01*
X4688Y12912D01*
X4495Y12912D01*
X4495Y13377D01*
X4495Y13377D01*
X4495Y13377D01*
X4495Y13842D01*
X4302Y13842D01*
X4030Y13570D01*
X4030Y13377D02*
X4030Y13184D01*
X4302Y12912D01*
X4495Y12912D01*
X4495Y13377D01*
X4030Y13377D01*
X4030Y13247D02*
X3420Y13247D01*
X3259Y12999D02*
X4216Y12999D01*
X4495Y12999D02*
X4495Y12999D01*
X4774Y12999D02*
X5131Y12999D01*
X4970Y13247D02*
X4960Y13247D01*
X4495Y13247D02*
X4495Y13247D01*
X4495Y13496D02*
X4495Y13496D01*
X4495Y13744D02*
X4495Y13744D01*
X4205Y13744D02*
X3405Y13744D01*
X3405Y13993D02*
X4399Y13993D01*
X3838Y14241D02*
X3602Y14241D01*
X3145Y14527D02*
X2995Y14327D01*
X3670Y14490D02*
X3770Y14490D01*
X3770Y14738D02*
X3670Y14738D01*
X4295Y14527D02*
X4545Y14427D01*
X5395Y13577D01*
X5495Y13377D01*
X6495Y13427D02*
X6495Y15427D01*
X6245Y15327D01*
X5545Y14627D01*
X5295Y14527D01*
X5295Y15277D02*
X4895Y15277D01*
X4795Y15377D01*
X2995Y15377D01*
X2895Y15427D01*
X2245Y14777D01*
X1620Y14738D02*
X1164Y14738D01*
X895Y14738D02*
X895Y14738D01*
X626Y14738D02*
X326Y14738D01*
X326Y14490D02*
X1620Y14490D01*
X1379Y14241D02*
X326Y14241D01*
X326Y13993D02*
X1131Y13993D01*
X882Y13744D02*
X326Y13744D01*
X326Y13496D02*
X521Y13496D01*
X370Y13247D02*
X326Y13247D01*
X326Y12999D02*
X370Y12999D01*
X326Y12750D02*
X529Y12750D01*
X1261Y12750D02*
X6044Y12750D01*
X5915Y12999D02*
X5859Y12999D01*
X7495Y13427D02*
X7495Y15427D01*
X8495Y15427D02*
X8495Y13427D01*
X9495Y13427D02*
X9495Y15427D01*
X10495Y15427D02*
X10495Y13427D01*
X11495Y13427D02*
X11495Y15427D01*
X12495Y15427D02*
X12495Y13427D01*
X13495Y13427D02*
X13495Y15427D01*
X14495Y15427D02*
X14495Y13427D01*
X15495Y13427D02*
X16495Y13427D01*
X15495Y13427D02*
X15495Y15427D01*
X15245Y15777D01*
X14745Y16277D01*
X6295Y16277D01*
X5295Y15277D01*
X5095Y15777D02*
X8295Y18977D01*
X8760Y18963D02*
X15873Y18963D01*
X15851Y18940D02*
X15780Y18769D01*
X15780Y18585D01*
X15851Y18414D01*
X15982Y18283D01*
X16153Y18212D01*
X16337Y18212D01*
X16470Y18267D01*
X16980Y18267D01*
X16980Y18085D01*
X17051Y17914D01*
X17182Y17783D01*
X17353Y17712D01*
X17537Y17712D01*
X17670Y17767D01*
X18712Y17767D01*
X20208Y16687D01*
X18163Y16687D01*
X18013Y16625D01*
X17897Y16509D01*
X17580Y16192D01*
X17391Y16192D01*
X17198Y16112D01*
X17050Y15964D01*
X16970Y15771D01*
X16970Y15083D01*
X17050Y14890D01*
X17198Y14742D01*
X17391Y14662D01*
X17599Y14662D01*
X17792Y14742D01*
X17940Y14890D01*
X17995Y15022D01*
X18050Y14890D01*
X18198Y14742D01*
X18391Y14662D01*
X18599Y14662D01*
X18792Y14742D01*
X18940Y14890D01*
X18995Y15022D01*
X19050Y14890D01*
X19085Y14855D01*
X19085Y14144D01*
X18999Y14058D01*
X18962Y13968D01*
X18944Y14002D01*
X18895Y14069D01*
X18837Y14127D01*
X18770Y14176D01*
X18697Y14214D01*
X18618Y14239D01*
X18536Y14252D01*
X18495Y14252D01*
X18495Y13427D01*
X18495Y13427D01*
X18495Y13427D01*
X17495Y13427D01*
X17545Y13977D01*
X16595Y14927D01*
X16495Y15427D01*
X16495Y15427D01*
X16495Y15427D01*
X16495Y16132D01*
X16532Y16132D01*
X16604Y16121D01*
X16673Y16098D01*
X16739Y16065D01*
X16798Y16022D01*
X16850Y15970D01*
X16893Y15911D01*
X16926Y15845D01*
X16949Y15776D01*
X16960Y15704D01*
X16960Y15427D01*
X16495Y15427D01*
X16495Y14722D01*
X16532Y14722D01*
X16604Y14733D01*
X16673Y14756D01*
X16739Y14789D01*
X16798Y14832D01*
X16850Y14884D01*
X16893Y14943D01*
X16926Y15009D01*
X16949Y15078D01*
X16960Y15150D01*
X16960Y15427D01*
X16960Y15235D02*
X16970Y15235D01*
X17010Y14987D02*
X16915Y14987D01*
X16495Y14987D02*
X16495Y14987D01*
X16386Y14733D02*
X16317Y14756D01*
X16251Y14789D01*
X16192Y14832D01*
X16140Y14884D01*
X16097Y14943D01*
X16064Y15009D01*
X16041Y15078D01*
X16030Y15150D01*
X16030Y15427D01*
X16495Y15427D01*
X16495Y15427D01*
X16495Y15427D01*
X16495Y16132D01*
X16458Y16132D01*
X16386Y16121D01*
X16317Y16098D01*
X16251Y16065D01*
X16192Y16022D01*
X16140Y15970D01*
X16097Y15911D01*
X16064Y15845D01*
X16041Y15776D01*
X16030Y15704D01*
X16030Y15427D01*
X16495Y15427D01*
X16495Y14722D01*
X16458Y14722D01*
X16386Y14733D01*
X16371Y14738D02*
X15905Y14738D01*
X15905Y14855D02*
X15940Y14890D01*
X16020Y15083D01*
X16020Y15771D01*
X15940Y15964D01*
X15792Y16112D01*
X15599Y16192D01*
X15410Y16192D01*
X14977Y16625D01*
X14827Y16687D01*
X6585Y16687D01*
X8426Y18528D01*
X8558Y18583D01*
X8689Y18714D01*
X8760Y18885D01*
X8760Y19069D01*
X8689Y19240D01*
X8558Y19371D01*
X8387Y19442D01*
X8203Y19442D01*
X8032Y19371D01*
X7901Y19240D01*
X7846Y19108D01*
X4964Y16226D01*
X4832Y16171D01*
X4701Y16040D01*
X4630Y15869D01*
X4630Y15787D01*
X3305Y15787D01*
X3305Y16652D01*
X3495Y16842D01*
X3765Y16572D01*
X4225Y16572D01*
X4550Y16897D01*
X4550Y17357D01*
X4280Y17627D01*
X4550Y17897D01*
X4550Y18357D01*
X4280Y18627D01*
X4550Y18897D01*
X4550Y19357D01*
X4550Y19211D02*
X7889Y19211D01*
X7701Y18963D02*
X4550Y18963D01*
X4367Y18714D02*
X7452Y18714D01*
X7204Y18466D02*
X4441Y18466D01*
X4550Y18217D02*
X6955Y18217D01*
X6707Y17969D02*
X4550Y17969D01*
X4373Y17720D02*
X6458Y17720D01*
X6210Y17472D02*
X4435Y17472D01*
X4550Y17223D02*
X5961Y17223D01*
X5713Y16975D02*
X4550Y16975D01*
X4379Y16726D02*
X5464Y16726D01*
X5216Y16478D02*
X3305Y16478D01*
X3379Y16726D02*
X3611Y16726D01*
X2895Y16877D02*
X2995Y17127D01*
X2895Y16877D02*
X2895Y15427D01*
X2345Y15677D02*
X2345Y18027D01*
X1921Y18217D02*
X1513Y18217D01*
X1582Y17969D02*
X1880Y17969D01*
X1935Y17720D02*
X1670Y17720D01*
X1630Y17472D02*
X1935Y17472D01*
X845Y16975D02*
X845Y16975D01*
X845Y16726D02*
X845Y16726D01*
X845Y16478D02*
X845Y16478D01*
X845Y16229D02*
X845Y16229D01*
X3305Y16229D02*
X4967Y16229D01*
X4676Y15981D02*
X3305Y15981D01*
X2123Y15235D02*
X1360Y15235D01*
X895Y15235D02*
X895Y15235D01*
X6624Y16726D02*
X20153Y16726D01*
X20645Y16877D02*
X18845Y18177D01*
X17445Y18177D01*
X16980Y18217D02*
X16350Y18217D01*
X16140Y18217D02*
X8115Y18217D01*
X7867Y17969D02*
X17028Y17969D01*
X17332Y17720D02*
X7618Y17720D01*
X7370Y17472D02*
X19121Y17472D01*
X18777Y17720D02*
X17558Y17720D01*
X19465Y17223D02*
X7121Y17223D01*
X6873Y16975D02*
X19809Y16975D01*
X17866Y16478D02*
X15124Y16478D01*
X15373Y16229D02*
X17617Y16229D01*
X17066Y15981D02*
X16839Y15981D01*
X16495Y15981D02*
X16495Y15981D01*
X16151Y15981D02*
X15924Y15981D01*
X16020Y15732D02*
X16035Y15732D01*
X16020Y15484D02*
X16030Y15484D01*
X16495Y15484D02*
X16495Y15484D01*
X16495Y15732D02*
X16495Y15732D01*
X16955Y15732D02*
X16970Y15732D01*
X16495Y15235D02*
X16495Y15235D01*
X16030Y15235D02*
X16020Y15235D01*
X15980Y14987D02*
X16075Y14987D01*
X15905Y14855D02*
X15905Y14144D01*
X15991Y14058D01*
X15995Y14049D01*
X15999Y14058D01*
X16164Y14223D01*
X16379Y14312D01*
X16611Y14312D01*
X16826Y14223D01*
X16991Y14058D01*
X17028Y13968D01*
X17046Y14002D01*
X17095Y14069D01*
X17153Y14127D01*
X17220Y14176D01*
X17293Y14214D01*
X17372Y14239D01*
X17454Y14252D01*
X17495Y14252D01*
X17495Y13427D01*
X17495Y13427D01*
X17495Y13427D01*
X17970Y13427D01*
X18495Y13427D01*
X18495Y14252D01*
X18454Y14252D01*
X18372Y14239D01*
X18293Y14214D01*
X18220Y14176D01*
X18153Y14127D01*
X18095Y14069D01*
X18046Y14002D01*
X18008Y13929D01*
X17995Y13887D01*
X17982Y13929D01*
X17944Y14002D01*
X17895Y14069D01*
X17837Y14127D01*
X17770Y14176D01*
X17697Y14214D01*
X17618Y14239D01*
X17536Y14252D01*
X17495Y14252D01*
X17495Y13427D01*
X17495Y13496D02*
X17495Y13496D01*
X17495Y13744D02*
X17495Y13744D01*
X17495Y13993D02*
X17495Y13993D01*
X17041Y13993D02*
X17018Y13993D01*
X16782Y14241D02*
X17386Y14241D01*
X17495Y14241D02*
X17495Y14241D01*
X17604Y14241D02*
X18386Y14241D01*
X18495Y14241D02*
X18495Y14241D01*
X18604Y14241D02*
X19085Y14241D01*
X19085Y14490D02*
X15905Y14490D01*
X16495Y14738D02*
X16495Y14738D01*
X16619Y14738D02*
X17206Y14738D01*
X17784Y14738D02*
X18206Y14738D01*
X18010Y14987D02*
X17980Y14987D01*
X18784Y14738D02*
X19085Y14738D01*
X19010Y14987D02*
X18980Y14987D01*
X19495Y15427D02*
X19495Y13427D01*
X18495Y13496D02*
X18495Y13496D01*
X18495Y13744D02*
X18495Y13744D01*
X18495Y13993D02*
X18495Y13993D01*
X18041Y13993D02*
X17949Y13993D01*
X18949Y13993D02*
X18972Y13993D01*
X20495Y13427D02*
X20495Y15427D01*
X21495Y15427D02*
X21495Y13427D01*
X22495Y13427D02*
X22495Y15427D01*
X23495Y15427D02*
X23495Y13427D01*
X24495Y13427D02*
X24495Y15427D01*
X25495Y15427D02*
X25495Y13427D01*
X26018Y13993D02*
X26668Y13993D01*
X26685Y14241D02*
X25905Y14241D01*
X25905Y14490D02*
X26685Y14490D01*
X26685Y14738D02*
X25905Y14738D01*
X25980Y14987D02*
X26685Y14987D01*
X26685Y15235D02*
X26020Y15235D01*
X26020Y15484D02*
X26685Y15484D01*
X26685Y15732D02*
X26020Y15732D01*
X27505Y14241D02*
X32791Y14241D01*
X32791Y13993D02*
X32624Y13825D01*
X33611Y13993D02*
X34376Y13993D01*
X34295Y13744D02*
X33700Y13744D01*
X33760Y13496D02*
X34321Y13496D01*
X34895Y13677D02*
X36545Y13677D01*
X36895Y13227D01*
X37245Y13227D01*
X38445Y14427D01*
X38445Y14458D01*
X37601Y15302D01*
X37601Y18871D01*
X36901Y19571D01*
X35739Y19571D01*
X35295Y19127D01*
X34576Y19127D01*
X34101Y19702D01*
X34101Y20802D01*
X33301Y21602D01*
X32601Y21602D01*
X32001Y22202D01*
X32001Y22481D01*
X32022Y22501D01*
X30451Y22505D02*
X30495Y21827D01*
X30495Y21377D01*
X32195Y19777D01*
X32195Y17927D01*
X31245Y18027D01*
X31095Y18077D01*
X32195Y17927D02*
X32626Y17927D01*
X32551Y17902D01*
X33245Y18277D01*
X33745Y18577D01*
X35745Y18677D01*
X36501Y18602D02*
X36501Y18821D01*
X36495Y18927D01*
X36501Y18602D02*
X36101Y17902D01*
X33801Y17902D01*
X33176Y17477D01*
X33145Y17477D01*
X33706Y17223D02*
X34355Y17223D01*
X34355Y16975D02*
X33513Y16975D01*
X33057Y16726D02*
X34582Y16726D01*
X35208Y16726D02*
X37191Y16726D01*
X37191Y16975D02*
X35435Y16975D01*
X35435Y17223D02*
X37191Y17223D01*
X37191Y17472D02*
X35364Y17472D01*
X34426Y17472D02*
X33898Y17472D01*
X32576Y16627D02*
X32101Y17102D01*
X31120Y17102D01*
X31095Y17077D01*
X31479Y16478D02*
X32145Y16478D01*
X32576Y16627D02*
X32595Y16627D01*
X33037Y16478D02*
X34097Y16478D01*
X33849Y16229D02*
X32850Y16229D01*
X32340Y16229D02*
X31650Y16229D01*
X31650Y15981D02*
X33600Y15981D01*
X33352Y15732D02*
X31535Y15732D01*
X31388Y15484D02*
X33103Y15484D01*
X32855Y15235D02*
X31590Y15235D01*
X33201Y15002D02*
X34376Y16177D01*
X34895Y16177D01*
X36895Y16177D01*
X36597Y15732D02*
X35299Y15732D01*
X34263Y15484D02*
X36494Y15484D01*
X36430Y15235D02*
X34015Y15235D01*
X33766Y14987D02*
X34441Y14987D01*
X34895Y14987D02*
X34895Y14987D01*
X35349Y14987D02*
X36478Y14987D01*
X36430Y15034D02*
X36702Y14762D01*
X36895Y14762D01*
X36895Y15227D01*
X36895Y15227D01*
X36895Y15227D01*
X36430Y15227D01*
X36430Y15034D01*
X36895Y14987D02*
X36895Y14987D01*
X37312Y14987D02*
X37336Y14987D01*
X37585Y14738D02*
X35435Y14738D01*
X35435Y14490D02*
X37833Y14490D01*
X37679Y14241D02*
X35223Y14241D01*
X34567Y14241D02*
X33611Y14241D01*
X33611Y14490D02*
X34355Y14490D01*
X34355Y14738D02*
X33611Y14738D01*
X34895Y14738D02*
X34895Y14738D01*
X37120Y13744D02*
X37182Y13744D01*
X38094Y13496D02*
X39246Y13496D01*
X39246Y13744D02*
X38342Y13744D01*
X38831Y13993D02*
X39246Y13993D01*
X39246Y14241D02*
X38996Y14241D01*
X39025Y14490D02*
X39246Y14490D01*
X39246Y14738D02*
X38944Y14738D01*
X38724Y14987D02*
X39246Y14987D01*
X39246Y15235D02*
X38930Y15235D01*
X38965Y15427D02*
X38445Y15427D01*
X38965Y15427D01*
X38963Y15484D02*
X39246Y15484D01*
X39246Y15732D02*
X38866Y15732D01*
X38986Y15981D02*
X39246Y15981D01*
X39246Y16229D02*
X39025Y16229D01*
X39025Y16478D02*
X39246Y16478D01*
X39246Y16726D02*
X39025Y16726D01*
X38875Y16975D02*
X39246Y16975D01*
X39246Y17223D02*
X38011Y17223D01*
X38011Y16975D02*
X38015Y16975D01*
X38011Y17472D02*
X39246Y17472D01*
X39246Y17720D02*
X38011Y17720D01*
X38011Y17969D02*
X39246Y17969D01*
X39246Y18217D02*
X38011Y18217D01*
X38011Y18466D02*
X39246Y18466D01*
X39246Y18714D02*
X38011Y18714D01*
X38007Y18963D02*
X39246Y18963D01*
X39246Y19211D02*
X37841Y19211D01*
X37592Y19460D02*
X39246Y19460D01*
X39246Y19708D02*
X37344Y19708D01*
X37041Y19957D02*
X39246Y19957D01*
X39246Y20205D02*
X35560Y20205D01*
X35560Y20047D02*
X35035Y20047D01*
X35035Y20047D01*
X35560Y20047D01*
X35560Y19957D02*
X35599Y19957D01*
X34511Y20397D02*
X34511Y20883D01*
X34449Y21034D01*
X33649Y21834D01*
X33629Y21854D01*
X33751Y21976D01*
X33840Y22191D01*
X33840Y23023D01*
X33751Y23238D01*
X33722Y23267D01*
X34653Y23267D01*
X34635Y23249D01*
X34586Y23182D01*
X34548Y23109D01*
X34523Y23030D01*
X34510Y22948D01*
X34510Y22607D01*
X35035Y22607D01*
X35560Y22607D01*
X35560Y22948D01*
X35557Y22966D01*
X35591Y22932D01*
X35591Y22349D01*
X35560Y22331D01*
X35560Y22607D01*
X35035Y22607D01*
X35035Y22607D01*
X35035Y22607D01*
X34510Y22607D01*
X34510Y22266D01*
X34523Y22184D01*
X34548Y22105D01*
X34586Y22032D01*
X34635Y21965D01*
X34693Y21907D01*
X34760Y21858D01*
X34833Y21820D01*
X34912Y21795D01*
X34994Y21782D01*
X35027Y21782D01*
X35012Y21757D01*
X34936Y21474D01*
X34936Y21180D01*
X35012Y20897D01*
X35027Y20872D01*
X34994Y20872D01*
X34912Y20859D01*
X34833Y20834D01*
X34760Y20796D01*
X34693Y20747D01*
X34635Y20689D01*
X34586Y20622D01*
X34548Y20549D01*
X34523Y20470D01*
X34511Y20397D01*
X34511Y20454D02*
X34520Y20454D01*
X34511Y20702D02*
X34648Y20702D01*
X34483Y20951D02*
X34998Y20951D01*
X34936Y21199D02*
X34284Y21199D01*
X34035Y21448D02*
X34936Y21448D01*
X34996Y21696D02*
X33787Y21696D01*
X33720Y21945D02*
X34655Y21945D01*
X34521Y22193D02*
X33840Y22193D01*
X33840Y22442D02*
X34510Y22442D01*
X34510Y22690D02*
X33840Y22690D01*
X33840Y22939D02*
X34510Y22939D01*
X34590Y23187D02*
X33772Y23187D01*
X35560Y22939D02*
X35584Y22939D01*
X36001Y23102D02*
X36001Y21377D01*
X36051Y21327D01*
X37107Y21696D02*
X37425Y21696D01*
X37166Y21448D02*
X38288Y21448D01*
X38289Y21696D02*
X38539Y21696D01*
X38539Y21945D02*
X38289Y21945D01*
X37557Y21945D02*
X36982Y21945D01*
X36871Y22193D02*
X36762Y22193D01*
X36450Y22442D02*
X36411Y22442D01*
X35591Y22442D02*
X35560Y22442D01*
X35560Y22690D02*
X35591Y22690D01*
X37554Y22193D02*
X37809Y22193D01*
X38289Y22193D02*
X38539Y22193D01*
X39018Y22193D02*
X39246Y22193D01*
X39246Y22442D02*
X37975Y22442D01*
X38173Y22690D02*
X39246Y22690D01*
X38539Y21199D02*
X38289Y21199D01*
X38289Y20951D02*
X38539Y20951D01*
X38539Y20702D02*
X38289Y20702D01*
X38289Y20454D02*
X38539Y20454D01*
X39007Y20454D02*
X39246Y20454D01*
X37820Y20454D02*
X36755Y20454D01*
X36978Y20702D02*
X37562Y20702D01*
X37427Y20951D02*
X37105Y20951D01*
X37166Y21199D02*
X37366Y21199D01*
X33255Y20047D02*
X33245Y19677D01*
X33245Y18927D01*
X32745Y18677D01*
X31701Y18733D02*
X31595Y18627D01*
X31701Y18733D02*
X31701Y19302D01*
X31326Y19677D01*
X30045Y19677D01*
X26745Y22977D01*
X27095Y21577D02*
X25845Y19627D01*
X27095Y20177D02*
X27195Y20127D01*
X27595Y19727D01*
X27595Y18177D01*
X28005Y18509D02*
X28005Y19712D01*
X28095Y19712D01*
X28288Y19712D01*
X28560Y19984D01*
X28560Y20177D01*
X28560Y20370D01*
X28288Y20642D01*
X28095Y20642D01*
X28095Y20177D01*
X28095Y20177D01*
X28560Y20177D01*
X28095Y20177D01*
X28095Y20177D01*
X28095Y20642D01*
X27902Y20642D01*
X27630Y20370D01*
X27630Y20272D01*
X27620Y20282D01*
X27620Y20394D01*
X27312Y20702D01*
X27021Y20702D01*
X27319Y21166D01*
X27358Y21183D01*
X27489Y21314D01*
X27560Y21485D01*
X27560Y21582D01*
X29688Y19455D01*
X29620Y19387D01*
X29313Y19387D01*
X29163Y19325D01*
X28120Y18282D01*
X28040Y18474D01*
X28005Y18509D01*
X28044Y18466D02*
X28304Y18466D01*
X28552Y18714D02*
X28005Y18714D01*
X28005Y18963D02*
X28801Y18963D01*
X29049Y19211D02*
X28005Y19211D01*
X28005Y19460D02*
X29682Y19460D01*
X29434Y19708D02*
X28005Y19708D01*
X28095Y19712D02*
X28095Y20177D01*
X28095Y19712D01*
X28095Y19957D02*
X28095Y19957D01*
X28532Y19957D02*
X29185Y19957D01*
X28937Y20205D02*
X28560Y20205D01*
X28476Y20454D02*
X28688Y20454D01*
X28440Y20702D02*
X27021Y20702D01*
X27561Y20454D02*
X27714Y20454D01*
X28095Y20454D02*
X28095Y20454D01*
X28095Y20205D02*
X28095Y20205D01*
X28095Y20177D02*
X28095Y20177D01*
X28191Y20951D02*
X27181Y20951D01*
X27375Y21199D02*
X27943Y21199D01*
X27694Y21448D02*
X27545Y21448D01*
X26195Y17627D02*
X22745Y21077D01*
X20745Y21077D02*
X20495Y21427D01*
X20495Y23427D01*
X19495Y23427D02*
X19495Y21427D01*
X19745Y21077D01*
X22545Y18277D01*
X23695Y18277D01*
X23345Y18777D02*
X23045Y18777D01*
X20745Y21077D01*
X19580Y20662D02*
X19391Y20662D01*
X19198Y20742D01*
X19050Y20890D01*
X18995Y21022D01*
X18940Y20890D01*
X18792Y20742D01*
X18599Y20662D01*
X18391Y20662D01*
X18198Y20742D01*
X18050Y20890D01*
X17995Y21022D01*
X17940Y20890D01*
X17792Y20742D01*
X17599Y20662D01*
X17391Y20662D01*
X17198Y20742D01*
X17050Y20890D01*
X16995Y21022D01*
X16940Y20890D01*
X16792Y20742D01*
X16599Y20662D01*
X16391Y20662D01*
X16198Y20742D01*
X16050Y20890D01*
X15970Y21083D01*
X15970Y21771D01*
X16050Y21964D01*
X16085Y21999D01*
X16085Y22710D01*
X15999Y22796D01*
X15962Y22886D01*
X15944Y22852D01*
X15895Y22785D01*
X15837Y22727D01*
X15770Y22678D01*
X15697Y22640D01*
X15618Y22615D01*
X15536Y22602D01*
X15495Y22602D01*
X15495Y23427D01*
X15495Y21427D01*
X15960Y21427D01*
X15495Y21427D01*
X15495Y21427D01*
X15495Y21427D01*
X15495Y21427D01*
X15030Y21427D01*
X15030Y21704D01*
X15041Y21776D01*
X15064Y21845D01*
X15097Y21911D01*
X15140Y21970D01*
X15192Y22022D01*
X15251Y22065D01*
X15317Y22098D01*
X15386Y22121D01*
X15458Y22132D01*
X15495Y22132D01*
X15495Y21427D01*
X15030Y21427D01*
X15030Y21150D01*
X15041Y21078D01*
X15064Y21009D01*
X15072Y20992D01*
X15003Y20992D01*
X14978Y20982D01*
X15020Y21083D01*
X15020Y21771D01*
X14940Y21964D01*
X14905Y21999D01*
X14905Y22710D01*
X14991Y22796D01*
X15028Y22886D01*
X15046Y22852D01*
X15095Y22785D01*
X15153Y22727D01*
X15220Y22678D01*
X15293Y22640D01*
X15372Y22615D01*
X15454Y22602D01*
X15495Y22602D01*
X15495Y23427D01*
X15495Y23427D01*
X15495Y23187D02*
X15495Y23187D01*
X15495Y22939D02*
X15495Y22939D01*
X15495Y22690D02*
X15495Y22690D01*
X15787Y22690D02*
X16085Y22690D01*
X16085Y22442D02*
X14905Y22442D01*
X14905Y22690D02*
X15203Y22690D01*
X14905Y22193D02*
X16085Y22193D01*
X16042Y21945D02*
X15868Y21945D01*
X15495Y21945D02*
X15495Y21945D01*
X15122Y21945D02*
X14948Y21945D01*
X15020Y21696D02*
X15030Y21696D01*
X15020Y21448D02*
X15030Y21448D01*
X15495Y21448D02*
X15495Y21448D01*
X15495Y21696D02*
X15495Y21696D01*
X15960Y21696D02*
X15970Y21696D01*
X15960Y21448D02*
X15970Y21448D01*
X16495Y21427D02*
X16495Y23427D01*
X17495Y23427D02*
X17495Y21427D01*
X18495Y21427D02*
X18495Y23427D01*
X14495Y23427D02*
X14495Y21427D01*
X15020Y21199D02*
X15030Y21199D01*
X15897Y20951D02*
X16025Y20951D01*
X15970Y21199D02*
X15960Y21199D01*
X16965Y20951D02*
X17025Y20951D01*
X17293Y20702D02*
X16697Y20702D01*
X16293Y20702D02*
X15526Y20702D01*
X15560Y20454D02*
X19788Y20454D01*
X19580Y20662D02*
X21155Y19087D01*
X16470Y19087D01*
X16337Y19142D01*
X16153Y19142D01*
X15982Y19071D01*
X15851Y18940D01*
X15780Y18714D02*
X8690Y18714D01*
X8364Y18466D02*
X15829Y18466D01*
X16245Y18677D02*
X21445Y18677D01*
X21795Y18327D01*
X21031Y19211D02*
X8701Y19211D01*
X3543Y19460D02*
X3362Y19460D01*
X2995Y19460D02*
X2995Y19460D01*
X2628Y19460D02*
X1688Y19460D01*
X1507Y19211D02*
X2500Y19211D01*
X2995Y19211D02*
X2995Y19211D01*
X2500Y18963D02*
X1660Y18963D01*
X1730Y18714D02*
X2708Y18714D01*
X2549Y18466D02*
X2501Y18466D01*
X2189Y18466D02*
X1691Y18466D01*
X1395Y20527D02*
X845Y20677D01*
X1395Y20527D02*
X15095Y20527D01*
X17697Y20702D02*
X18293Y20702D01*
X18697Y20702D02*
X19293Y20702D01*
X19025Y20951D02*
X18965Y20951D01*
X18025Y20951D02*
X17965Y20951D01*
X13495Y21427D02*
X13495Y23427D01*
X12495Y23427D02*
X12495Y21427D01*
X11495Y21427D02*
X11495Y23427D01*
X10495Y23427D02*
X10495Y21427D01*
X9495Y21427D02*
X9495Y23427D01*
X8495Y23427D02*
X8495Y21427D01*
X7495Y21427D02*
X7495Y23427D01*
X6495Y23427D02*
X6495Y21427D01*
X4745Y22527D02*
X4245Y22027D01*
X4045Y21877D01*
X4745Y22527D02*
X5195Y22777D01*
X2045Y21877D02*
X1795Y21827D01*
X1395Y21827D01*
X845Y21677D01*
X15905Y14241D02*
X16208Y14241D01*
X25946Y12750D02*
X36629Y12750D01*
X36381Y12999D02*
X33537Y12999D01*
X33716Y13247D02*
X34476Y13247D01*
X35314Y13247D02*
X36360Y13247D01*
X37597Y12999D02*
X39246Y12999D01*
X39246Y13247D02*
X37845Y13247D01*
X37161Y12750D02*
X39246Y12750D01*
X38445Y15427D02*
X38445Y15427D01*
X37191Y17720D02*
X37096Y17720D01*
X36895Y17720D02*
X36895Y17720D01*
X36895Y17712D02*
X36895Y18177D01*
X36895Y18177D01*
X36895Y17712D01*
X36694Y17720D02*
X36470Y17720D01*
X36895Y17969D02*
X36895Y17969D01*
X30095Y19077D02*
X30045Y18977D01*
X29395Y18977D01*
X28045Y17627D01*
X26195Y17627D01*
X27902Y14142D02*
X27630Y13870D01*
X27630Y13677D01*
X28095Y13677D01*
X28095Y13677D01*
X28095Y13677D01*
X28095Y14142D01*
X27902Y14142D01*
X27753Y13993D02*
X27522Y13993D01*
X28095Y13993D02*
X28095Y13993D01*
X28095Y13744D02*
X28095Y13744D01*
X28095Y13677D02*
X27630Y13677D01*
X27630Y13484D01*
X27902Y13212D01*
X28095Y13212D01*
X28095Y13677D01*
X28095Y13496D02*
X28095Y13496D01*
X27630Y13496D02*
X27620Y13496D01*
X27620Y13744D02*
X27630Y13744D01*
X27408Y13247D02*
X27867Y13247D01*
X28095Y13247D02*
X28095Y13247D01*
D40*
X32595Y16627D03*
X31595Y18627D03*
X36495Y18927D03*
X27095Y21577D03*
X25845Y19627D03*
X23345Y18777D03*
X21795Y18327D03*
X23695Y18277D03*
X20645Y16877D03*
X17445Y18177D03*
X16245Y18677D03*
X15095Y20527D03*
X8295Y18977D03*
X2345Y18027D03*
X5095Y15777D03*
X2345Y15677D03*
D41*
X101Y24903D02*
X101Y36714D01*
X39471Y36714D01*
X39471Y24903D01*
X101Y24903D01*
D42*
X6495Y27588D02*
X6495Y28068D01*
X7495Y28068D02*
X7495Y27588D01*
X8495Y27588D02*
X8495Y28068D01*
X9495Y28068D02*
X9495Y27588D01*
X10495Y27588D02*
X10495Y28068D01*
X11495Y28068D02*
X11495Y27588D01*
X12495Y27588D02*
X12495Y28068D01*
X13495Y28068D02*
X13495Y27588D01*
X14495Y27588D02*
X14495Y28068D01*
X15495Y28068D02*
X15495Y27588D01*
X16495Y27588D02*
X16495Y28068D01*
X17495Y28068D02*
X17495Y27588D01*
X18495Y27588D02*
X18495Y28068D01*
X19495Y28068D02*
X19495Y27588D01*
X20495Y27588D02*
X20495Y28068D01*
X21495Y28068D02*
X21495Y27588D01*
X22495Y27588D02*
X22495Y28068D01*
X23495Y28068D02*
X23495Y27588D01*
X24495Y27588D02*
X24495Y28068D01*
X25495Y28068D02*
X25495Y27588D01*
X25495Y33588D02*
X25495Y34068D01*
X24495Y34068D02*
X24495Y33588D01*
X23495Y33588D02*
X23495Y34068D01*
X22495Y34068D02*
X22495Y33588D01*
X21495Y33588D02*
X21495Y34068D01*
X20495Y34068D02*
X20495Y33588D01*
X19495Y33588D02*
X19495Y34068D01*
X18495Y34068D02*
X18495Y33588D01*
X17495Y33588D02*
X17495Y34068D01*
X16495Y34068D02*
X16495Y33588D01*
X15495Y33588D02*
X15495Y34068D01*
X14495Y34068D02*
X14495Y33588D01*
X13495Y33588D02*
X13495Y34068D01*
X12495Y34068D02*
X12495Y33588D01*
X11495Y33588D02*
X11495Y34068D01*
X10495Y34068D02*
X10495Y33588D01*
X9495Y33588D02*
X9495Y34068D01*
X8495Y34068D02*
X8495Y33588D01*
X7495Y33588D02*
X7495Y34068D01*
X6495Y34068D02*
X6495Y33588D01*
D43*
X4045Y34278D03*
X2045Y34278D03*
X895Y27528D03*
X2145Y26928D03*
X3145Y26928D03*
X4295Y26928D03*
X5295Y26928D03*
X5495Y25778D03*
X4495Y25778D03*
X2895Y25778D03*
X1895Y25778D03*
X895Y25528D03*
X27095Y26078D03*
X28095Y26078D03*
X36895Y25628D03*
X36895Y27628D03*
X36895Y28578D03*
X36895Y30578D03*
X35745Y31078D03*
X32745Y31078D03*
X28095Y32578D03*
X27095Y32578D03*
D44*
X30095Y31478D03*
X31095Y31478D03*
X31095Y30478D03*
X30095Y30478D03*
X30095Y29478D03*
X31095Y29478D03*
X31095Y28478D03*
X30095Y28478D03*
X30095Y27478D03*
X31095Y27478D03*
X3995Y29528D03*
X2995Y29528D03*
X2995Y30528D03*
X3995Y30528D03*
X3995Y31528D03*
X2995Y31528D03*
D45*
X1145Y31078D02*
X545Y31078D01*
X545Y30078D02*
X1145Y30078D01*
X1145Y29078D02*
X545Y29078D01*
X545Y32078D02*
X1145Y32078D01*
X1145Y33078D02*
X545Y33078D01*
X545Y34078D02*
X1145Y34078D01*
X4895Y34178D02*
X5495Y34178D01*
X5495Y35178D02*
X4895Y35178D01*
X6495Y35528D02*
X6495Y36128D01*
X7495Y36128D02*
X7495Y35528D01*
X8495Y35528D02*
X8495Y36128D01*
X9495Y36128D02*
X9495Y35528D01*
X10495Y35528D02*
X10495Y36128D01*
X11495Y36128D02*
X11495Y35528D01*
X12495Y35528D02*
X12495Y36128D01*
X13495Y36128D02*
X13495Y35528D01*
X14495Y35528D02*
X14495Y36128D01*
X15495Y36128D02*
X15495Y35528D01*
X16495Y35528D02*
X16495Y36128D01*
X17495Y36128D02*
X17495Y35528D01*
X18495Y35528D02*
X18495Y36128D01*
X19495Y36128D02*
X19495Y35528D01*
X20495Y35528D02*
X20495Y36128D01*
X21495Y36128D02*
X21495Y35528D01*
X22495Y35528D02*
X22495Y36128D01*
X23495Y36128D02*
X23495Y35528D01*
X24495Y35528D02*
X24495Y36128D01*
X25495Y36128D02*
X25495Y35528D01*
X26495Y35528D02*
X26495Y36128D01*
X27495Y36128D02*
X27495Y35528D01*
X33255Y35308D02*
X33255Y34708D01*
X35035Y34708D02*
X35035Y35308D01*
X35035Y32748D02*
X35035Y32148D01*
X33255Y32148D02*
X33255Y32748D01*
X25495Y26128D02*
X25495Y25528D01*
X24495Y25528D02*
X24495Y26128D01*
X23495Y26128D02*
X23495Y25528D01*
X22495Y25528D02*
X22495Y26128D01*
X21495Y26128D02*
X21495Y25528D01*
X20495Y25528D02*
X20495Y26128D01*
X19495Y26128D02*
X19495Y25528D01*
X18495Y25528D02*
X18495Y26128D01*
X17495Y26128D02*
X17495Y25528D01*
X16495Y25528D02*
X16495Y26128D01*
X15495Y26128D02*
X15495Y25528D01*
X14495Y25528D02*
X14495Y26128D01*
X13495Y26128D02*
X13495Y25528D01*
X12495Y25528D02*
X12495Y26128D01*
X11495Y26128D02*
X11495Y25528D01*
X10495Y25528D02*
X10495Y26128D01*
X9495Y26128D02*
X9495Y25528D01*
X8495Y25528D02*
X8495Y26128D01*
X7495Y26128D02*
X7495Y25528D01*
X6495Y25528D02*
X6495Y26128D01*
D46*
X27595Y28678D03*
X27595Y30578D03*
D47*
X33145Y29878D03*
X33145Y25878D03*
D48*
X38445Y28828D03*
D49*
X38445Y27828D03*
X38445Y26828D03*
D50*
X34895Y27078D03*
X34895Y29578D03*
D51*
X34895Y28578D03*
X34895Y26078D03*
D52*
X32022Y34459D02*
X32022Y35345D01*
X30451Y35349D02*
X30451Y34463D01*
X28880Y34463D02*
X28880Y35349D01*
D53*
X36051Y33728D03*
X38414Y33728D03*
X37213Y35657D03*
D54*
X38282Y35340D02*
X39246Y35340D01*
X39246Y35588D02*
X38328Y35588D01*
X38328Y35510D02*
X38328Y35804D01*
X38252Y36087D01*
X38105Y36342D01*
X37958Y36489D01*
X39246Y36489D01*
X39246Y34376D01*
X39201Y34432D01*
X39118Y34516D01*
X39025Y34590D01*
X38925Y34653D01*
X38818Y34704D01*
X38706Y34743D01*
X38590Y34770D01*
X38539Y34776D01*
X38539Y33853D01*
X38289Y33853D01*
X38289Y34776D01*
X38237Y34770D01*
X38121Y34743D01*
X38009Y34704D01*
X37902Y34653D01*
X37802Y34590D01*
X37709Y34516D01*
X37626Y34432D01*
X37552Y34339D01*
X37489Y34239D01*
X37437Y34132D01*
X37398Y34021D01*
X37372Y33905D01*
X37366Y33853D01*
X38288Y33853D01*
X38288Y33603D01*
X37366Y33603D01*
X37372Y33551D01*
X37398Y33435D01*
X37437Y33324D01*
X37489Y33217D01*
X37552Y33117D01*
X37626Y33024D01*
X37709Y32940D01*
X37802Y32866D01*
X37902Y32803D01*
X38009Y32752D01*
X38121Y32713D01*
X38237Y32686D01*
X38289Y32680D01*
X38289Y33603D01*
X38539Y33603D01*
X38539Y32680D01*
X38590Y32686D01*
X38706Y32713D01*
X38818Y32752D01*
X38925Y32803D01*
X39025Y32866D01*
X39118Y32940D01*
X39201Y33024D01*
X39246Y33080D01*
X39246Y25128D01*
X37137Y25128D01*
X37227Y25218D01*
X37327Y25218D01*
X37477Y25280D01*
X38445Y26248D01*
X38560Y26248D01*
X38774Y26336D01*
X38937Y26499D01*
X39025Y26713D01*
X39025Y26943D01*
X38937Y27157D01*
X38774Y27320D01*
X38675Y27361D01*
X38718Y27383D01*
X38784Y27431D01*
X38842Y27489D01*
X38890Y27555D01*
X38927Y27628D01*
X38952Y27706D01*
X38965Y27787D01*
X38965Y27828D01*
X38965Y27869D01*
X38952Y27950D01*
X38927Y28028D01*
X38890Y28101D01*
X38842Y28167D01*
X38784Y28225D01*
X38752Y28248D01*
X38797Y28248D01*
X38902Y28291D01*
X38982Y28371D01*
X39025Y28476D01*
X39025Y29180D01*
X38982Y29285D01*
X38902Y29365D01*
X38797Y29408D01*
X38093Y29408D01*
X38011Y29374D01*
X38011Y31353D01*
X37949Y31504D01*
X37134Y32319D01*
X36983Y32382D01*
X36820Y32382D01*
X35820Y32382D01*
X35657Y32382D01*
X35560Y32341D01*
X35560Y32448D01*
X35560Y32724D01*
X35621Y32689D01*
X35905Y32613D01*
X36198Y32613D01*
X36482Y32689D01*
X36736Y32836D01*
X36943Y33043D01*
X37090Y33298D01*
X37166Y33581D01*
X37166Y33875D01*
X37090Y34158D01*
X36943Y34413D01*
X36736Y34620D01*
X36482Y34767D01*
X36411Y34786D01*
X36411Y34882D01*
X36528Y34765D01*
X36782Y34618D01*
X37066Y34542D01*
X37359Y34542D01*
X37643Y34618D01*
X37897Y34765D01*
X38105Y34973D01*
X38252Y35227D01*
X38328Y35510D01*
X38319Y35837D02*
X39246Y35837D01*
X39246Y36085D02*
X38252Y36085D01*
X38109Y36334D02*
X39246Y36334D01*
X36001Y35503D02*
X35426Y36078D01*
X27745Y36078D01*
X27495Y35828D01*
X26745Y35378D02*
X26495Y35828D01*
X25495Y35828D02*
X25495Y33828D01*
X24495Y33828D02*
X24495Y35828D01*
X23495Y35828D02*
X23495Y33828D01*
X22745Y33478D02*
X22495Y33828D01*
X22495Y35828D01*
X21495Y35828D02*
X21495Y33828D01*
X21745Y33478D01*
X22195Y33028D01*
X22295Y33028D01*
X25745Y29578D01*
X30045Y29578D01*
X30095Y29478D01*
X29620Y29168D02*
X29810Y28978D01*
X29540Y28708D01*
X29540Y28248D01*
X29810Y27978D01*
X29540Y27708D01*
X29540Y27248D01*
X29865Y26923D01*
X30325Y26923D01*
X30637Y27236D01*
X30890Y26983D01*
X31095Y26983D01*
X31300Y26983D01*
X31590Y27273D01*
X31590Y27478D01*
X31590Y27683D01*
X31337Y27936D01*
X31650Y28248D01*
X31650Y28708D01*
X31380Y28978D01*
X31495Y29093D01*
X31931Y29093D01*
X32159Y28865D01*
X32201Y28765D01*
X32332Y28634D01*
X32503Y28563D01*
X32687Y28563D01*
X32858Y28634D01*
X32989Y28765D01*
X33060Y28936D01*
X33060Y29120D01*
X32996Y29274D01*
X33023Y29263D01*
X33267Y29263D01*
X33493Y29357D01*
X33666Y29530D01*
X33760Y29756D01*
X33760Y29779D01*
X33927Y29893D01*
X34446Y29893D01*
X34355Y29802D01*
X34355Y29578D01*
X34895Y29578D01*
X35435Y29578D01*
X35435Y29802D01*
X35344Y29893D01*
X36075Y29893D01*
X36130Y29886D01*
X36156Y29893D01*
X36183Y29893D01*
X36234Y29914D01*
X36288Y29929D01*
X36309Y29945D01*
X36334Y29955D01*
X36373Y29995D01*
X36417Y30029D01*
X36430Y30052D01*
X36449Y30071D01*
X36470Y30122D01*
X36551Y30264D01*
X36702Y30113D01*
X36895Y30113D01*
X37088Y30113D01*
X37191Y30217D01*
X37191Y29024D01*
X37112Y29103D01*
X36678Y29103D01*
X36563Y28988D01*
X35334Y28988D01*
X35235Y29087D01*
X35187Y29106D01*
X35435Y29354D01*
X35435Y29578D01*
X34895Y29578D01*
X34895Y29578D01*
X34895Y29578D01*
X34355Y29578D01*
X34355Y29354D01*
X34603Y29106D01*
X34555Y29087D01*
X34456Y28988D01*
X34295Y28988D01*
X34144Y28926D01*
X32969Y27750D01*
X32854Y27635D01*
X32791Y27484D01*
X32791Y26394D01*
X28437Y26394D01*
X28560Y26271D02*
X28288Y26543D01*
X28095Y26543D01*
X28095Y26078D01*
X28560Y26078D01*
X28560Y26271D01*
X28560Y26145D02*
X32590Y26145D01*
X32624Y26226D02*
X32530Y26000D01*
X32530Y25756D01*
X32624Y25530D01*
X32797Y25357D01*
X33023Y25263D01*
X33267Y25263D01*
X33493Y25357D01*
X33666Y25530D01*
X33760Y25756D01*
X33760Y26000D01*
X33666Y26226D01*
X33611Y26281D01*
X33611Y27233D01*
X34501Y28123D01*
X34555Y28069D01*
X34776Y27978D01*
X35014Y27978D01*
X35235Y28069D01*
X35334Y28168D01*
X36563Y28168D01*
X36670Y28061D01*
X36430Y27821D01*
X36430Y27628D01*
X36895Y27628D01*
X36895Y27163D01*
X37088Y27163D01*
X37324Y27400D01*
X37369Y27355D01*
X37865Y26860D01*
X37865Y26828D01*
X37151Y26114D01*
X37112Y26153D01*
X37006Y26153D01*
X36903Y26286D01*
X36893Y26310D01*
X36853Y26350D01*
X36819Y26394D01*
X37431Y26394D01*
X36819Y26394D02*
X36796Y26407D01*
X36777Y26426D01*
X36725Y26447D01*
X36677Y26475D01*
X36651Y26478D01*
X36627Y26488D01*
X36571Y26488D01*
X36515Y26495D01*
X36490Y26488D01*
X35334Y26488D01*
X35235Y26587D01*
X35187Y26606D01*
X35435Y26854D01*
X35435Y27078D01*
X35435Y27302D01*
X35119Y27618D01*
X34895Y27618D01*
X34895Y27078D01*
X34895Y27078D01*
X35435Y27078D01*
X34895Y27078D01*
X34895Y27078D01*
X34895Y27078D01*
X34355Y27078D01*
X34355Y27302D01*
X34671Y27618D01*
X34895Y27618D01*
X34895Y27078D01*
X34355Y27078D01*
X34355Y26854D01*
X34603Y26606D01*
X34555Y26587D01*
X34386Y26418D01*
X34295Y26197D01*
X34295Y25959D01*
X34386Y25738D01*
X34555Y25569D01*
X34776Y25478D01*
X35014Y25478D01*
X35235Y25569D01*
X35334Y25668D01*
X36344Y25668D01*
X36370Y25635D01*
X36370Y25411D01*
X36653Y25128D01*
X25922Y25128D01*
X25991Y25197D01*
X26080Y25412D01*
X26080Y26244D01*
X25991Y26459D01*
X25905Y26545D01*
X25905Y27256D01*
X25940Y27291D01*
X26020Y27484D01*
X26020Y28172D01*
X25980Y28268D01*
X26685Y28268D01*
X26685Y26410D01*
X26570Y26295D01*
X26570Y25861D01*
X26878Y25553D01*
X27312Y25553D01*
X27620Y25861D01*
X27620Y26295D01*
X27505Y26410D01*
X27505Y28153D01*
X27699Y28153D01*
X27892Y28233D01*
X28040Y28381D01*
X28120Y28574D01*
X28120Y28782D01*
X28040Y28975D01*
X27892Y29123D01*
X27784Y29168D01*
X29620Y29168D01*
X29661Y29127D02*
X27882Y29127D01*
X28080Y28879D02*
X29711Y28879D01*
X29540Y28630D02*
X28120Y28630D01*
X28041Y28382D02*
X29540Y28382D01*
X29655Y28133D02*
X27505Y28133D01*
X27505Y27885D02*
X29717Y27885D01*
X29540Y27636D02*
X27505Y27636D01*
X27505Y27388D02*
X29540Y27388D01*
X29649Y27139D02*
X27505Y27139D01*
X27505Y26891D02*
X32791Y26891D01*
X32791Y27139D02*
X31456Y27139D01*
X31095Y27139D02*
X31095Y27139D01*
X31095Y26983D02*
X31095Y27478D01*
X31590Y27478D01*
X31095Y27478D01*
X31095Y27478D01*
X31095Y27478D01*
X31095Y26983D01*
X30734Y27139D02*
X30541Y27139D01*
X31095Y27388D02*
X31095Y27388D01*
X31590Y27388D02*
X32791Y27388D01*
X33201Y27403D02*
X33201Y26034D01*
X33145Y25878D01*
X32530Y25897D02*
X28560Y25897D01*
X28560Y25885D02*
X28560Y26078D01*
X28095Y26078D01*
X28095Y26078D01*
X28095Y26078D01*
X28095Y25613D01*
X28288Y25613D01*
X28560Y25885D01*
X28323Y25648D02*
X32574Y25648D01*
X32753Y25400D02*
X26075Y25400D01*
X26080Y25648D02*
X26782Y25648D01*
X26570Y25897D02*
X26080Y25897D01*
X26080Y26145D02*
X26570Y26145D01*
X27095Y26078D02*
X27095Y28678D01*
X27595Y28678D01*
X27095Y28678D02*
X18245Y28678D01*
X17745Y28178D01*
X17495Y27828D01*
X16970Y27885D02*
X16960Y27885D01*
X16960Y27828D02*
X16495Y27828D01*
X16395Y28328D01*
X15595Y29128D01*
X15595Y32128D01*
X3745Y32128D01*
X3245Y31628D01*
X2995Y31528D01*
X2745Y31428D01*
X2595Y31428D01*
X1395Y30228D01*
X845Y30078D01*
X1670Y30078D01*
X1670Y30119D01*
X1657Y30201D01*
X1632Y30280D01*
X1594Y30353D01*
X1545Y30420D01*
X1487Y30478D01*
X1420Y30527D01*
X1386Y30545D01*
X1476Y30582D01*
X1641Y30747D01*
X1730Y30962D01*
X1730Y31194D01*
X1641Y31409D01*
X1476Y31574D01*
X1467Y31578D01*
X1476Y31582D01*
X1641Y31747D01*
X1730Y31962D01*
X1730Y32194D01*
X1641Y32409D01*
X1532Y32518D01*
X14870Y32518D01*
X15003Y32463D01*
X15187Y32463D01*
X15358Y32534D01*
X15489Y32665D01*
X15560Y32836D01*
X15560Y33020D01*
X15518Y33123D01*
X15532Y33123D01*
X15604Y33134D01*
X15673Y33157D01*
X15739Y33190D01*
X15798Y33233D01*
X15850Y33285D01*
X15893Y33344D01*
X15926Y33410D01*
X15949Y33479D01*
X15960Y33551D01*
X15960Y33828D01*
X15960Y34105D01*
X15949Y34177D01*
X15926Y34246D01*
X15893Y34312D01*
X15850Y34371D01*
X15798Y34423D01*
X15739Y34466D01*
X15673Y34499D01*
X15604Y34522D01*
X15532Y34533D01*
X15495Y34533D01*
X15495Y33828D01*
X15595Y33328D01*
X15595Y32128D01*
X15431Y32606D02*
X20037Y32606D01*
X20285Y32358D02*
X1662Y32358D01*
X1730Y32109D02*
X20534Y32109D01*
X20782Y31861D02*
X4447Y31861D01*
X4550Y31758D02*
X4225Y32083D01*
X3765Y32083D01*
X3453Y31770D01*
X3200Y32023D01*
X2995Y32023D01*
X2995Y31528D01*
X2995Y31528D01*
X2995Y31528D01*
X2500Y31528D01*
X2500Y31733D01*
X2790Y32023D01*
X2995Y32023D01*
X2995Y31528D01*
X2500Y31528D01*
X2500Y31323D01*
X2753Y31070D01*
X2535Y30853D01*
X2437Y30893D01*
X2253Y30893D01*
X2082Y30822D01*
X1951Y30691D01*
X1880Y30520D01*
X1880Y30336D01*
X1935Y30203D01*
X1935Y28303D01*
X1880Y28170D01*
X1880Y27986D01*
X1951Y27815D01*
X2082Y27684D01*
X2145Y27658D01*
X2011Y27524D01*
X2009Y27523D01*
X1953Y27466D01*
X1940Y27453D01*
X1928Y27453D01*
X1620Y27145D01*
X1620Y26883D01*
X792Y26054D01*
X789Y26053D01*
X678Y26053D01*
X370Y25745D01*
X370Y25311D01*
X553Y25128D01*
X326Y25128D01*
X326Y28600D01*
X343Y28591D01*
X422Y28566D01*
X504Y28553D01*
X845Y28553D01*
X1186Y28553D01*
X1268Y28566D01*
X1347Y28591D01*
X1420Y28629D01*
X1487Y28678D01*
X1545Y28736D01*
X1594Y28803D01*
X1632Y28876D01*
X1657Y28955D01*
X1670Y29037D01*
X1670Y29078D01*
X1670Y29119D01*
X1657Y29201D01*
X1632Y29280D01*
X1594Y29353D01*
X1545Y29420D01*
X1487Y29478D01*
X1420Y29527D01*
X1347Y29565D01*
X1305Y29578D01*
X1347Y29591D01*
X1420Y29629D01*
X1487Y29678D01*
X1545Y29736D01*
X1594Y29803D01*
X1632Y29876D01*
X1657Y29955D01*
X1670Y30037D01*
X1670Y30078D01*
X845Y30078D01*
X845Y30078D01*
X845Y29603D01*
X845Y29078D01*
X1670Y29078D01*
X845Y29078D01*
X845Y29078D01*
X845Y29078D01*
X845Y28553D01*
X845Y29078D01*
X845Y29078D01*
X845Y30078D01*
X845Y30078D01*
X845Y29873D02*
X845Y29873D01*
X845Y29624D02*
X845Y29624D01*
X1411Y29624D02*
X1935Y29624D01*
X1935Y29376D02*
X1578Y29376D01*
X1669Y29127D02*
X1935Y29127D01*
X1935Y28879D02*
X1632Y28879D01*
X1422Y28630D02*
X1935Y28630D01*
X1935Y28382D02*
X326Y28382D01*
X326Y28133D02*
X1880Y28133D01*
X1922Y27885D02*
X1196Y27885D01*
X1088Y27993D02*
X895Y27993D01*
X895Y27528D01*
X895Y27528D01*
X1360Y27528D01*
X1360Y27721D01*
X1088Y27993D01*
X895Y27993D02*
X702Y27993D01*
X430Y27721D01*
X430Y27528D01*
X895Y27528D01*
X895Y27528D01*
X895Y27528D01*
X895Y27993D01*
X895Y27885D02*
X895Y27885D01*
X594Y27885D02*
X326Y27885D01*
X326Y27636D02*
X430Y27636D01*
X430Y27528D02*
X430Y27335D01*
X702Y27063D01*
X895Y27063D01*
X1088Y27063D01*
X1360Y27335D01*
X1360Y27528D01*
X895Y27528D01*
X895Y27063D01*
X895Y27528D01*
X895Y27528D01*
X430Y27528D01*
X430Y27388D02*
X326Y27388D01*
X895Y27388D02*
X895Y27388D01*
X1360Y27388D02*
X1862Y27388D01*
X2245Y27178D02*
X2145Y26928D01*
X2045Y26728D01*
X1045Y25728D01*
X895Y25528D01*
X1420Y25523D02*
X1420Y25311D01*
X1237Y25128D01*
X6068Y25128D01*
X5999Y25197D01*
X5910Y25412D01*
X5910Y25451D01*
X5712Y25253D01*
X5278Y25253D01*
X4970Y25561D01*
X4970Y25823D01*
X4960Y25833D01*
X4960Y25778D01*
X4495Y25778D01*
X4495Y25778D01*
X4495Y25778D01*
X4495Y26243D01*
X4550Y26243D01*
X4390Y26403D01*
X4078Y26403D01*
X3770Y26711D01*
X3770Y27145D01*
X3993Y27368D01*
X3447Y27368D01*
X3670Y27145D01*
X3670Y26711D01*
X3405Y26446D01*
X3405Y26030D01*
X3405Y26010D01*
X3420Y25995D01*
X3420Y25561D01*
X3112Y25253D01*
X2678Y25253D01*
X2370Y25561D01*
X2370Y25995D01*
X2585Y26210D01*
X2585Y26626D01*
X2362Y26403D01*
X2300Y26403D01*
X2114Y26217D01*
X2360Y25971D01*
X2360Y25778D01*
X1895Y25778D01*
X1895Y25778D01*
X2360Y25778D01*
X2360Y25585D01*
X2088Y25313D01*
X1895Y25313D01*
X1895Y25778D01*
X1895Y25778D01*
X1895Y25313D01*
X1702Y25313D01*
X1456Y25559D01*
X1420Y25523D01*
X1420Y25400D02*
X1616Y25400D01*
X1895Y25400D02*
X1895Y25400D01*
X2174Y25400D02*
X2531Y25400D01*
X2370Y25648D02*
X2360Y25648D01*
X1895Y25648D02*
X1895Y25648D01*
X2360Y25897D02*
X2370Y25897D01*
X2520Y26145D02*
X2185Y26145D01*
X2291Y26394D02*
X2585Y26394D01*
X2995Y26728D02*
X2995Y26028D01*
X2895Y25778D01*
X3420Y25897D02*
X4030Y25897D01*
X4030Y25971D02*
X4030Y25778D01*
X4495Y25778D01*
X4960Y25778D01*
X4960Y25585D01*
X4688Y25313D01*
X4495Y25313D01*
X4495Y25778D01*
X4495Y25778D01*
X4495Y25778D01*
X4495Y26243D01*
X4302Y26243D01*
X4030Y25971D01*
X4030Y25778D02*
X4030Y25585D01*
X4302Y25313D01*
X4495Y25313D01*
X4495Y25778D01*
X4030Y25778D01*
X4030Y25648D02*
X3420Y25648D01*
X3259Y25400D02*
X4216Y25400D01*
X4495Y25400D02*
X4495Y25400D01*
X4774Y25400D02*
X5131Y25400D01*
X4970Y25648D02*
X4960Y25648D01*
X4495Y25648D02*
X4495Y25648D01*
X4495Y25897D02*
X4495Y25897D01*
X4495Y26145D02*
X4495Y26145D01*
X4205Y26145D02*
X3405Y26145D01*
X3405Y26394D02*
X4399Y26394D01*
X3838Y26642D02*
X3602Y26642D01*
X3145Y26928D02*
X2995Y26728D01*
X3670Y26891D02*
X3770Y26891D01*
X3770Y27139D02*
X3670Y27139D01*
X4295Y26928D02*
X4545Y26828D01*
X5395Y25978D01*
X5495Y25778D01*
X6495Y25828D02*
X6495Y27828D01*
X6245Y27728D01*
X5545Y27028D01*
X5295Y26928D01*
X5295Y27678D02*
X4895Y27678D01*
X4795Y27778D01*
X2995Y27778D01*
X2895Y27828D01*
X2245Y27178D01*
X1620Y27139D02*
X1164Y27139D01*
X895Y27139D02*
X895Y27139D01*
X626Y27139D02*
X326Y27139D01*
X326Y26891D02*
X1620Y26891D01*
X1379Y26642D02*
X326Y26642D01*
X326Y26394D02*
X1131Y26394D01*
X882Y26145D02*
X326Y26145D01*
X326Y25897D02*
X521Y25897D01*
X370Y25648D02*
X326Y25648D01*
X326Y25400D02*
X370Y25400D01*
X326Y25151D02*
X529Y25151D01*
X1261Y25151D02*
X6044Y25151D01*
X5915Y25400D02*
X5859Y25400D01*
X7495Y25828D02*
X7495Y27828D01*
X8495Y27828D02*
X8495Y25828D01*
X9495Y25828D02*
X9495Y27828D01*
X10495Y27828D02*
X10495Y25828D01*
X11495Y25828D02*
X11495Y27828D01*
X12495Y27828D02*
X12495Y25828D01*
X13495Y25828D02*
X13495Y27828D01*
X14495Y27828D02*
X14495Y25828D01*
X15495Y25828D02*
X16495Y25828D01*
X15495Y25828D02*
X15495Y27828D01*
X15245Y28178D01*
X14745Y28678D01*
X6295Y28678D01*
X5295Y27678D01*
X5095Y28178D02*
X8295Y31378D01*
X8760Y31364D02*
X15873Y31364D01*
X15851Y31341D02*
X15780Y31170D01*
X15780Y30986D01*
X15851Y30815D01*
X15982Y30684D01*
X16153Y30613D01*
X16337Y30613D01*
X16470Y30668D01*
X16980Y30668D01*
X16980Y30486D01*
X17051Y30315D01*
X17182Y30184D01*
X17353Y30113D01*
X17537Y30113D01*
X17670Y30168D01*
X18712Y30168D01*
X20208Y29088D01*
X18163Y29088D01*
X18013Y29026D01*
X17897Y28910D01*
X17580Y28593D01*
X17391Y28593D01*
X17198Y28513D01*
X17050Y28365D01*
X16970Y28172D01*
X16970Y27484D01*
X17050Y27291D01*
X17198Y27143D01*
X17391Y27063D01*
X17599Y27063D01*
X17792Y27143D01*
X17940Y27291D01*
X17995Y27423D01*
X18050Y27291D01*
X18198Y27143D01*
X18391Y27063D01*
X18599Y27063D01*
X18792Y27143D01*
X18940Y27291D01*
X18995Y27423D01*
X19050Y27291D01*
X19085Y27256D01*
X19085Y26545D01*
X18999Y26459D01*
X18962Y26369D01*
X18944Y26403D01*
X18895Y26470D01*
X18837Y26528D01*
X18770Y26577D01*
X18697Y26615D01*
X18618Y26640D01*
X18536Y26653D01*
X18495Y26653D01*
X18495Y25828D01*
X18495Y25828D01*
X18495Y25828D01*
X17495Y25828D01*
X17545Y26378D01*
X16595Y27328D01*
X16495Y27828D01*
X16495Y27828D01*
X16495Y27828D01*
X16495Y28533D01*
X16532Y28533D01*
X16604Y28522D01*
X16673Y28499D01*
X16739Y28466D01*
X16798Y28423D01*
X16850Y28371D01*
X16893Y28312D01*
X16926Y28246D01*
X16949Y28177D01*
X16960Y28105D01*
X16960Y27828D01*
X16495Y27828D01*
X16495Y27123D01*
X16532Y27123D01*
X16604Y27134D01*
X16673Y27157D01*
X16739Y27190D01*
X16798Y27233D01*
X16850Y27285D01*
X16893Y27344D01*
X16926Y27410D01*
X16949Y27479D01*
X16960Y27551D01*
X16960Y27828D01*
X16960Y27636D02*
X16970Y27636D01*
X17010Y27388D02*
X16915Y27388D01*
X16495Y27388D02*
X16495Y27388D01*
X16386Y27134D02*
X16317Y27157D01*
X16251Y27190D01*
X16192Y27233D01*
X16140Y27285D01*
X16097Y27344D01*
X16064Y27410D01*
X16041Y27479D01*
X16030Y27551D01*
X16030Y27828D01*
X16495Y27828D01*
X16495Y27828D01*
X16495Y27828D01*
X16495Y28533D01*
X16458Y28533D01*
X16386Y28522D01*
X16317Y28499D01*
X16251Y28466D01*
X16192Y28423D01*
X16140Y28371D01*
X16097Y28312D01*
X16064Y28246D01*
X16041Y28177D01*
X16030Y28105D01*
X16030Y27828D01*
X16495Y27828D01*
X16495Y27123D01*
X16458Y27123D01*
X16386Y27134D01*
X16371Y27139D02*
X15905Y27139D01*
X15905Y27256D02*
X15940Y27291D01*
X16020Y27484D01*
X16020Y28172D01*
X15940Y28365D01*
X15792Y28513D01*
X15599Y28593D01*
X15410Y28593D01*
X14977Y29026D01*
X14827Y29088D01*
X6585Y29088D01*
X8426Y30929D01*
X8558Y30984D01*
X8689Y31115D01*
X8760Y31286D01*
X8760Y31470D01*
X8689Y31641D01*
X8558Y31772D01*
X8387Y31843D01*
X8203Y31843D01*
X8032Y31772D01*
X7901Y31641D01*
X7846Y31509D01*
X4964Y28627D01*
X4832Y28572D01*
X4701Y28441D01*
X4630Y28270D01*
X4630Y28188D01*
X3305Y28188D01*
X3305Y29053D01*
X3495Y29243D01*
X3765Y28973D01*
X4225Y28973D01*
X4550Y29298D01*
X4550Y29758D01*
X4280Y30028D01*
X4550Y30298D01*
X4550Y30758D01*
X4280Y31028D01*
X4550Y31298D01*
X4550Y31758D01*
X4550Y31612D02*
X7889Y31612D01*
X7701Y31364D02*
X4550Y31364D01*
X4367Y31115D02*
X7452Y31115D01*
X7204Y30867D02*
X4441Y30867D01*
X4550Y30618D02*
X6955Y30618D01*
X6707Y30370D02*
X4550Y30370D01*
X4373Y30121D02*
X6458Y30121D01*
X6210Y29873D02*
X4435Y29873D01*
X4550Y29624D02*
X5961Y29624D01*
X5713Y29376D02*
X4550Y29376D01*
X4379Y29127D02*
X5464Y29127D01*
X5216Y28879D02*
X3305Y28879D01*
X3379Y29127D02*
X3611Y29127D01*
X2895Y29278D02*
X2995Y29528D01*
X2895Y29278D02*
X2895Y27828D01*
X2345Y28078D02*
X2345Y30428D01*
X1921Y30618D02*
X1513Y30618D01*
X1582Y30370D02*
X1880Y30370D01*
X1935Y30121D02*
X1670Y30121D01*
X1630Y29873D02*
X1935Y29873D01*
X845Y29376D02*
X845Y29376D01*
X845Y29127D02*
X845Y29127D01*
X845Y28879D02*
X845Y28879D01*
X845Y28630D02*
X845Y28630D01*
X3305Y28630D02*
X4967Y28630D01*
X4676Y28382D02*
X3305Y28382D01*
X2123Y27636D02*
X1360Y27636D01*
X895Y27636D02*
X895Y27636D01*
X6624Y29127D02*
X20153Y29127D01*
X20645Y29278D02*
X18845Y30578D01*
X17445Y30578D01*
X16980Y30618D02*
X16350Y30618D01*
X16140Y30618D02*
X8115Y30618D01*
X7867Y30370D02*
X17028Y30370D01*
X17332Y30121D02*
X7618Y30121D01*
X7370Y29873D02*
X19121Y29873D01*
X18777Y30121D02*
X17558Y30121D01*
X19465Y29624D02*
X7121Y29624D01*
X6873Y29376D02*
X19809Y29376D01*
X17866Y28879D02*
X15124Y28879D01*
X15373Y28630D02*
X17617Y28630D01*
X17066Y28382D02*
X16839Y28382D01*
X16495Y28382D02*
X16495Y28382D01*
X16151Y28382D02*
X15924Y28382D01*
X16020Y28133D02*
X16035Y28133D01*
X16020Y27885D02*
X16030Y27885D01*
X16495Y27885D02*
X16495Y27885D01*
X16495Y28133D02*
X16495Y28133D01*
X16955Y28133D02*
X16970Y28133D01*
X16495Y27636D02*
X16495Y27636D01*
X16030Y27636D02*
X16020Y27636D01*
X15980Y27388D02*
X16075Y27388D01*
X15905Y27256D02*
X15905Y26545D01*
X15991Y26459D01*
X15995Y26450D01*
X15999Y26459D01*
X16164Y26624D01*
X16379Y26713D01*
X16611Y26713D01*
X16826Y26624D01*
X16991Y26459D01*
X17028Y26369D01*
X17046Y26403D01*
X17095Y26470D01*
X17153Y26528D01*
X17220Y26577D01*
X17293Y26615D01*
X17372Y26640D01*
X17454Y26653D01*
X17495Y26653D01*
X17495Y25828D01*
X17495Y25828D01*
X17495Y25828D01*
X17970Y25828D01*
X18495Y25828D01*
X18495Y26653D01*
X18454Y26653D01*
X18372Y26640D01*
X18293Y26615D01*
X18220Y26577D01*
X18153Y26528D01*
X18095Y26470D01*
X18046Y26403D01*
X18008Y26330D01*
X17995Y26288D01*
X17982Y26330D01*
X17944Y26403D01*
X17895Y26470D01*
X17837Y26528D01*
X17770Y26577D01*
X17697Y26615D01*
X17618Y26640D01*
X17536Y26653D01*
X17495Y26653D01*
X17495Y25828D01*
X17495Y25897D02*
X17495Y25897D01*
X17495Y26145D02*
X17495Y26145D01*
X17495Y26394D02*
X17495Y26394D01*
X17041Y26394D02*
X17018Y26394D01*
X16782Y26642D02*
X17386Y26642D01*
X17495Y26642D02*
X17495Y26642D01*
X17604Y26642D02*
X18386Y26642D01*
X18495Y26642D02*
X18495Y26642D01*
X18604Y26642D02*
X19085Y26642D01*
X19085Y26891D02*
X15905Y26891D01*
X16495Y27139D02*
X16495Y27139D01*
X16619Y27139D02*
X17206Y27139D01*
X17784Y27139D02*
X18206Y27139D01*
X18010Y27388D02*
X17980Y27388D01*
X18784Y27139D02*
X19085Y27139D01*
X19010Y27388D02*
X18980Y27388D01*
X19495Y27828D02*
X19495Y25828D01*
X18495Y25897D02*
X18495Y25897D01*
X18495Y26145D02*
X18495Y26145D01*
X18495Y26394D02*
X18495Y26394D01*
X18041Y26394D02*
X17949Y26394D01*
X18949Y26394D02*
X18972Y26394D01*
X20495Y25828D02*
X20495Y27828D01*
X21495Y27828D02*
X21495Y25828D01*
X22495Y25828D02*
X22495Y27828D01*
X23495Y27828D02*
X23495Y25828D01*
X24495Y25828D02*
X24495Y27828D01*
X25495Y27828D02*
X25495Y25828D01*
X26018Y26394D02*
X26668Y26394D01*
X26685Y26642D02*
X25905Y26642D01*
X25905Y26891D02*
X26685Y26891D01*
X26685Y27139D02*
X25905Y27139D01*
X25980Y27388D02*
X26685Y27388D01*
X26685Y27636D02*
X26020Y27636D01*
X26020Y27885D02*
X26685Y27885D01*
X26685Y28133D02*
X26020Y28133D01*
X27505Y26642D02*
X32791Y26642D01*
X32791Y26394D02*
X32624Y26226D01*
X33611Y26394D02*
X34376Y26394D01*
X34295Y26145D02*
X33700Y26145D01*
X33760Y25897D02*
X34321Y25897D01*
X34895Y26078D02*
X36545Y26078D01*
X36895Y25628D01*
X37245Y25628D01*
X38445Y26828D01*
X38445Y26859D01*
X37601Y27703D01*
X37601Y31272D01*
X36901Y31972D01*
X35739Y31972D01*
X35295Y31528D01*
X34576Y31528D01*
X34101Y32103D01*
X34101Y33203D01*
X33301Y34003D01*
X32601Y34003D01*
X32001Y34603D01*
X32001Y34882D01*
X32022Y34902D01*
X30451Y34906D02*
X30495Y34228D01*
X30495Y33778D01*
X32195Y32178D01*
X32195Y30328D01*
X31245Y30428D01*
X31095Y30478D01*
X32195Y30328D02*
X32626Y30328D01*
X32551Y30303D01*
X33245Y30678D01*
X33745Y30978D01*
X35745Y31078D01*
X36501Y31003D02*
X36501Y31222D01*
X36495Y31328D01*
X36501Y31003D02*
X36101Y30303D01*
X33801Y30303D01*
X33176Y29878D01*
X33145Y29878D01*
X33706Y29624D02*
X34355Y29624D01*
X34355Y29376D02*
X33513Y29376D01*
X33057Y29127D02*
X34582Y29127D01*
X35208Y29127D02*
X37191Y29127D01*
X37191Y29376D02*
X35435Y29376D01*
X35435Y29624D02*
X37191Y29624D01*
X37191Y29873D02*
X35364Y29873D01*
X34426Y29873D02*
X33898Y29873D01*
X32576Y29028D02*
X32101Y29503D01*
X31120Y29503D01*
X31095Y29478D01*
X31479Y28879D02*
X32145Y28879D01*
X32576Y29028D02*
X32595Y29028D01*
X33037Y28879D02*
X34097Y28879D01*
X33849Y28630D02*
X32850Y28630D01*
X32340Y28630D02*
X31650Y28630D01*
X31650Y28382D02*
X33600Y28382D01*
X33352Y28133D02*
X31535Y28133D01*
X31388Y27885D02*
X33103Y27885D01*
X32855Y27636D02*
X31590Y27636D01*
X33201Y27403D02*
X34376Y28578D01*
X34895Y28578D01*
X36895Y28578D01*
X36597Y28133D02*
X35299Y28133D01*
X34263Y27885D02*
X36494Y27885D01*
X36430Y27636D02*
X34015Y27636D01*
X33766Y27388D02*
X34441Y27388D01*
X34895Y27388D02*
X34895Y27388D01*
X35349Y27388D02*
X36478Y27388D01*
X36430Y27435D02*
X36702Y27163D01*
X36895Y27163D01*
X36895Y27628D01*
X36895Y27628D01*
X36895Y27628D01*
X36430Y27628D01*
X36430Y27435D01*
X36895Y27388D02*
X36895Y27388D01*
X37312Y27388D02*
X37336Y27388D01*
X37585Y27139D02*
X35435Y27139D01*
X35435Y26891D02*
X37833Y26891D01*
X37679Y26642D02*
X35223Y26642D01*
X34567Y26642D02*
X33611Y26642D01*
X33611Y26891D02*
X34355Y26891D01*
X34355Y27139D02*
X33611Y27139D01*
X34895Y27139D02*
X34895Y27139D01*
X37120Y26145D02*
X37182Y26145D01*
X38094Y25897D02*
X39246Y25897D01*
X39246Y26145D02*
X38342Y26145D01*
X38831Y26394D02*
X39246Y26394D01*
X39246Y26642D02*
X38996Y26642D01*
X39025Y26891D02*
X39246Y26891D01*
X39246Y27139D02*
X38944Y27139D01*
X38724Y27388D02*
X39246Y27388D01*
X39246Y27636D02*
X38930Y27636D01*
X38965Y27828D02*
X38445Y27828D01*
X38965Y27828D01*
X38963Y27885D02*
X39246Y27885D01*
X39246Y28133D02*
X38866Y28133D01*
X38986Y28382D02*
X39246Y28382D01*
X39246Y28630D02*
X39025Y28630D01*
X39025Y28879D02*
X39246Y28879D01*
X39246Y29127D02*
X39025Y29127D01*
X38875Y29376D02*
X39246Y29376D01*
X39246Y29624D02*
X38011Y29624D01*
X38011Y29376D02*
X38015Y29376D01*
X38011Y29873D02*
X39246Y29873D01*
X39246Y30121D02*
X38011Y30121D01*
X38011Y30370D02*
X39246Y30370D01*
X39246Y30618D02*
X38011Y30618D01*
X38011Y30867D02*
X39246Y30867D01*
X39246Y31115D02*
X38011Y31115D01*
X38007Y31364D02*
X39246Y31364D01*
X39246Y31612D02*
X37841Y31612D01*
X37592Y31861D02*
X39246Y31861D01*
X39246Y32109D02*
X37344Y32109D01*
X37041Y32358D02*
X39246Y32358D01*
X39246Y32606D02*
X35560Y32606D01*
X35560Y32448D02*
X35035Y32448D01*
X35035Y32448D01*
X35560Y32448D01*
X35560Y32358D02*
X35599Y32358D01*
X34511Y32798D02*
X34511Y33284D01*
X34449Y33435D01*
X33649Y34235D01*
X33629Y34255D01*
X33751Y34377D01*
X33840Y34592D01*
X33840Y35424D01*
X33751Y35639D01*
X33722Y35668D01*
X34653Y35668D01*
X34635Y35650D01*
X34586Y35583D01*
X34548Y35510D01*
X34523Y35431D01*
X34510Y35349D01*
X34510Y35008D01*
X35035Y35008D01*
X35560Y35008D01*
X35560Y35349D01*
X35557Y35367D01*
X35591Y35333D01*
X35591Y34750D01*
X35560Y34732D01*
X35560Y35008D01*
X35035Y35008D01*
X35035Y35008D01*
X35035Y35008D01*
X34510Y35008D01*
X34510Y34667D01*
X34523Y34585D01*
X34548Y34506D01*
X34586Y34433D01*
X34635Y34366D01*
X34693Y34308D01*
X34760Y34259D01*
X34833Y34221D01*
X34912Y34196D01*
X34994Y34183D01*
X35027Y34183D01*
X35012Y34158D01*
X34936Y33875D01*
X34936Y33581D01*
X35012Y33298D01*
X35027Y33273D01*
X34994Y33273D01*
X34912Y33260D01*
X34833Y33235D01*
X34760Y33197D01*
X34693Y33148D01*
X34635Y33090D01*
X34586Y33023D01*
X34548Y32950D01*
X34523Y32871D01*
X34511Y32798D01*
X34511Y32855D02*
X34520Y32855D01*
X34511Y33103D02*
X34648Y33103D01*
X34483Y33352D02*
X34998Y33352D01*
X34936Y33600D02*
X34284Y33600D01*
X34035Y33849D02*
X34936Y33849D01*
X34996Y34097D02*
X33787Y34097D01*
X33720Y34346D02*
X34655Y34346D01*
X34521Y34594D02*
X33840Y34594D01*
X33840Y34843D02*
X34510Y34843D01*
X34510Y35091D02*
X33840Y35091D01*
X33840Y35340D02*
X34510Y35340D01*
X34590Y35588D02*
X33772Y35588D01*
X35560Y35340D02*
X35584Y35340D01*
X36001Y35503D02*
X36001Y33778D01*
X36051Y33728D01*
X37107Y34097D02*
X37425Y34097D01*
X37166Y33849D02*
X38288Y33849D01*
X38289Y34097D02*
X38539Y34097D01*
X38539Y34346D02*
X38289Y34346D01*
X37557Y34346D02*
X36982Y34346D01*
X36871Y34594D02*
X36762Y34594D01*
X36450Y34843D02*
X36411Y34843D01*
X35591Y34843D02*
X35560Y34843D01*
X35560Y35091D02*
X35591Y35091D01*
X37554Y34594D02*
X37809Y34594D01*
X38289Y34594D02*
X38539Y34594D01*
X39018Y34594D02*
X39246Y34594D01*
X39246Y34843D02*
X37975Y34843D01*
X38173Y35091D02*
X39246Y35091D01*
X38539Y33600D02*
X38289Y33600D01*
X38289Y33352D02*
X38539Y33352D01*
X38539Y33103D02*
X38289Y33103D01*
X38289Y32855D02*
X38539Y32855D01*
X39007Y32855D02*
X39246Y32855D01*
X37820Y32855D02*
X36755Y32855D01*
X36978Y33103D02*
X37562Y33103D01*
X37427Y33352D02*
X37105Y33352D01*
X37166Y33600D02*
X37366Y33600D01*
X33255Y32448D02*
X33245Y32078D01*
X33245Y31328D01*
X32745Y31078D01*
X31701Y31134D02*
X31595Y31028D01*
X31701Y31134D02*
X31701Y31703D01*
X31326Y32078D01*
X30045Y32078D01*
X26745Y35378D01*
X27095Y33978D02*
X25845Y32028D01*
X27095Y32578D02*
X27195Y32528D01*
X27595Y32128D01*
X27595Y30578D01*
X28005Y30910D02*
X28005Y32113D01*
X28095Y32113D01*
X28288Y32113D01*
X28560Y32385D01*
X28560Y32578D01*
X28560Y32771D01*
X28288Y33043D01*
X28095Y33043D01*
X28095Y32578D01*
X28095Y32578D01*
X28560Y32578D01*
X28095Y32578D01*
X28095Y32578D01*
X28095Y33043D01*
X27902Y33043D01*
X27630Y32771D01*
X27630Y32673D01*
X27620Y32683D01*
X27620Y32795D01*
X27312Y33103D01*
X27021Y33103D01*
X27319Y33567D01*
X27358Y33584D01*
X27489Y33715D01*
X27560Y33886D01*
X27560Y33983D01*
X29688Y31856D01*
X29620Y31788D01*
X29313Y31788D01*
X29163Y31726D01*
X28120Y30683D01*
X28040Y30875D01*
X28005Y30910D01*
X28044Y30867D02*
X28304Y30867D01*
X28552Y31115D02*
X28005Y31115D01*
X28005Y31364D02*
X28801Y31364D01*
X29049Y31612D02*
X28005Y31612D01*
X28005Y31861D02*
X29682Y31861D01*
X29434Y32109D02*
X28005Y32109D01*
X28095Y32113D02*
X28095Y32578D01*
X28095Y32113D01*
X28095Y32358D02*
X28095Y32358D01*
X28532Y32358D02*
X29185Y32358D01*
X28937Y32606D02*
X28560Y32606D01*
X28476Y32855D02*
X28688Y32855D01*
X28440Y33103D02*
X27021Y33103D01*
X27561Y32855D02*
X27714Y32855D01*
X28095Y32855D02*
X28095Y32855D01*
X28095Y32606D02*
X28095Y32606D01*
X28095Y32578D02*
X28095Y32578D01*
X28191Y33352D02*
X27181Y33352D01*
X27375Y33600D02*
X27943Y33600D01*
X27694Y33849D02*
X27545Y33849D01*
X26195Y30028D02*
X22745Y33478D01*
X20745Y33478D02*
X20495Y33828D01*
X20495Y35828D01*
X19495Y35828D02*
X19495Y33828D01*
X19745Y33478D01*
X22545Y30678D01*
X23695Y30678D01*
X23345Y31178D02*
X23045Y31178D01*
X20745Y33478D01*
X19580Y33063D02*
X19391Y33063D01*
X19198Y33143D01*
X19050Y33291D01*
X18995Y33423D01*
X18940Y33291D01*
X18792Y33143D01*
X18599Y33063D01*
X18391Y33063D01*
X18198Y33143D01*
X18050Y33291D01*
X17995Y33423D01*
X17940Y33291D01*
X17792Y33143D01*
X17599Y33063D01*
X17391Y33063D01*
X17198Y33143D01*
X17050Y33291D01*
X16995Y33423D01*
X16940Y33291D01*
X16792Y33143D01*
X16599Y33063D01*
X16391Y33063D01*
X16198Y33143D01*
X16050Y33291D01*
X15970Y33484D01*
X15970Y34172D01*
X16050Y34365D01*
X16085Y34400D01*
X16085Y35111D01*
X15999Y35197D01*
X15962Y35287D01*
X15944Y35253D01*
X15895Y35186D01*
X15837Y35128D01*
X15770Y35079D01*
X15697Y35041D01*
X15618Y35016D01*
X15536Y35003D01*
X15495Y35003D01*
X15495Y35828D01*
X15495Y33828D01*
X15960Y33828D01*
X15495Y33828D01*
X15495Y33828D01*
X15495Y33828D01*
X15495Y33828D01*
X15030Y33828D01*
X15030Y34105D01*
X15041Y34177D01*
X15064Y34246D01*
X15097Y34312D01*
X15140Y34371D01*
X15192Y34423D01*
X15251Y34466D01*
X15317Y34499D01*
X15386Y34522D01*
X15458Y34533D01*
X15495Y34533D01*
X15495Y33828D01*
X15030Y33828D01*
X15030Y33551D01*
X15041Y33479D01*
X15064Y33410D01*
X15072Y33393D01*
X15003Y33393D01*
X14978Y33383D01*
X15020Y33484D01*
X15020Y34172D01*
X14940Y34365D01*
X14905Y34400D01*
X14905Y35111D01*
X14991Y35197D01*
X15028Y35287D01*
X15046Y35253D01*
X15095Y35186D01*
X15153Y35128D01*
X15220Y35079D01*
X15293Y35041D01*
X15372Y35016D01*
X15454Y35003D01*
X15495Y35003D01*
X15495Y35828D01*
X15495Y35828D01*
X15495Y35588D02*
X15495Y35588D01*
X15495Y35340D02*
X15495Y35340D01*
X15495Y35091D02*
X15495Y35091D01*
X15787Y35091D02*
X16085Y35091D01*
X16085Y34843D02*
X14905Y34843D01*
X14905Y35091D02*
X15203Y35091D01*
X14905Y34594D02*
X16085Y34594D01*
X16042Y34346D02*
X15868Y34346D01*
X15495Y34346D02*
X15495Y34346D01*
X15122Y34346D02*
X14948Y34346D01*
X15020Y34097D02*
X15030Y34097D01*
X15020Y33849D02*
X15030Y33849D01*
X15495Y33849D02*
X15495Y33849D01*
X15495Y34097D02*
X15495Y34097D01*
X15960Y34097D02*
X15970Y34097D01*
X15960Y33849D02*
X15970Y33849D01*
X16495Y33828D02*
X16495Y35828D01*
X17495Y35828D02*
X17495Y33828D01*
X18495Y33828D02*
X18495Y35828D01*
X14495Y35828D02*
X14495Y33828D01*
X15020Y33600D02*
X15030Y33600D01*
X15897Y33352D02*
X16025Y33352D01*
X15970Y33600D02*
X15960Y33600D01*
X16965Y33352D02*
X17025Y33352D01*
X17293Y33103D02*
X16697Y33103D01*
X16293Y33103D02*
X15526Y33103D01*
X15560Y32855D02*
X19788Y32855D01*
X19580Y33063D02*
X21155Y31488D01*
X16470Y31488D01*
X16337Y31543D01*
X16153Y31543D01*
X15982Y31472D01*
X15851Y31341D01*
X15780Y31115D02*
X8690Y31115D01*
X8364Y30867D02*
X15829Y30867D01*
X16245Y31078D02*
X21445Y31078D01*
X21795Y30728D01*
X21031Y31612D02*
X8701Y31612D01*
X3543Y31861D02*
X3362Y31861D01*
X2995Y31861D02*
X2995Y31861D01*
X2628Y31861D02*
X1688Y31861D01*
X1507Y31612D02*
X2500Y31612D01*
X2995Y31612D02*
X2995Y31612D01*
X2500Y31364D02*
X1660Y31364D01*
X1730Y31115D02*
X2708Y31115D01*
X2549Y30867D02*
X2501Y30867D01*
X2189Y30867D02*
X1691Y30867D01*
X1395Y32928D02*
X845Y33078D01*
X1395Y32928D02*
X15095Y32928D01*
X17697Y33103D02*
X18293Y33103D01*
X18697Y33103D02*
X19293Y33103D01*
X19025Y33352D02*
X18965Y33352D01*
X18025Y33352D02*
X17965Y33352D01*
X13495Y33828D02*
X13495Y35828D01*
X12495Y35828D02*
X12495Y33828D01*
X11495Y33828D02*
X11495Y35828D01*
X10495Y35828D02*
X10495Y33828D01*
X9495Y33828D02*
X9495Y35828D01*
X8495Y35828D02*
X8495Y33828D01*
X7495Y33828D02*
X7495Y35828D01*
X6495Y35828D02*
X6495Y33828D01*
X4745Y34928D02*
X4245Y34428D01*
X4045Y34278D01*
X4745Y34928D02*
X5195Y35178D01*
X2045Y34278D02*
X1795Y34228D01*
X1395Y34228D01*
X845Y34078D01*
X15905Y26642D02*
X16208Y26642D01*
X25946Y25151D02*
X36629Y25151D01*
X36381Y25400D02*
X33537Y25400D01*
X33716Y25648D02*
X34476Y25648D01*
X35314Y25648D02*
X36360Y25648D01*
X37597Y25400D02*
X39246Y25400D01*
X39246Y25648D02*
X37845Y25648D01*
X37161Y25151D02*
X39246Y25151D01*
X38445Y27828D02*
X38445Y27828D01*
X37191Y30121D02*
X37096Y30121D01*
X36895Y30121D02*
X36895Y30121D01*
X36895Y30113D02*
X36895Y30578D01*
X36895Y30578D01*
X36895Y30113D01*
X36694Y30121D02*
X36470Y30121D01*
X36895Y30370D02*
X36895Y30370D01*
X30095Y31478D02*
X30045Y31378D01*
X29395Y31378D01*
X28045Y30028D01*
X26195Y30028D01*
X27902Y26543D02*
X27630Y26271D01*
X27630Y26078D01*
X28095Y26078D01*
X28095Y26078D01*
X28095Y26078D01*
X28095Y26543D01*
X27902Y26543D01*
X27753Y26394D02*
X27522Y26394D01*
X28095Y26394D02*
X28095Y26394D01*
X28095Y26145D02*
X28095Y26145D01*
X28095Y26078D02*
X27630Y26078D01*
X27630Y25885D01*
X27902Y25613D01*
X28095Y25613D01*
X28095Y26078D01*
X28095Y25897D02*
X28095Y25897D01*
X27630Y25897D02*
X27620Y25897D01*
X27620Y26145D02*
X27630Y26145D01*
X27408Y25648D02*
X27867Y25648D01*
X28095Y25648D02*
X28095Y25648D01*
D55*
X32595Y29028D03*
X31595Y31028D03*
X36495Y31328D03*
X27095Y33978D03*
X25845Y32028D03*
X23345Y31178D03*
X21795Y30728D03*
X23695Y30678D03*
X20645Y29278D03*
X17445Y30578D03*
X16245Y31078D03*
X15095Y32928D03*
X8295Y31378D03*
X2345Y30428D03*
X5095Y28178D03*
X2345Y28078D03*
M02*
